SplineFontDB: 3.2
FontName: ATM112-Regular
FullName: ATM112-Regular
FamilyName: ATM 112
Weight: Book
Copyright: AzhaguThamizh
Version: 1.001
ItalicAngle: -11
UnderlinePosition: -271
UnderlineWidth: 102
Ascent: 1600
Descent: 400
InvalidEm: 0
sfntRevision: 0x00010042
LayerCount: 2
Layer: 0 1 "Back" 1
Layer: 1 1 "Fore" 0
XUID: [1021 192 2086997156 1433]
StyleMap: 0x0040
FSType: 8
OS2Version: 3
OS2_WeightWidthSlopeOnly: 0
OS2_UseTypoMetrics: 0
CreationTime: 1536402502
ModificationTime: 1545794858
PfmFamily: 17
TTFWeight: 400
TTFWidth: 5
LineGap: 0
VLineGap: 0
Panose: 2 11 6 4 2 2 2 2 2 4
OS2TypoAscent: 2000
OS2TypoAOffset: 0
OS2TypoDescent: -1320
OS2TypoDOffset: 0
OS2TypoLinegap: 0
OS2WinAscent: 2000
OS2WinAOffset: 0
OS2WinDescent: 744
OS2WinDOffset: 0
HheadAscent: 2000
HheadAOffset: 0
HheadDescent: -1320
HheadDOffset: 0
OS2SubXSize: 1400
OS2SubYSize: 1300
OS2SubXOff: 0
OS2SubYOff: 0
OS2SupXSize: 1400
OS2SupYSize: 1300
OS2SupXOff: 0
OS2SupYOff: 0
OS2StrikeYSize: 100
OS2StrikeYPos: 518
OS2CapHeight: 1586
OS2XHeight: -200
OS2Vendor: '    '
OS2CodePages: 00000001.00000000
OS2UnicodeRanges: 00100003.00000000.00000000.00000000
Lookup: 4 0 0 "'akhn' Akhand in Tamil2 lookup 0" { "'akhn' Akhand in Tamil2 lookup 0 subtable"  } ['akhn' ('tml2' <'dflt' > ) ]
Lookup: 4 0 0 "'akhn' Akhand in Tamil lookup 1" { "'akhn' Akhand in Tamil lookup 1 subtable"  } ['akhn' ('taml' <'dflt' > ) ]
Lookup: 4 0 0 "'half' Half Forms in Tamil lookup 2" { "'half' Half Forms in Tamil lookup 2 subtable"  } ['half' ('taml' <'dflt' > ) ]
Lookup: 4 0 0 "'haln' Halant Forms in Tamil2 lookup 3" { "'haln' Halant Forms in Tamil2 lookup 3 subtable"  } ['haln' ('tml2' <'dflt' > ) ]
Lookup: 4 0 0 "'haln' Halant Forms in Tamil lookup 4" { "'haln' Halant Forms in Tamil lookup 4 subtable"  } ['haln' ('taml' <'dflt' > ) ]
Lookup: 4 0 0 "'abvs' Above Base Substitutions lookup 5" { "'abvs' Above Base Substitutions lookup 5 subtable"  } ['abvs' ('taml' <'dflt' > 'tml2' <'dflt' > ) ]

StartChar: .notdef
Encoding: 65536 -1 0
Width: 1000
Flags: W
LayerCount: 2
Fore
SplineSet
126 0 m 1,0,-1
 126 1600 l 1,1,-1
 876 1600 l 1,2,-1
 876 0 l 1,3,-1
 126 0 l 1,0,-1
250 126 m 1,4,-1
 750 126 l 1,5,-1
 750 1476 l 1,6,-1
 250 1476 l 1,7,-1
 250 126 l 1,4,-1
EndSplineSet
EndChar

StartChar: exclam
Encoding: 33 33 4
Width: 950
GlyphClass: 2
Flags: W
LayerCount: 2
Fore
SplineSet
960 1302 m 0,0,1
 960 1186 960 1186 868 894 c 0,2,3
 812 716 812 716 788 626 c 0,4,5
 762 528 762 528 762 460 c 1,6,-1
 684 460 l 1,7,-1
 688 548 l 2,8,9
 692 636 692 636 658 908 c 0,10,11
 628 1148 628 1148 628 1234 c 0,12,13
 628 1476 628 1476 786 1476 c 0,14,15
 960 1476 960 1476 960 1302 c 0,0,1
864 144 m 0,16,17
 864 74 864 74 817 34 c 128,-1,18
 770 -6 770 -6 700 -6 c 0,19,20
 628 -6 628 -6 582 34 c 128,-1,21
 536 74 536 74 536 144 c 0,22,23
 536 206 536 206 587 261 c 128,-1,24
 638 316 638 316 696 316 c 256,25,26
 754 316 754 316 809 259 c 128,-1,27
 864 202 864 202 864 144 c 0,16,17
EndSplineSet
EndChar

StartChar: quotedbl
Encoding: 34 34 5
Width: 822
GlyphClass: 2
Flags: W
LayerCount: 2
Fore
SplineSet
792 1386 m 1,0,1
 718 1366 718 1366 654 1312 c 0,2,3
 584 1252 584 1252 566 1184 c 1,4,5
 626 1184 626 1184 674 1136 c 128,-1,6
 722 1088 722 1088 722 1028 c 0,7,8
 722 956 722 956 679 915 c 128,-1,9
 636 874 636 874 564 874 c 0,10,11
 496 874 496 874 451 917 c 128,-1,12
 406 960 406 960 406 1028 c 0,13,14
 406 1156 406 1156 518 1289 c 128,-1,15
 630 1422 630 1422 756 1446 c 1,16,-1
 792 1386 l 1,0,1
422 1386 m 1,17,18
 348 1366 348 1366 284 1312 c 0,19,20
 214 1252 214 1252 196 1184 c 1,21,22
 256 1184 256 1184 304 1136 c 128,-1,23
 352 1088 352 1088 352 1028 c 0,24,25
 352 956 352 956 309 915 c 128,-1,26
 266 874 266 874 194 874 c 0,27,28
 126 874 126 874 81 917 c 128,-1,29
 36 960 36 960 36 1028 c 0,30,31
 36 1156 36 1156 148 1289 c 128,-1,32
 260 1422 260 1422 386 1446 c 1,33,-1
 422 1386 l 1,17,18
EndSplineSet
EndChar

StartChar: numbersign
Encoding: 35 35 6
Width: 1104
GlyphClass: 2
Flags: W
LayerCount: 2
Fore
SplineSet
1004 458 m 1,0,-1
 766 458 l 1,1,-1
 726 290 l 1,2,-1
 588 290 l 1,3,-1
 628 458 l 1,4,-1
 326 458 l 1,5,-1
 286 290 l 1,6,-1
 148 290 l 1,7,-1
 188 456 l 1,8,-1
 90 456 l 1,9,-1
 90 594 l 1,10,-1
 220 594 l 1,11,-1
 294 898 l 1,12,-1
 90 898 l 1,13,-1
 90 1034 l 1,14,-1
 326 1034 l 1,15,-1
 366 1202 l 1,16,-1
 504 1202 l 1,17,-1
 464 1034 l 1,18,-1
 766 1034 l 1,19,-1
 806 1202 l 1,20,-1
 944 1202 l 1,21,-1
 904 1036 l 1,22,-1
 1004 1036 l 1,23,-1
 1004 898 l 1,24,-1
 872 898 l 1,25,-1
 798 596 l 1,26,-1
 1004 596 l 1,27,-1
 1004 458 l 1,0,-1
734 898 m 1,28,-1
 432 898 l 1,29,-1
 358 594 l 1,30,-1
 660 594 l 1,31,-1
 734 898 l 1,28,-1
EndSplineSet
EndChar

StartChar: dollar
Encoding: 36 36 7
Width: 992
GlyphClass: 2
Flags: W
LayerCount: 2
Fore
SplineSet
1062 1196 m 1,0,1
 1016 1186 1016 1186 978 1186 c 2,2,-1
 958 1186 l 2,3,4
 948 1188 948 1188 946 1190 c 2,5,-1
 900 1288 l 2,6,7
 876 1340 876 1340 800 1352 c 1,8,-1
 646 852 l 1,9,-1
 732 786 l 2,10,11
 804 730 804 730 830 708 c 0,12,13
 880 666 880 666 910 626 c 0,14,15
 998 510 998 510 998 372 c 0,16,17
 998 86 998 86 712 20 c 0,18,19
 626 0 626 0 502 0 c 2,20,-1
 384 0 l 1,21,-1
 354 -96 l 1,22,-1
 194 -96 l 1,23,-1
 228 12 l 1,24,25
 120 32 120 32 74 100 c 0,26,27
 44 146 44 146 16 274 c 1,28,-1
 68 302 l 1,29,-1
 120 314 l 1,30,31
 132 234 132 234 152 198 c 0,32,33
 188 132 188 132 262 132 c 1,34,-1
 434 684 l 1,35,-1
 366 728 l 1,36,37
 288 802 288 802 226 896 c 0,38,39
 146 1016 146 1016 146 1092 c 2,40,-1
 146 1106 l 2,41,42
 146 1304 146 1304 324 1400 c 0,43,44
 464 1476 464 1476 678 1476 c 1,45,-1
 716 1596 l 1,46,-1
 876 1596 l 1,47,-1
 836 1464 l 1,48,49
 938 1444 938 1444 992 1370 c 0,50,51
 1030 1316 1030 1316 1062 1196 c 1,0,1
640 1346 m 1,52,53
 454 1310 454 1310 454 1146 c 0,54,55
 454 1116 454 1116 474 1071 c 128,-1,56
 494 1026 494 1026 526 982 c 1,57,-1
 640 1346 l 1,52,53
688 372 m 1,58,-1
 688 386 l 2,59,60
 688 476 688 476 568 584 c 1,61,-1
 430 150 l 1,62,63
 668 204 668 204 688 372 c 1,58,-1
EndSplineSet
EndChar

StartChar: percent
Encoding: 37 37 8
Width: 1020
GlyphClass: 2
Flags: W
LayerCount: 2
Fore
SplineSet
412 1074 m 256,0,1
 412 992 412 992 355 935 c 128,-1,2
 298 878 298 878 216 878 c 0,3,4
 132 878 132 878 76 934 c 128,-1,5
 20 990 20 990 20 1074 c 0,6,7
 20 1156 20 1156 77 1213 c 128,-1,8
 134 1270 134 1270 216 1270 c 0,9,10
 294 1270 294 1270 353 1213 c 128,-1,11
 412 1156 412 1156 412 1074 c 256,0,1
988 468 m 256,12,13
 988 386 988 386 931 329 c 128,-1,14
 874 272 874 272 792 272 c 0,15,16
 708 272 708 272 651 328 c 128,-1,17
 594 384 594 384 594 468 c 256,18,19
 594 552 594 552 650 609 c 128,-1,20
 706 666 706 666 790 666 c 0,21,22
 872 666 872 666 930 608 c 128,-1,23
 988 550 988 550 988 468 c 256,12,13
806 1342 m 1,24,-1
 362 68 l 1,25,-1
 174 68 l 1,26,-1
 618 1342 l 1,27,-1
 806 1342 l 1,24,-1
290 1074 m 0,28,29
 290 1104 290 1104 269 1126 c 128,-1,30
 248 1148 248 1148 216 1148 c 0,31,32
 150 1150 150 1150 142 1074 c 1,33,34
 142 1010 142 1010 216 1000 c 1,35,36
 288 1000 288 1000 290 1074 c 0,28,29
864 468 m 0,37,38
 866 534 866 534 792 542 c 1,39,40
 718 542 718 542 718 468 c 0,41,42
 718 438 718 438 739 417 c 128,-1,43
 760 396 760 396 790 396 c 256,44,45
 820 396 820 396 842 417 c 128,-1,46
 864 438 864 438 864 468 c 0,37,38
EndSplineSet
EndChar

StartChar: ampersand
Encoding: 38 38 9
Width: 1094
GlyphClass: 2
Flags: W
LayerCount: 2
Fore
SplineSet
1052 462 m 1,0,1
 1030 398 1030 398 1000 334 c 1,2,-1
 1040 286 l 1,3,-1
 1040 68 l 1,4,-1
 920 212 l 1,5,6
 800 106 800 106 728 62 c 0,7,8
 608 -10 608 -10 500 -2 c 2,9,-1
 428 4 l 2,10,11
 280 16 280 16 162 122 c 0,12,13
 56 214 56 214 26 378 c 1,14,-1
 28 418 l 2,15,16
 36 568 36 568 162 692 c 0,17,18
 246 774 246 774 366 808 c 1,19,-1
 274 934 l 1,20,21
 230 1014 230 1014 230 1092 c 2,22,-1
 230 1106 l 2,23,24
 230 1294 230 1294 356 1390 c 0,25,26
 468 1476 468 1476 660 1476 c 0,27,28
 794 1476 794 1476 897 1378 c 128,-1,29
 1000 1280 1000 1280 1000 1148 c 2,30,-1
 1000 1128 l 2,31,32
 1000 1002 1000 1002 888 892 c 0,33,34
 790 794 790 794 658 754 c 1,35,-1
 924 428 l 1,36,-1
 988 542 l 1,37,-1
 1052 462 l 1,0,1
922 1128 m 2,38,-1
 922 1148 l 2,39,40
 922 1248 922 1248 854 1302 c 128,-1,41
 786 1356 786 1356 684 1356 c 0,42,43
 584 1356 584 1356 526 1301 c 128,-1,44
 468 1246 468 1246 468 1146 c 0,45,46
 468 1060 468 1060 509 980 c 128,-1,47
 550 900 550 900 618 856 c 1,48,49
 720 874 720 874 812 944 c 0,50,51
 922 1028 922 1028 922 1128 c 2,38,-1
840 306 m 1,52,-1
 546 636 l 2,53,54
 496 692 496 692 450 728 c 1,55,56
 322 688 322 688 238 610 c 0,57,58
 142 516 142 516 142 394 c 0,59,60
 142 276 142 276 276 180 c 0,61,62
 392 98 392 98 496 98 c 1,63,-1
 514 100 l 2,64,65
 610 110 610 110 685 157 c 128,-1,66
 760 204 760 204 840 306 c 1,52,-1
EndSplineSet
EndChar

StartChar: quotesingle
Encoding: 39 39 10
Width: 492
GlyphClass: 2
Flags: W
LayerCount: 2
Fore
SplineSet
414 1286 m 0,0,1
 414 1154 414 1154 303 1024 c 128,-1,2
 192 894 192 894 62 868 c 1,3,-1
 28 926 l 1,4,5
 96 950 96 950 164 1008 c 128,-1,6
 232 1066 232 1066 254 1128 c 1,7,8
 186 1128 186 1128 144 1176 c 128,-1,9
 102 1224 102 1224 102 1286 c 0,10,11
 102 1346 102 1346 145 1396 c 128,-1,12
 188 1446 188 1446 254 1446 c 0,13,14
 314 1446 314 1446 364 1396 c 128,-1,15
 414 1346 414 1346 414 1286 c 0,0,1
EndSplineSet
EndChar

StartChar: parenleft
Encoding: 40 40 11
Width: 516
GlyphClass: 2
Flags: W
LayerCount: 2
Fore
SplineSet
766 1476 m 1,0,1
 554 1320 554 1320 430 1016 c 0,2,3
 326 762 326 762 290 484 c 2,4,-1
 264 280 l 1,5,-1
 256 116 l 2,6,7
 242 -174 242 -174 438 -430 c 1,8,-1
 402 -464 l 1,9,10
 214 -370 214 -370 118 -128 c 0,11,12
 40 72 40 72 40 318 c 0,13,14
 40 732 40 732 280 1102 c 0,15,16
 456 1376 456 1376 718 1524 c 1,17,-1
 766 1476 l 1,0,1
EndSplineSet
EndChar

StartChar: parenright
Encoding: 41 41 12
Width: 578
GlyphClass: 2
Flags: W
LayerCount: 2
Fore
SplineSet
484 746 m 0,0,1
 484 660 484 660 472 574 c 0,2,3
 426 248 426 248 258 -24 c 0,4,5
 78 -310 78 -310 -196 -464 c 1,6,-1
 -242 -422 l 1,7,8
 128 -148 128 -148 234 574 c 0,9,10
 266 794 266 794 266 940 c 0,11,12
 266 1250 266 1250 86 1488 c 1,13,-1
 122 1524 l 1,14,15
 308 1430 308 1430 404 1188 c 0,16,17
 484 988 484 988 484 746 c 0,0,1
EndSplineSet
EndChar

StartChar: asterisk
Encoding: 42 42 13
Width: 844
GlyphClass: 2
Flags: W
LayerCount: 2
Fore
SplineSet
744 648 m 0,0,1
 744 600 744 600 711 562 c 128,-1,2
 678 524 678 524 632 528 c 2,3,-1
 464 540 l 1,4,-1
 576 468 l 2,5,6
 638 428 638 428 652 364 c 1,7,8
 652 316 652 316 620 277 c 128,-1,9
 588 238 588 238 540 238 c 0,10,11
 466 238 466 238 430 330 c 1,12,-1
 386 480 l 1,13,-1
 344 330 l 1,14,15
 308 238 308 238 234 238 c 0,16,17
 188 238 188 238 155 272 c 128,-1,18
 122 306 122 306 122 352 c 0,19,20
 122 426 122 426 188 466 c 2,21,-1
 308 540 l 1,22,-1
 238 534 l 1,23,-1
 160 530 l 2,24,25
 24 524 24 524 24 632 c 0,26,27
 24 686 24 686 54 722 c 128,-1,28
 84 758 84 758 136 758 c 0,29,30
 184 758 184 758 244 710 c 2,31,-1
 340 632 l 1,32,-1
 316 684 l 1,33,-1
 300 728 l 2,34,35
 278 788 278 788 274 824 c 1,36,37
 274 872 274 872 306 902 c 128,-1,38
 338 932 338 932 386 932 c 0,39,40
 432 932 432 932 466 904 c 128,-1,41
 500 876 500 876 500 832 c 0,42,43
 500 786 500 786 476 730 c 2,44,-1
 434 632 l 1,45,-1
 528 710 l 2,46,47
 586 758 586 758 632 758 c 256,48,49
 678 758 678 758 711 726 c 128,-1,50
 744 694 744 694 744 648 c 0,0,1
EndSplineSet
EndChar

StartChar: plus
Encoding: 43 43 14
Width: 1096
GlyphClass: 2
Flags: W
LayerCount: 2
Fore
SplineSet
1056 612 m 1,0,-1
 636 612 l 1,1,-1
 636 190 l 1,2,-1
 460 190 l 1,3,-1
 460 612 l 1,4,-1
 38 612 l 1,5,-1
 38 786 l 1,6,-1
 458 786 l 1,7,-1
 458 1208 l 1,8,-1
 634 1208 l 1,9,-1
 634 788 l 1,10,-1
 1056 788 l 1,11,-1
 1056 612 l 1,0,-1
EndSplineSet
EndChar

StartChar: comma
Encoding: 44 44 15
Width: 454
GlyphClass: 2
Flags: W
LayerCount: 2
Fore
SplineSet
348 180 m 0,0,1
 348 50 348 50 238 -82 c 128,-1,2
 128 -214 128 -214 0 -238 c 1,3,-1
 -36 -184 l 1,4,5
 32 -158 32 -158 98 -102 c 0,6,7
 174 -40 174 -40 192 20 c 1,8,9
 132 20 132 20 82 70 c 128,-1,10
 32 120 32 120 32 180 c 0,11,12
 32 246 32 246 77 287 c 128,-1,13
 122 328 122 328 188 328 c 256,14,15
 254 328 254 328 301 287 c 128,-1,16
 348 246 348 246 348 180 c 0,0,1
EndSplineSet
EndChar

StartChar: hyphen
Encoding: 45 45 16
Width: 1068
GlyphClass: 2
Flags: W
LayerCount: 2
Fore
SplineSet
1012 426 m 1,0,-1
 54 426 l 1,1,-1
 54 586 l 1,2,-1
 1012 586 l 1,3,-1
 1012 426 l 1,0,-1
EndSplineSet
EndChar

StartChar: period
Encoding: 46 46 17
Width: 454
GlyphClass: 2
Flags: W
LayerCount: 2
Fore
SplineSet
356 144 m 0,0,1
 356 74 356 74 309 34 c 128,-1,2
 262 -6 262 -6 192 -6 c 0,3,4
 120 -6 120 -6 74 34 c 128,-1,5
 28 74 28 74 28 144 c 0,6,7
 28 206 28 206 78 261 c 128,-1,8
 128 316 128 316 188 316 c 0,9,10
 246 316 246 316 301 259 c 128,-1,11
 356 202 356 202 356 144 c 0,0,1
EndSplineSet
EndChar

StartChar: slash
Encoding: 47 47 18
Width: 786
GlyphClass: 2
Flags: W
LayerCount: 2
Fore
SplineSet
964 1476 m 1,0,-1
 28 -364 l 1,1,-1
 -132 -364 l 1,2,-1
 792 1476 l 1,3,-1
 964 1476 l 1,0,-1
EndSplineSet
EndChar

StartChar: zero
Encoding: 48 48 19
Width: 880
GlyphClass: 2
Flags: W
LayerCount: 2
Fore
SplineSet
886 671 m 0,0,1
 886 425 886 425 790 238 c 0,2,3
 667 0 667 0 449 0 c 0,4,5
 235 0 235 0 122 168 c 0,6,7
 11 332 11 332 26 537 c 2,8,-1
 34 667 l 2,9,10
 40 754 40 754 82 873 c 0,11,12
 118 972 118 972 177 1059 c 0,13,14
 315 1265 315 1265 488 1265 c 0,15,16
 693 1265 693 1265 799 1071 c 0,17,18
 886 909 886 909 886 671 c 0,0,1
697 762 m 2,19,20
 707 959 707 959 651 1061 c 128,-1,21
 595 1163 595 1163 488 1163 c 0,22,23
 413 1163 413 1163 328 985 c 0,24,25
 235 794 235 794 235 667 c 1,26,-1
 231 633 l 1,27,-1
 231 564 l 2,28,29
 231 383 231 383 271 256 c 0,30,31
 316 104 316 104 408 104 c 0,32,33
 526 104 526 104 608 282 c 0,34,35
 676 434 676 434 690 608 c 1,36,-1
 694 690 l 1,37,-1
 697 762 l 2,19,20
EndSplineSet
EndChar

StartChar: one
Encoding: 49 49 20
Width: 745
GlyphClass: 2
Flags: W
LayerCount: 2
Fore
SplineSet
663 1199 m 1,0,-1
 466 151 l 1,1,2
 460 46 460 46 576 46 c 2,3,-1
 654 46 l 1,4,-1
 633 0 l 1,5,-1
 34 0 l 1,6,-1
 49 46 l 1,7,-1
 147 46 l 2,8,9
 194 46 194 46 226 89 c 0,10,11
 256 125 256 125 264 175 c 2,12,-1
 402 917 l 1,13,-1
 218 917 l 1,14,-1
 218 987 l 1,15,16
 294 987 294 987 425 1037 c 0,17,18
 578 1093 578 1093 586 1152 c 2,19,-1
 593 1199 l 1,20,-1
 663 1199 l 1,0,-1
EndSplineSet
EndChar

StartChar: two
Encoding: 50 50 21
Width: 941
GlyphClass: 2
Flags: W
LayerCount: 2
Fore
SplineSet
901 838 m 0,0,1
 901 686 901 686 756 534 c 0,2,3
 634 407 634 407 340 219 c 1,4,-1
 340 190 l 1,5,-1
 700 190 l 2,6,7
 734 190 734 190 769 239 c 0,8,9
 802 283 802 283 802 320 c 1,10,-1
 865 320 l 1,11,-1
 773 0 l 1,12,-1
 28 0 l 1,13,-1
 28 63 l 1,14,-1
 150 180 l 2,15,16
 231 257 231 257 322 351 c 2,17,-1
 514 545 l 2,18,19
 711 745 711 745 711 838 c 0,20,21
 711 943 711 943 628 1010 c 0,22,23
 554 1073 554 1073 445 1073 c 0,24,25
 346 1073 346 1073 282.5 1016 c 128,-1,26
 219 959 219 959 219 862 c 1,27,-1
 223 838 l 1,28,-1
 226 805 l 1,29,30
 226 754 226 754 184 754 c 0,31,32
 121 754 121 754 121 862 c 0,33,34
 121 1008 121 1008 243 1099 c 0,35,36
 348 1178 348 1178 471 1178 c 0,37,38
 652 1178 652 1178 767 1099 c 0,39,40
 901 1008 901 1008 901 838 c 0,0,1
EndSplineSet
EndChar

StartChar: three
Encoding: 51 51 22
Width: 925
GlyphClass: 2
Flags: W
LayerCount: 2
Fore
SplineSet
848 896 m 2,0,1
 848 806 848 806 802.5 735 c 128,-1,2
 757 664 757 664 675 634 c 1,3,4
 749 594 749 594 794.5 520 c 128,-1,5
 840 446 840 446 840 364 c 2,6,-1
 840 348 l 2,7,8
 840 130 840 130 578 26 c 0,9,10
 513 0 513 0 437 0 c 1,11,-1
 422 -2 l 1,12,-1
 406 -2 l 2,13,14
 297 -2 297 -2 202 38 c 0,15,16
 88 85 88 85 45 168 c 0,17,18
 26 207 26 207 24 264 c 2,19,-1
 22 295 l 2,20,21
 18 354 18 354 50 415 c 0,22,23
 80 467 80 467 130 467 c 0,24,25
 243 467 243 467 241 348 c 0,26,27
 241 332 241 332 217 274 c 0,28,29
 200 233 200 233 196 202 c 1,30,-1
 197 190 l 1,31,32
 197 134 197 134 267 96 c 0,33,34
 324 63 324 63 388 63 c 0,35,36
 482 63 482 63 565 160 c 0,37,38
 644 251 644 251 644 348 c 0,39,40
 644 435 644 435 609 503 c 0,41,42
 568 585 568 585 490 604 c 1,43,-1
 398 604 l 1,44,-1
 398 672 l 1,45,-1
 490 672 l 2,46,47
 568 672 568 672 616 756 c 0,48,49
 655 826 655 826 655 911 c 0,50,51
 655 985 655 985 591 1037 c 0,52,53
 532 1085 532 1085 454 1085 c 0,54,55
 370 1085 370 1085 328 1055 c 0,56,57
 280 1022 280 1022 272 943 c 1,58,59
 272 889 272 889 261 864 c 0,60,61
 244 827 244 827 214 827 c 0,62,63
 170 827 170 827 170 896 c 2,64,-1
 170 929 l 2,65,66
 170 1054 170 1054 268 1126 c 1,67,68
 358 1187 358 1187 488 1187 c 0,69,70
 626 1187 626 1187 730 1121 c 0,71,72
 848 1042 848 1042 848 911 c 2,73,-1
 848 896 l 2,0,1
EndSplineSet
EndChar

StartChar: four
Encoding: 52 52 23
Width: 1008
GlyphClass: 2
Flags: W
LayerCount: 2
Fore
SplineSet
921 366 m 1,0,-1
 690 366 l 1,1,-1
 671 166 l 2,2,3
 671 125 671 125 693 89 c 0,4,5
 718 46 718 46 756 46 c 2,6,-1
 893 46 l 1,7,-1
 864 0 l 1,8,-1
 235 0 l 1,9,-1
 254 46 l 1,10,-1
 362 46 l 2,11,12
 403 46 403 46 434 94 c 0,13,14
 460 135 460 135 465 180 c 2,15,-1
 485 366 l 1,16,-1
 30 366 l 1,17,-1
 30 415 l 1,18,-1
 748 1219 l 1,19,-1
 797 1219 l 1,20,-1
 695 415 l 1,21,-1
 921 415 l 1,22,-1
 921 366 l 1,0,-1
541 861 m 1,23,-1
 496 861 l 1,24,-1
 158 463 l 1,25,-1
 158 415 l 1,26,-1
 492 415 l 1,27,-1
 541 861 l 1,23,-1
EndSplineSet
EndChar

StartChar: five
Encoding: 53 53 24
Width: 941
GlyphClass: 2
Flags: W
LayerCount: 2
Fore
SplineSet
954 1231 m 1,0,-1
 882 984 l 1,1,-1
 274 984 l 1,2,-1
 210 780 l 1,3,4
 302 844 302 844 414 844 c 0,5,6
 586 844 586 844 720.5 714.5 c 128,-1,7
 855 585 855 585 855 414 c 2,8,-1
 855 403 l 2,9,10
 855 252 855 252 747.5 130 c 128,-1,11
 640 8 640 8 487 0 c 2,12,-1
 419 -4 l 2,13,14
 270 -10 270 -10 153 54 c 0,15,16
 26 123 26 123 26 248 c 0,17,18
 26 312 26 312 50 360 c 0,19,20
 80 424 80 424 137 424 c 0,21,22
 237 424 237 424 231 336 c 2,23,-1
 228 294 l 1,24,-1
 226 248 l 2,25,26
 223 164 223 164 289.5 110 c 128,-1,27
 356 56 356 56 437 60 c 2,28,-1
 487 63 l 2,29,30
 557 68 557 68 614 158 c 0,31,32
 668 241 668 241 668 346 c 1,33,-1
 660 414 l 1,34,35
 637 526 637 526 540 588 c 0,36,37
 451 642 451 642 328 642 c 0,38,39
 186 642 186 642 83 570 c 1,40,-1
 54 598 l 1,41,-1
 237 1178 l 1,42,-1
 847 1178 l 1,43,-1
 891 1231 l 1,44,-1
 954 1231 l 1,0,-1
EndSplineSet
EndChar

StartChar: six
Encoding: 54 54 25
Width: 938
GlyphClass: 2
Flags: W
LayerCount: 2
Fore
SplineSet
857 417 m 2,0,1
 857 235 857 235 738 117.5 c 128,-1,2
 619 0 619 0 442 0 c 0,3,4
 267 0 267 0 153 103 c 0,5,6
 25 219 25 219 25 425 c 0,7,8
 25 739 25 739 223 953 c 0,9,10
 408 1154 408 1154 724 1229 c 1,11,-1
 724 1180 l 1,12,13
 417 1031 417 1031 315 716 c 1,14,15
 390 794 390 794 539 794 c 0,16,17
 680 794 680 794 771 684 c 0,18,19
 857 581 857 581 857 436 c 2,20,-1
 857 417 l 2,0,1
654 436 m 0,21,22
 654 532 654 532 598 608 c 0,23,24
 537 695 537 695 442 695 c 0,25,26
 351 695 351 695 288 604 c 0,27,28
 261 562 261 562 243 518 c 0,29,30
 233 490 233 490 228 425 c 2,31,-1
 225 377 l 2,32,33
 218 273 218 273 277.5 180 c 128,-1,34
 337 87 337 87 442 87 c 0,35,36
 560 87 560 87 614 211 c 0,37,38
 654 299 654 299 654 436 c 0,21,22
EndSplineSet
EndChar

StartChar: seven
Encoding: 55 55 26
Width: 905
GlyphClass: 2
Flags: W
LayerCount: 2
Fore
SplineSet
948 1240 m 1,0,1
 934 1188 934 1188 797 960 c 0,2,3
 530 516 530 516 444 231 c 0,4,5
 405 103 405 103 405 0 c 1,6,-1
 134 0 l 1,7,8
 149 137 149 137 297 358 c 0,9,10
 351 441 351 441 578 743 c 0,11,12
 737 955 737 955 767 1044 c 1,13,-1
 231 1044 l 2,14,15
 187 1044 187 1044 145 974 c 0,16,17
 108 911 108 911 108 861 c 1,18,-1
 30 861 l 1,19,-1
 87 1240 l 1,20,-1
 948 1240 l 1,0,1
EndSplineSet
EndChar

StartChar: eight
Encoding: 56 56 27
Width: 850
GlyphClass: 2
Flags: W
LayerCount: 2
Fore
SplineSet
857 967 m 2,0,1
 857 767 857 767 586 686 c 1,2,3
 669 633 669 633 716 524 c 0,4,5
 760 425 760 425 760 318 c 0,6,7
 760 153 760 153 667 70 c 0,8,9
 588 0 588 0 432 0 c 2,10,-1
 413 0 l 2,11,12
 264 0 264 0 149 85 c 0,13,14
 23 180 23 180 23 324 c 0,15,16
 23 451 23 451 98 553 c 128,-1,17
 173 655 173 655 295 686 c 1,18,19
 197 814 197 814 197 936 c 2,20,-1
 197 948 l 2,21,22
 197 1111 197 1111 316 1197 c 0,23,24
 415 1265 415 1265 566 1265 c 0,25,26
 680 1265 680 1265 768.5 1181 c 128,-1,27
 857 1097 857 1097 857 984 c 2,28,-1
 857 967 l 2,0,1
790 967 m 2,29,-1
 790 984 l 2,30,31
 790 1069 790 1069 731.5 1116 c 128,-1,32
 673 1163 673 1163 586 1163 c 0,33,34
 501 1163 501 1163 451.5 1115 c 128,-1,35
 402 1067 402 1067 402 983 c 0,36,37
 402 907 402 907 436 842 c 0,38,39
 473 771 473 771 530 733 c 1,40,41
 619 754 619 754 693 809 c 0,42,43
 735 840 735 840 765 884 c 0,44,45
 790 922 790 922 790 967 c 2,29,-1
556 318 m 2,46,-1
 556 332 l 2,47,48
 556 461 556 461 345 625 c 1,49,50
 228 588 228 588 173 535 c 0,51,52
 106 470 106 470 91 358 c 1,53,54
 91 301 91 301 135 223 c 0,55,56
 197 113 197 113 275 113 c 2,57,-1
 284 113 l 2,58,59
 385 113 385 113 465 164 c 0,60,61
 556 225 556 225 556 318 c 2,46,-1
EndSplineSet
EndChar

StartChar: nine
Encoding: 57 57 28
Width: 861
GlyphClass: 2
Flags: W
LayerCount: 2
Fore
SplineSet
850 814 m 0,0,1
 850 501 850 501 652 284 c 0,2,3
 466 84 466 84 151 8 c 1,4,-1
 151 57 l 1,5,6
 341 154 341 154 499.5 400 c 128,-1,7
 658 646 658 646 658 856 c 0,8,9
 658 970 658 970 604 1054 c 0,10,11
 540 1152 540 1152 432 1152 c 0,12,13
 314 1152 314 1152 261 1029 c 0,14,15
 221 940 221 940 221 804 c 0,16,17
 221 707 221 707 276 627 c 0,18,19
 337 541 337 541 432 541 c 0,20,21
 532 541 532 541 612 633 c 1,22,23
 571 518 571 518 559 505 c 1,24,25
 465 446 465 446 349 446 c 2,26,-1
 333 446 l 2,27,28
 190 446 190 446 101 556 c 0,29,30
 17 657 17 657 17 804 c 2,31,-1
 17 823 l 2,32,33
 17 1001 17 1001 135.5 1120.5 c 128,-1,34
 254 1240 254 1240 432 1240 c 0,35,36
 605 1240 605 1240 722 1135 c 0,37,38
 850 1019 850 1019 850 814 c 0,0,1
EndSplineSet
EndChar

StartChar: colon
Encoding: 58 58 29
Width: 536
GlyphClass: 2
Flags: W
LayerCount: 2
Fore
SplineSet
408 738 m 0,0,1
 408 666 408 666 365 620 c 128,-1,2
 322 574 322 574 250 574 c 0,3,4
 176 574 176 574 135 619 c 128,-1,5
 94 664 94 664 94 736 c 0,6,7
 94 804 94 804 138 853 c 128,-1,8
 182 902 182 902 250 902 c 256,9,10
 318 902 318 902 363 854 c 128,-1,11
 408 806 408 806 408 738 c 0,0,1
352 168 m 256,12,13
 352 100 352 100 303 57 c 128,-1,14
 254 14 254 14 186 14 c 0,15,16
 116 14 116 14 70 56 c 128,-1,17
 24 98 24 98 24 168 c 256,18,19
 24 238 24 238 70 282 c 128,-1,20
 116 326 116 326 186 326 c 0,21,22
 254 326 254 326 303 281 c 128,-1,23
 352 236 352 236 352 168 c 256,12,13
EndSplineSet
EndChar

StartChar: semicolon
Encoding: 59 59 30
Width: 536
GlyphClass: 2
Flags: W
LayerCount: 2
Fore
SplineSet
418 734 m 0,0,1
 418 666 418 666 369 623 c 128,-1,2
 320 580 320 580 252 580 c 0,3,4
 182 580 182 580 136 622 c 128,-1,5
 90 664 90 664 90 734 c 0,6,7
 90 806 90 806 134 850 c 128,-1,8
 178 894 178 894 250 894 c 0,9,10
 320 894 320 894 369 849 c 128,-1,11
 418 804 418 804 418 734 c 0,0,1
352 156 m 0,12,13
 352 28 352 28 239 -106 c 128,-1,14
 126 -240 126 -240 0 -262 c 1,15,-1
 -36 -208 l 1,16,17
 38 -180 38 -180 100 -128 c 0,18,19
 170 -68 170 -68 192 0 c 1,20,21
 124 0 124 0 82 44 c 128,-1,22
 40 88 40 88 40 156 c 0,23,24
 40 216 40 216 83 266 c 128,-1,25
 126 316 126 316 192 316 c 0,26,27
 254 316 254 316 303 266 c 128,-1,28
 352 216 352 216 352 156 c 0,12,13
EndSplineSet
EndChar

StartChar: less
Encoding: 60 60 31
Width: 1096
GlyphClass: 2
Flags: W
LayerCount: 2
Fore
SplineSet
790 402 m 1,0,-1
 664 276 l 1,1,-1
 242 698 l 1,2,-1
 664 1122 l 1,3,-1
 790 996 l 1,4,-1
 492 698 l 1,5,-1
 790 402 l 1,0,-1
EndSplineSet
EndChar

StartChar: equal
Encoding: 61 61 32
Width: 1068
GlyphClass: 2
Flags: W
LayerCount: 2
Fore
SplineSet
1044 824 m 1,0,-1
 20 824 l 1,1,-1
 20 984 l 1,2,-1
 1044 984 l 1,3,-1
 1044 824 l 1,0,-1
1054 408 m 1,4,-1
 30 408 l 1,5,-1
 30 568 l 1,6,-1
 1054 568 l 1,7,-1
 1054 408 l 1,4,-1
EndSplineSet
EndChar

StartChar: greater
Encoding: 62 62 33
Width: 1096
GlyphClass: 2
Flags: W
LayerCount: 2
Fore
SplineSet
818 698 m 1,0,-1
 396 276 l 1,1,-1
 270 402 l 1,2,-1
 568 698 l 1,3,-1
 270 996 l 1,4,-1
 396 1122 l 1,5,-1
 818 698 l 1,0,-1
EndSplineSet
EndChar

StartChar: question
Encoding: 63 63 34
Width: 1340
GlyphClass: 2
Flags: W
LayerCount: 2
Fore
SplineSet
1254 1224 m 0,0,1
 1254 982 1254 982 1122 820 c 0,2,3
 1064 748 1064 748 882 604 c 0,4,5
 742 492 742 492 742 418 c 1,6,-1
 664 418 l 1,7,8
 676 524 676 524 766 648 c 0,9,10
 840 750 840 750 930 882 c 1,11,12
 1016 1038 1016 1038 1016 1218 c 0,13,14
 1016 1372 1016 1372 932 1456 c 0,15,16
 876 1512 876 1512 824 1512 c 0,17,18
 652 1512 652 1512 528 1410 c 1,19,20
 476 1342 476 1342 476 1256 c 0,21,22
 476 1142 476 1142 550 1118 c 1,23,24
 550 1172 550 1172 606 1172 c 0,25,26
 638 1172 638 1172 667 1149 c 128,-1,27
 696 1126 696 1126 700 1094 c 1,28,29
 700 1054 700 1054 669 1023 c 128,-1,30
 638 992 638 992 598 992 c 0,31,32
 498 992 498 992 448 1070 c 0,33,34
 406 1138 406 1138 406 1242 c 0,35,36
 406 1416 406 1416 527 1526 c 128,-1,37
 648 1636 648 1636 824 1636 c 0,38,39
 986 1636 986 1636 1120 1510 c 128,-1,40
 1254 1384 1254 1384 1254 1224 c 0,0,1
878 144 m 0,41,42
 878 84 878 84 825 36 c 128,-1,43
 772 -12 772 -12 710 -12 c 0,44,45
 650 -12 650 -12 600 36 c 128,-1,46
 550 84 550 84 550 144 c 0,47,48
 550 216 550 216 595 260 c 128,-1,49
 640 304 640 304 712 304 c 0,50,51
 782 304 782 304 830 259 c 128,-1,52
 878 214 878 214 878 144 c 0,41,42
EndSplineSet
EndChar

StartChar: at
Encoding: 64 64 35
Width: 2030
GlyphClass: 2
Flags: W
LayerCount: 2
Fore
SplineSet
1958 18 m 1,0,1
 1868 -208 1868 -208 1500 -358 c 1,2,-1
 1316 -404 l 1,3,-1
 1216 -416 l 1,4,-1
 1096 -420 l 2,5,6
 908 -426 908 -426 726 -372 c 0,7,8
 528 -314 528 -314 394 -202 c 0,9,10
 116 32 116 32 108 458 c 0,11,12
 104 702 104 702 220 940 c 0,13,14
 472 1456 472 1456 1076 1458 c 0,15,16
 1218 1458 1218 1458 1304 1434 c 2,17,-1
 1408 1404 l 2,18,19
 1424 1400 1424 1400 1456 1384 c 0,20,21
 1676 1292 1676 1292 1802 1084 c 0,22,23
 1908 906 1908 906 1910 696 c 0,24,25
 1912 424 1912 424 1710 194 c 0,26,27
 1536 -4 1536 -4 1322 -4 c 2,28,-1
 1296 -4 l 1,29,-1
 1258 0 l 2,30,31
 1198 6 1198 6 1152 76 c 0,32,33
 1140 94 1140 94 1134 160 c 1,34,35
 1012 2 1012 2 834 -2 c 0,36,37
 642 -6 642 -6 534 204 c 0,38,39
 480 310 480 310 480 436 c 0,40,41
 480 588 480 588 555 737 c 128,-1,42
 630 886 630 886 753 971 c 128,-1,43
 876 1056 876 1056 988 1058 c 0,44,45
 1166 1060 1166 1060 1282 878 c 1,46,-1
 1316 1030 l 1,47,-1
 1490 1030 l 1,48,-1
 1320 224 l 1,49,50
 1320 172 1320 172 1388 160 c 1,51,52
 1482 160 1482 160 1600 286 c 0,53,54
 1764 460 1764 460 1766 700 c 0,55,56
 1768 870 1768 870 1674 1012 c 0,57,58
 1588 1144 1588 1144 1432 1230 c 0,59,60
 1382 1258 1382 1258 1260 1294 c 1,61,-1
 1170 1310 l 1,62,-1
 1068 1316 l 2,63,64
 864 1328 864 1328 650 1212 c 0,65,66
 462 1110 462 1110 354 898 c 0,67,68
 254 702 254 702 252 474 c 0,69,70
 250 248 250 248 346 78 c 0,71,72
 450 -104 450 -104 653 -189 c 128,-1,73
 856 -274 856 -274 1094 -276 c 0,74,75
 1558 -280 1558 -280 1782 18 c 1,76,-1
 1958 18 l 1,0,1
1226 634 m 0,77,78
 1226 746 1226 746 1170 824 c 0,79,80
 1108 914 1108 914 1000 914 c 0,81,82
 886 914 886 914 792 800 c 0,83,84
 722 716 722 716 682 578 c 0,85,86
 664 514 664 514 662 424 c 0,87,88
 660 314 660 314 710 236 c 0,89,90
 766 144 766 144 870 142 c 0,91,92
 976 138 976 138 1070 238 c 0,93,94
 1148 320 1148 320 1190 436 c 0,95,96
 1226 536 1226 536 1226 634 c 0,77,78
EndSplineSet
EndChar

StartChar: bracketleft
Encoding: 91 91 36
Width: 556
GlyphClass: 2
Flags: W
LayerCount: 2
Fore
SplineSet
524 -398 m 1,0,-1
 136 -398 l 1,1,-1
 136 1432 l 1,2,-1
 524 1432 l 1,3,-1
 524 1286 l 1,4,-1
 312 1286 l 1,5,-1
 312 -252 l 1,6,-1
 524 -252 l 1,7,-1
 524 -398 l 1,0,-1
EndSplineSet
EndChar

StartChar: backslash
Encoding: 92 92 37
Width: 556
GlyphClass: 2
Flags: W
LayerCount: 2
Fore
SplineSet
556 -24 m 1,0,-1
 416 -24 l 1,1,-1
 0 1456 l 1,2,-1
 142 1456 l 1,3,-1
 556 -24 l 1,0,-1
EndSplineSet
EndChar

StartChar: bracketright
Encoding: 93 93 38
Width: 556
GlyphClass: 2
Flags: W
LayerCount: 2
Fore
SplineSet
426 -398 m 1,0,-1
 38 -398 l 1,1,-1
 38 -252 l 1,2,-1
 250 -252 l 1,3,-1
 250 1286 l 1,4,-1
 38 1286 l 1,5,-1
 38 1432 l 1,6,-1
 426 1432 l 1,7,-1
 426 -398 l 1,0,-1
EndSplineSet
EndChar

StartChar: asciicircum
Encoding: 94 94 39
Width: 938
GlyphClass: 2
Flags: W
LayerCount: 2
Fore
SplineSet
886 674 m 1,0,-1
 708 674 l 1,1,-1
 468 1256 l 1,2,-1
 234 674 l 1,3,-1
 52 674 l 1,4,-1
 398 1456 l 1,5,-1
 540 1456 l 1,6,-1
 886 674 l 1,0,-1
EndSplineSet
EndChar

StartChar: underscore
Encoding: 95 95 40
Width: 1112
GlyphClass: 2
Flags: W
LayerCount: 2
Fore
SplineSet
1134 -398 m 1,0,-1
 -30 -398 l 1,1,-1
 -30 -270 l 1,2,-1
 1134 -270 l 1,3,-1
 1134 -398 l 1,0,-1
EndSplineSet
EndChar

StartChar: grave
Encoding: 96 96 41
Width: 672
GlyphClass: 2
Flags: W
LayerCount: 2
Fore
SplineSet
690 990 m 1,0,-1
 626 960 l 1,1,-1
 450 1276 l 2,2,3
 444 1292 444 1292 444 1308 c 256,4,5
 444 1324 444 1324 448 1338 c 0,6,7
 460 1368 460 1368 492 1388 c 0,8,9
 504 1394 504 1394 528 1398 c 1,10,11
 586 1398 586 1398 610 1336 c 1,12,-1
 690 990 l 1,0,-1
EndSplineSet
EndChar

StartChar: braceleft
Encoding: 123 123 42
Width: 668
GlyphClass: 2
Flags: W
LayerCount: 2
Fore
SplineSet
622 -420 m 1,0,-1
 566 -420 l 2,1,2
 460 -420 460 -420 426 -404 c 1,3,4
 380 -392 380 -392 328 -334 c 0,5,6
 310 -314 310 -314 270 -206 c 1,7,8
 258 -128 258 -128 258 48 c 0,9,10
 258 246 258 246 242 292 c 1,11,12
 218 426 218 426 56 438 c 1,13,-1
 56 598 l 1,14,15
 204 598 204 598 242 744 c 1,16,-1
 252 854 l 1,17,-1
 258 974 l 2,18,19
 258 1034 258 1034 264 1200 c 0,20,21
 268 1316 268 1316 348 1396 c 0,22,23
 372 1420 372 1420 446 1446 c 1,24,-1
 516 1454 l 1,25,-1
 566 1456 l 1,26,-1
 622 1456 l 1,27,-1
 622 1302 l 1,28,-1
 590 1302 l 2,29,30
 494 1302 494 1302 454 1264 c 1,31,32
 422 1226 422 1226 422 1102 c 2,33,-1
 420 824 l 2,34,35
 420 792 420 792 412 780 c 1,36,37
 394 682 394 682 348 624 c 0,38,39
 310 574 310 574 218 518 c 1,40,41
 350 470 350 470 392 338 c 0,42,43
 418 256 418 256 422 78 c 2,44,-1
 426 -148 l 2,45,46
 428 -208 428 -208 466 -242 c 1,47,-1
 506 -258 l 1,48,49
 556 -268 556 -268 590 -268 c 2,50,-1
 622 -268 l 1,51,-1
 622 -420 l 1,0,-1
EndSplineSet
EndChar

StartChar: bar
Encoding: 124 124 43
Width: 520
GlyphClass: 2
Flags: W
LayerCount: 2
Fore
SplineSet
336 -420 m 1,0,-1
 184 -420 l 1,1,-1
 184 1456 l 1,2,-1
 336 1456 l 1,3,-1
 336 -420 l 1,0,-1
EndSplineSet
EndChar

StartChar: braceright
Encoding: 125 125 44
Width: 668
GlyphClass: 2
Flags: W
LayerCount: 2
Fore
SplineSet
612 438 m 1,0,1
 462 438 462 438 424 290 c 1,2,-1
 414 200 l 1,3,-1
 410 -34 l 2,4,5
 410 -86 410 -86 404 -154 c 0,6,7
 400 -234 400 -234 373 -282 c 128,-1,8
 346 -330 346 -330 312 -364 c 1,9,-1
 276 -386 l 1,10,-1
 222 -410 l 1,11,-1
 176 -418 l 1,12,-1
 100 -420 l 1,13,-1
 46 -420 l 1,14,-1
 46 -268 l 1,15,-1
 76 -268 l 2,16,17
 182 -268 182 -268 216 -218 c 0,18,19
 242 -180 242 -180 244 -66 c 2,20,-1
 246 124 l 1,21,-1
 252 244 l 2,22,23
 256 338 256 338 316 416 c 0,24,25
 366 484 366 484 448 518 c 1,26,27
 320 574 320 574 274 698 c 0,28,29
 244 780 244 780 244 958 c 2,30,-1
 244 1078 l 1,31,-1
 238 1200 l 2,32,33
 232 1302 232 1302 76 1302 c 2,34,-1
 46 1302 l 1,35,-1
 46 1456 l 1,36,-1
 100 1456 l 2,37,38
 204 1456 204 1456 250 1436 c 1,39,40
 346 1406 346 1406 396 1240 c 1,41,-1
 406 1138 l 1,42,-1
 410 988 l 2,43,44
 412 896 412 896 424 738 c 1,45,46
 438 652 438 652 544 608 c 1,47,-1
 576 600 l 1,48,-1
 612 598 l 1,49,-1
 612 438 l 1,0,1
EndSplineSet
EndChar

StartChar: asciitilde
Encoding: 126 126 45
Width: 1168
GlyphClass: 2
Flags: W
LayerCount: 2
Fore
SplineSet
1084 658 m 1,0,1
 1024 604 1024 604 960 572 c 1,2,3
 862 544 862 544 814 546 c 2,4,-1
 758 548 l 1,5,-1
 726 548 l 1,6,-1
 704 556 l 2,7,8
 666 566 666 566 524 628 c 0,9,10
 416 676 416 676 340 676 c 0,11,12
 276 676 276 676 222 650 c 1,13,-1
 162 612 l 1,14,-1
 136 592 l 1,15,-1
 84 544 l 1,16,-1
 84 744 l 1,17,18
 186 856 186 856 356 862 c 0,19,20
 380 862 380 862 480 844 c 1,21,22
 506 832 506 832 664 776 c 2,23,-1
 764 740 l 1,24,-1
 806 730 l 1,25,-1
 832 730 l 2,26,27
 948 730 948 730 1084 864 c 1,28,-1
 1084 658 l 1,0,1
EndSplineSet
EndChar

StartChar: cent
Encoding: 162 162 46
Width: 721
GlyphClass: 2
Flags: W
LayerCount: 2
Fore
SplineSet
598 156 m 1,0,1
 537 71 537 71 467 31 c 128,-1,2
 397 -9 397 -9 304 -17 c 1,3,-1
 228 -265 l 1,4,-1
 187 -265 l 1,5,-1
 262 -17 l 1,6,7
 177 -8 177 -8 128.5 47 c 128,-1,8
 80 102 80 102 80 188 c 0,9,10
 80 345 80 345 191.5 478.5 c 128,-1,11
 303 612 303 612 457 638 c 1,12,-1
 541 917 l 1,13,-1
 580 917 l 1,14,-1
 499 638 l 1,15,16
 580 638 580 638 616.5 607 c 128,-1,17
 653 576 653 576 653 523 c 0,18,19
 653 482 653 482 631.5 455.5 c 128,-1,20
 610 429 610 429 580 429 c 0,21,22
 557 429 557 429 544 442 c 128,-1,23
 531 455 531 455 531 476 c 0,24,25
 531 491 531 491 536 502 c 128,-1,26
 541 513 541 513 560.5 534.5 c 128,-1,27
 580 556 580 556 580 570 c 0,28,29
 580 578 580 578 575 585 c 0,30,31
 565 596 565 596 549.5 601 c 128,-1,32
 534 606 534 606 489 606 c 1,33,-1
 322 49 l 1,34,-1
 352 47 l 1,35,36
 470 47 470 47 580 173 c 1,37,-1
 598 156 l 1,0,1
284 57 m 1,38,-1
 445 598 l 1,39,40
 383 570 383 570 342 533 c 0,41,42
 274 467 274 467 237 380.5 c 128,-1,43
 200 294 200 294 200 205 c 0,44,45
 200 146 200 146 224 108 c 0,46,47
 243 81 243 81 284 57 c 1,38,-1
EndSplineSet
EndChar

StartChar: multiply
Encoding: 215 215 47
Width: 1242
GlyphClass: 2
Flags: W
LayerCount: 2
Fore
SplineSet
1012 400 m 1,0,-1
 926 314 l 1,1,-1
 630 608 l 1,2,-1
 334 314 l 1,3,-1
 248 400 l 1,4,-1
 542 696 l 1,5,-1
 248 990 l 1,6,-1
 336 1078 l 1,7,-1
 630 784 l 1,8,-1
 924 1078 l 1,9,-1
 1012 990 l 1,10,-1
 718 696 l 1,11,-1
 1012 400 l 1,0,-1
EndSplineSet
EndChar

StartChar: divide
Encoding: 247 247 48
Width: 1222
GlyphClass: 2
Flags: W
LayerCount: 2
Fore
SplineSet
740 986 m 0,0,1
 740 942 740 942 711 909 c 128,-1,2
 682 876 682 876 640 876 c 0,3,4
 592 876 592 876 556 903 c 128,-1,5
 520 930 520 930 520 976 c 256,6,7
 520 1022 520 1022 552 1054 c 128,-1,8
 584 1086 584 1086 630 1086 c 0,9,10
 674 1086 674 1086 707 1057 c 128,-1,11
 740 1028 740 1028 740 986 c 0,0,1
1052 630 m 1,12,-1
 214 630 l 1,13,-1
 214 754 l 1,14,-1
 1052 754 l 1,15,-1
 1052 630 l 1,12,-1
740 408 m 0,16,17
 740 364 740 364 711 331 c 128,-1,18
 682 298 682 298 640 298 c 0,19,20
 592 298 592 298 556 325 c 128,-1,21
 520 352 520 352 520 398 c 256,22,23
 520 444 520 444 552 476 c 128,-1,24
 584 508 584 508 630 508 c 0,25,26
 674 508 674 508 707 479 c 128,-1,27
 740 450 740 450 740 408 c 0,16,17
EndSplineSet
EndChar

StartChar: tm_visarga
Encoding: 2947 2947 49
Width: 1960
GlyphClass: 2
Flags: W
LayerCount: 2
Fore
SplineSet
1254 1016 m 0,0,1
 1254 890 1254 890 1165 795 c 128,-1,2
 1076 700 1076 700 950 700 c 2,3,-1
 938 700 l 2,4,5
 810 700 810 700 716 790 c 128,-1,6
 622 880 622 880 622 1008 c 2,7,-1
 622 1028 l 2,8,9
 622 1166 622 1166 717 1249 c 128,-1,10
 812 1332 812 1332 950 1332 c 0,11,12
 1074 1332 1074 1332 1164 1236 c 128,-1,13
 1254 1140 1254 1140 1254 1016 c 0,0,1
1852 316 m 0,14,15
 1852 188 1852 188 1762 94 c 128,-1,16
 1672 0 1672 0 1546 0 c 2,17,-1
 1534 0 l 2,18,19
 1404 0 1404 0 1311 91 c 128,-1,20
 1218 182 1218 182 1218 310 c 2,21,-1
 1218 324 l 2,22,23
 1218 466 1218 466 1322 554 c 0,24,25
 1414 632 1414 632 1546 632 c 0,26,27
 1672 632 1672 632 1762 537 c 128,-1,28
 1852 442 1852 442 1852 316 c 0,14,15
664 316 m 0,29,30
 664 190 664 190 575 95 c 128,-1,31
 486 0 486 0 360 0 c 2,32,-1
 348 0 l 2,33,34
 218 0 218 0 125 91 c 128,-1,35
 32 182 32 182 32 310 c 2,36,-1
 32 324 l 2,37,38
 32 466 32 466 136 554 c 0,39,40
 228 632 228 632 360 632 c 0,41,42
 484 632 484 632 574 536 c 128,-1,43
 664 440 664 440 664 316 c 0,29,30
1012 1012 m 0,44,45
 1012 1094 1012 1094 964 1151 c 128,-1,46
 916 1208 916 1208 836 1208 c 0,47,48
 770 1208 770 1208 730 1146 c 0,49,50
 698 1094 698 1094 698 1022 c 0,51,52
 698 940 698 940 734 886 c 0,53,54
 776 824 776 824 844 824 c 0,55,56
 922 824 922 824 967 878 c 128,-1,57
 1012 932 1012 932 1012 1012 c 0,44,45
1614 302 m 2,58,-1
 1614 316 l 1,59,60
 1596 508 1596 508 1434 508 c 0,61,62
 1380 508 1380 508 1338 444 c 128,-1,63
 1296 380 1296 380 1296 324 c 0,64,65
 1296 258 1296 258 1338 194 c 0,66,67
 1384 122 1384 122 1446 122 c 0,68,69
 1514 122 1514 122 1564 178 c 128,-1,70
 1614 234 1614 234 1614 302 c 2,58,-1
426 316 m 0,71,72
 426 508 426 508 246 508 c 0,73,74
 190 508 190 508 148 442 c 0,75,76
 110 384 110 384 110 324 c 0,77,78
 110 248 110 248 154 188 c 0,79,80
 202 122 202 122 258 122 c 0,81,82
 330 122 330 122 378 182 c 128,-1,83
 426 242 426 242 426 316 c 0,71,72
EndSplineSet
EndChar

StartChar: tm_a
Encoding: 2949 2949 50
Width: 2332
GlyphClass: 2
Flags: W
LayerCount: 2
Fore
SplineSet
2226 856 m 1,0,-1
 2066 -238 l 1,1,-1
 1832 -238 l 1,2,-1
 1898 234 l 1,3,-1
 1700 234 l 1,4,5
 1622 -8 1622 -8 1358 -136 c 0,6,7
 1122 -250 1122 -250 790 -250 c 0,8,9
 520 -250 520 -250 296 -158 c 0,10,11
 24 -46 24 -46 24 122 c 0,12,13
 24 292 24 292 204 292 c 2,14,-1
 1472 292 l 1,15,16
 1492 378 1492 378 1492 426 c 0,17,18
 1492 564 1492 564 1418 694 c 0,19,20
 1330 844 1330 844 1202 844 c 2,21,-1
 1188 844 l 1,22,23
 1240 820 1240 820 1270 753 c 128,-1,24
 1300 686 1300 686 1300 622 c 0,25,26
 1300 524 1300 524 1224 442 c 128,-1,27
 1148 360 1148 360 1050 360 c 0,28,29
 944 360 944 360 876 440 c 0,30,31
 812 514 812 514 812 622 c 0,32,33
 812 764 812 764 960 854 c 0,34,35
 1088 934 1088 934 1238 934 c 0,36,37
 1448 934 1448 934 1588 788 c 128,-1,38
 1728 642 1728 642 1728 432 c 0,39,40
 1728 364 1728 364 1710 292 c 1,41,-1
 1910 292 l 1,42,-1
 1988 856 l 1,43,-1
 2226 856 l 1,0,-1
1074 622 m 1,44,-1
 1074 642 l 2,45,46
 1074 746 1074 746 1016 754 c 1,47,-1
 1008 756 l 1,48,-1
 1000 756 l 2,49,50
 950 756 950 756 918 704 c 0,51,52
 892 660 892 660 892 606 c 0,53,54
 892 516 892 516 960 496 c 1,55,-1
 980 494 l 1,56,57
 1054 494 1054 494 1074 622 c 1,44,-1
1458 234 m 1,58,-1
 214 234 l 2,59,60
 102 234 102 234 102 122 c 0,61,62
 102 -32 102 -32 384 -114 c 0,63,64
 586 -172 586 -172 790 -172 c 0,65,66
 1008 -172 1008 -172 1188 -70 c 0,67,68
 1386 42 1386 42 1458 234 c 1,58,-1
EndSplineSet
EndChar

StartChar: tm_aa
Encoding: 2950 2950 51
Width: 2704
GlyphClass: 2
Flags: W
LayerCount: 2
Fore
SplineSet
2600 40 m 2,0,-1
 2598 0 l 2,1,2
 2592 -110 2592 -110 2540 -196 c 0,3,4
 2482 -294 2482 -294 2376 -374 c 0,5,6
 2158 -542 2158 -542 1864 -542 c 0,7,8
 1356 -542 1356 -542 1356 -286 c 0,9,10
 1356 -226 1356 -226 1399 -181 c 128,-1,11
 1442 -136 1442 -136 1504 -136 c 2,12,-1
 1750 -136 l 1,13,-1
 1730 -208 l 1,14,-1
 1492 -208 l 2,15,16
 1470 -208 1470 -208 1452 -236 c 128,-1,17
 1434 -264 1434 -264 1434 -286 c 0,18,19
 1434 -374 1434 -374 1560 -422 c 0,20,21
 1670 -464 1670 -464 1864 -464 c 0,22,23
 2040 -464 2040 -464 2194 -332 c 0,24,25
 2364 -188 2364 -188 2364 0 c 0,26,27
 2364 64 2364 64 2346 116 c 0,28,29
 2322 192 2322 192 2270 192 c 0,30,31
 2184 192 2184 192 2126 128 c 1,32,-1
 2066 -238 l 1,33,-1
 1832 -238 l 1,34,-1
 1898 234 l 1,35,-1
 1700 234 l 1,36,37
 1622 -8 1622 -8 1358 -136 c 0,38,39
 1122 -250 1122 -250 790 -250 c 0,40,41
 520 -250 520 -250 296 -158 c 0,42,43
 24 -46 24 -46 24 122 c 0,44,45
 24 292 24 292 204 292 c 2,46,-1
 1472 292 l 1,47,48
 1492 378 1492 378 1492 426 c 0,49,50
 1492 564 1492 564 1418 694 c 0,51,52
 1330 844 1330 844 1202 844 c 2,53,-1
 1188 844 l 1,54,55
 1240 820 1240 820 1270 753 c 128,-1,56
 1300 686 1300 686 1300 622 c 0,57,58
 1300 524 1300 524 1224 442 c 128,-1,59
 1148 360 1148 360 1050 360 c 0,60,61
 944 360 944 360 876 440 c 0,62,63
 812 514 812 514 812 622 c 0,64,65
 812 764 812 764 960 854 c 0,66,67
 1088 934 1088 934 1238 934 c 0,68,69
 1448 934 1448 934 1588 788 c 128,-1,70
 1728 642 1728 642 1728 432 c 0,71,72
 1728 364 1728 364 1710 292 c 1,73,-1
 1910 292 l 1,74,-1
 1988 856 l 1,75,-1
 2226 856 l 1,76,-1
 2136 222 l 1,77,78
 2226 324 2226 324 2352 324 c 0,79,80
 2462 324 2462 324 2532 240 c 0,81,82
 2606 148 2606 148 2600 40 c 2,0,-1
1078 646 m 0,83,84
 1078 748 1078 748 1016 754 c 1,85,-1
 1008 756 l 1,86,-1
 1000 756 l 2,87,88
 950 756 950 756 918 704 c 0,89,90
 892 660 892 660 892 606 c 0,91,92
 892 516 892 516 960 496 c 1,93,-1
 980 492 l 1,94,95
 1026 492 1026 492 1054 548 c 0,96,97
 1078 596 1078 596 1078 646 c 0,83,84
1418 208 m 1,98,-1
 214 214 l 2,99,100
 102 214 102 214 102 122 c 0,101,102
 102 -32 102 -32 384 -114 c 0,103,104
 586 -172 586 -172 790 -172 c 0,105,106
 1002 -172 1002 -172 1166 -80 c 0,107,108
 1348 22 1348 22 1418 208 c 1,98,-1
EndSplineSet
EndChar

StartChar: tm_i
Encoding: 2951 2951 52
Width: 1918
GlyphClass: 2
Flags: W
LayerCount: 2
Fore
SplineSet
1816 650 m 2,0,-1
 1812 586 l 1,1,-1
 1746 54 l 1,2,-1
 1668 54 l 1,3,-1
 1728 622 l 1,4,5
 1728 804 1728 804 1524 958 c 0,6,7
 1298 1128 1298 1128 964 1128 c 2,8,-1
 934 1128 l 2,9,10
 604 1128 604 1128 362 912 c 0,11,12
 152 724 152 724 140 520 c 2,13,-1
 136 446 l 2,14,15
 124 212 124 212 282 -40 c 1,16,17
 588 118 588 118 928 118 c 0,18,19
 1030 118 1030 118 1126 106 c 1,20,21
 1226 306 1226 306 1226 528 c 2,22,-1
 1226 536 l 2,23,24
 1226 656 1226 656 1162 744 c 0,25,26
 1092 844 1092 844 976 844 c 0,27,28
 868 844 868 844 832 790 c 1,29,30
 930 768 930 768 996 700 c 0,31,32
 1066 626 1066 626 1066 528 c 0,33,34
 1066 270 1066 270 796 270 c 0,35,36
 680 270 680 270 608 342 c 128,-1,37
 536 414 536 414 536 528 c 0,38,39
 536 688 536 688 669 813 c 128,-1,40
 802 938 802 938 964 938 c 0,41,42
 1158 938 1158 938 1304 832 c 0,43,44
 1464 716 1464 716 1464 528 c 2,45,-1
 1464 490 l 2,46,47
 1464 266 1464 266 1352 54 c 1,48,49
 1700 -60 1700 -60 1700 -340 c 0,50,51
 1700 -496 1700 -496 1530 -588 c 0,52,53
 1382 -668 1382 -668 1204 -668 c 2,54,-1
 1174 -668 l 2,55,56
 950 -668 950 -668 700 -528 c 1,57,58
 414 -680 414 -680 152 -680 c 0,59,60
 44 -680 44 -680 -22 -632 c 0,61,62
 -98 -576 -98 -576 -98 -472 c 2,63,-1
 -98 -464 l 2,64,65
 -98 -274 -98 -274 210 -82 c 1,66,67
 24 204 24 204 36 442 c 2,68,-1
 40 528 l 2,69,70
 52 768 52 768 254 1008 c 0,71,72
 518 1320 518 1320 934 1320 c 2,73,-1
 956 1320 l 2,74,75
 1298 1320 1298 1320 1558 1116 c 0,76,77
 1832 898 1832 898 1816 650 c 2,0,-1
830 522 m 256,78,79
 830 578 830 578 797 615 c 128,-1,80
 764 652 764 652 708 652 c 0,81,82
 664 652 664 652 640 611 c 128,-1,83
 616 570 616 570 616 522 c 0,84,85
 616 472 616 472 636 436 c 0,86,87
 662 394 662 394 708 394 c 0,88,89
 764 394 764 394 797 430 c 128,-1,90
 830 466 830 466 830 522 c 256,78,79
1464 -214 m 0,91,92
 1464 -94 1464 -94 1304 -20 c 1,93,94
 1148 -254 1148 -254 792 -472 c 1,95,96
 912 -520 912 -520 1050 -520 c 0,97,98
 1216 -520 1216 -520 1328 -452 c 0,99,100
 1464 -370 1464 -370 1464 -214 c 0,91,92
1094 46 m 1,101,102
 994 64 994 64 900 64 c 0,103,104
 594 64 594 64 320 -98 c 1,105,106
 452 -266 452 -266 652 -394 c 1,107,108
 946 -200 946 -200 1094 46 c 1,101,102
574 -450 m 1,109,110
 376 -306 376 -306 254 -140 c 1,111,112
 178 -188 178 -188 118 -250 c 0,113,114
 -10 -380 -10 -380 -10 -484 c 0,115,116
 -10 -602 -10 -602 152 -602 c 0,117,118
 320 -602 320 -602 574 -450 c 1,109,110
EndSplineSet
EndChar

StartChar: tm_ii
Encoding: 2952 2952 53
Width: 1382
GlyphClass: 2
Flags: W
LayerCount: 2
Fore
SplineSet
1282 484 m 0,0,1
 1282 416 1282 416 1233 373 c 128,-1,2
 1184 330 1184 330 1116 330 c 0,3,4
 1046 330 1046 330 1000 372 c 128,-1,5
 954 414 954 414 954 484 c 0,6,7
 954 546 954 546 1002 599 c 128,-1,8
 1050 652 1050 652 1110 652 c 256,9,10
 1170 652 1170 652 1226 596 c 128,-1,11
 1282 540 1282 540 1282 484 c 0,0,1
1316 926 m 1,12,-1
 1292 868 l 1,13,-1
 918 868 l 1,14,-1
 804 0 l 1,15,-1
 570 0 l 1,16,-1
 684 868 l 1,17,-1
 208 868 l 1,18,-1
 94 0 l 1,19,-1
 16 0 l 1,20,-1
 128 926 l 1,21,-1
 1316 926 l 1,12,-1
558 484 m 0,22,23
 558 416 558 416 509 373 c 128,-1,24
 460 330 460 330 392 330 c 0,25,26
 322 330 322 330 276 372 c 128,-1,27
 230 414 230 414 230 484 c 0,28,29
 230 556 230 556 274 600 c 128,-1,30
 318 644 318 644 390 644 c 0,31,32
 460 644 460 644 509 599 c 128,-1,33
 558 554 558 554 558 484 c 0,22,23
EndSplineSet
EndChar

StartChar: tm_u
Encoding: 2953 2953 54
Width: 1836
GlyphClass: 2
Flags: W
LayerCount: 2
Fore
SplineSet
1750 54 m 1,0,-1
 1710 0 l 1,1,-1
 254 0 l 2,2,3
 168 0 168 0 108 30 c 0,4,5
 28 68 28 68 28 144 c 0,6,7
 28 218 28 218 118 256 c 0,8,9
 180 282 180 282 266 282 c 2,10,-1
 446 282 l 2,11,12
 592 282 592 282 710 360 c 0,13,14
 844 446 844 446 844 586 c 0,15,16
 844 724 844 724 743 825 c 128,-1,17
 642 926 642 926 504 926 c 0,18,19
 468 926 468 926 418 909 c 128,-1,20
 368 892 368 892 344 868 c 1,21,22
 426 856 426 856 486 789 c 128,-1,23
 546 722 546 722 546 640 c 2,24,-1
 546 632 l 2,25,26
 546 538 546 538 470 472 c 128,-1,27
 394 406 394 406 300 406 c 0,28,29
 204 406 204 406 139 477 c 128,-1,30
 74 548 74 548 74 640 c 0,31,32
 74 818 74 818 238 920 c 0,33,34
 374 1004 374 1004 558 1004 c 0,35,36
 756 1004 756 1004 906 902 c 0,37,38
 1078 788 1078 788 1078 598 c 2,39,-1
 1078 574 l 2,40,41
 1078 414 1078 414 964 302 c 0,42,43
 840 182 840 182 604 182 c 2,44,-1
 298 182 l 2,45,46
 186 182 186 182 186 106 c 0,47,48
 186 70 186 70 232 58 c 1,49,-1
 264 54 l 1,50,-1
 1750 54 l 1,0,-1
332 632 m 2,51,-1
 332 640 l 2,52,53
 332 684 332 684 307 715 c 128,-1,54
 282 746 282 746 240 746 c 0,55,56
 152 746 152 746 152 640 c 0,57,58
 152 598 152 598 170 564 c 0,59,60
 192 520 192 520 230 520 c 2,61,-1
 238 520 l 2,62,63
 278 520 278 520 305 555 c 128,-1,64
 332 590 332 590 332 632 c 2,51,-1
EndSplineSet
EndChar

StartChar: tm_uu
Encoding: 2954 2954 55
Width: 2890
GlyphClass: 2
Flags: W
LayerCount: 2
Fore
SplineSet
2790 926 m 1,0,-1
 2770 868 l 1,1,-1
 2586 868 l 1,2,-1
 2520 234 l 1,3,-1
 2292 234 l 1,4,-1
 2372 868 l 1,5,-1
 2204 868 l 1,6,-1
 2126 234 l 1,7,-1
 1898 234 l 1,8,-1
 1954 622 l 1,9,10
 1954 680 1954 680 1934 720 c 128,-1,11
 1914 760 1914 760 1870 794 c 0,12,13
 1802 848 1802 848 1696 848 c 0,14,15
 1556 848 1556 848 1440 766 c 0,16,17
 1312 676 1312 676 1312 540 c 0,18,19
 1312 498 1312 498 1333 440 c 128,-1,20
 1354 382 1354 382 1378 360 c 1,21,-1
 1370 434 l 1,22,23
 1370 530 1370 530 1418 591 c 128,-1,24
 1466 652 1466 652 1558 652 c 0,25,26
 1638 652 1638 652 1706 584 c 128,-1,27
 1774 516 1774 516 1774 438 c 0,28,29
 1774 334 1774 334 1704 278 c 128,-1,30
 1634 222 1634 222 1528 222 c 0,31,32
 1400 222 1400 222 1315 317 c 128,-1,33
 1230 412 1230 412 1230 540 c 0,34,35
 1230 712 1230 712 1388 830 c 0,36,37
 1532 938 1532 938 1708 938 c 0,38,39
 1970 938 1970 938 2106 730 c 1,40,-1
 2136 926 l 1,41,-1
 2790 926 l 1,0,-1
2680 54 m 1,42,-1
 2656 0 l 1,43,-1
 262 0 l 2,44,45
 176 0 176 0 116 30 c 0,46,47
 36 68 36 68 36 144 c 256,48,49
 36 220 36 220 124 266 c 0,50,51
 194 302 194 302 270 302 c 2,52,-1
 454 302 l 2,53,54
 602 302 602 302 714 368 c 0,55,56
 848 448 848 448 848 586 c 256,57,58
 848 724 848 724 747 825 c 128,-1,59
 646 926 646 926 508 926 c 0,60,61
 474 926 474 926 422 908 c 128,-1,62
 370 890 370 890 352 868 c 1,63,64
 436 860 436 860 495 789 c 128,-1,65
 554 718 554 718 554 632 c 0,66,67
 554 536 554 536 484 475 c 128,-1,68
 414 414 414 414 316 414 c 0,69,70
 212 414 212 414 145 476 c 128,-1,71
 78 538 78 538 78 640 c 0,72,73
 78 818 78 818 242 920 c 0,74,75
 378 1004 378 1004 566 1004 c 0,76,77
 768 1004 768 1004 920 896 c 0,78,79
 1086 778 1086 778 1086 592 c 2,80,-1
 1086 574 l 2,81,82
 1086 412 1086 412 976 302 c 0,83,84
 856 182 856 182 622 182 c 2,85,-1
 316 182 l 2,86,87
 192 182 192 182 192 104 c 0,88,89
 192 62 192 62 238 54 c 1,90,-1
 2680 54 l 1,42,-1
1562 436 m 0,91,92
 1562 540 1562 540 1504 540 c 0,93,94
 1470 540 1470 540 1450 505 c 128,-1,95
 1430 470 1430 470 1430 434 c 0,96,97
 1430 392 1430 392 1450 354 c 128,-1,98
 1470 316 1470 316 1496 316 c 0,99,100
 1530 316 1530 316 1548 362 c 0,101,102
 1562 396 1562 396 1562 436 c 0,91,92
338 630 m 0,103,104
 338 680 338 680 312 717 c 128,-1,105
 286 754 286 754 238 754 c 0,106,107
 206 754 206 754 181 714 c 128,-1,108
 156 674 156 674 156 640 c 0,109,110
 156 598 156 598 176 562 c 0,111,112
 198 520 198 520 238 520 c 2,113,-1
 248 520 l 2,114,115
 338 520 338 520 338 630 c 0,103,104
EndSplineSet
EndChar

StartChar: tm_e
Encoding: 2958 2958 56
Width: 1648
GlyphClass: 2
Flags: W
LayerCount: 2
Fore
SplineSet
1590 942 m 1,0,-1
 1570 868 l 1,1,-1
 1332 868 l 1,2,-1
 1218 0 l 1,3,-1
 980 0 l 1,4,-1
 1094 868 l 1,5,-1
 610 868 l 2,6,7
 434 868 434 868 276 736 c 0,8,9
 110 598 110 598 110 426 c 0,10,11
 110 376 110 376 138 294 c 0,12,13
 170 202 170 202 204 180 c 1,14,-1
 196 268 l 1,15,16
 196 400 196 400 258 482 c 0,17,18
 328 574 328 574 450 574 c 0,19,20
 554 574 554 574 618 482 c 0,21,22
 676 402 676 402 676 292 c 0,23,24
 676 158 676 158 595 73 c 128,-1,25
 514 -12 514 -12 382 -12 c 0,26,27
 220 -12 220 -12 120 130 c 0,28,29
 32 258 32 258 32 426 c 0,30,31
 32 616 32 616 198 774 c 0,32,33
 376 942 376 942 610 942 c 2,34,-1
 1590 942 l 1,0,-1
438 258 m 0,35,36
 438 426 438 426 360 426 c 0,37,38
 326 426 326 426 296 382 c 1,39,40
 270 330 270 330 270 282 c 256,41,42
 270 234 270 234 286 186 c 0,43,44
 308 124 308 124 348 122 c 0,45,46
 394 120 394 120 418 170 c 0,47,48
 438 208 438 208 438 258 c 0,35,36
EndSplineSet
EndChar

StartChar: tm_ee
Encoding: 2959 2959 57
Width: 1648
GlyphClass: 2
Flags: W
LayerCount: 2
Fore
SplineSet
1590 942 m 1,0,-1
 1570 868 l 1,1,-1
 1332 868 l 1,2,-1
 1226 54 l 1,3,4
 1062 8 1062 8 924 -100 c 0,5,6
 812 -188 812 -188 688 -340 c 1,7,-1
 632 -286 l 1,8,9
 714 -116 714 -116 868 36 c 0,10,11
 922 88 922 88 1000 156 c 1,12,-1
 1094 868 l 1,13,-1
 610 868 l 2,14,15
 434 868 434 868 276 736 c 0,16,17
 110 598 110 598 110 426 c 0,18,19
 110 376 110 376 138 294 c 0,20,21
 170 202 170 202 204 180 c 1,22,-1
 196 268 l 1,23,24
 196 400 196 400 258 482 c 0,25,26
 328 574 328 574 450 574 c 0,27,28
 554 574 554 574 618 482 c 0,29,30
 676 402 676 402 676 292 c 0,31,32
 676 158 676 158 595 73 c 128,-1,33
 514 -12 514 -12 382 -12 c 0,34,35
 220 -12 220 -12 120 130 c 0,36,37
 32 258 32 258 32 426 c 0,38,39
 32 616 32 616 198 774 c 0,40,41
 376 942 376 942 610 942 c 2,42,-1
 1590 942 l 1,0,-1
438 258 m 0,43,44
 438 426 438 426 360 426 c 0,45,46
 326 426 326 426 296 382 c 1,47,48
 270 330 270 330 270 282 c 256,49,50
 270 234 270 234 286 186 c 0,51,52
 308 124 308 124 348 122 c 0,53,54
 394 120 394 120 418 170 c 0,55,56
 438 208 438 208 438 258 c 0,43,44
EndSplineSet
EndChar

StartChar: tm_ai
Encoding: 2960 2960 58
Width: 1898
GlyphClass: 2
Flags: W
LayerCount: 2
Fore
SplineSet
1790 460 m 2,0,1
 1790 78 1790 78 1262 78 c 2,2,-1
 458 78 l 2,3,4
 334 78 334 78 243 -24 c 128,-1,5
 152 -126 152 -126 152 -250 c 0,6,7
 152 -356 152 -356 220 -444 c 0,8,9
 296 -542 296 -542 414 -542 c 0,10,11
 528 -542 528 -542 606 -438 c 0,12,13
 672 -352 672 -352 684 -238 c 2,14,-1
 708 -24 l 1,15,-1
 934 -24 l 1,16,-1
 910 -316 l 2,17,18
 904 -384 904 -384 986 -454 c 0,19,20
 1078 -532 1078 -532 1192 -532 c 256,21,22
 1306 -532 1306 -532 1374 -436 c 0,23,24
 1436 -352 1436 -352 1436 -232 c 0,25,26
 1436 -106 1436 -106 1372 -24 c 1,27,-1
 1610 -24 l 1,28,29
 1638 -50 1638 -50 1659 -116 c 128,-1,30
 1680 -182 1680 -182 1680 -226 c 0,31,32
 1680 -424 1680 -424 1524 -534 c 0,33,34
 1386 -632 1386 -632 1180 -632 c 0,35,36
 994 -632 994 -632 832 -422 c 1,37,38
 766 -530 766 -530 640 -588 c 0,39,40
 526 -642 526 -642 390 -642 c 0,41,42
 198 -642 198 -642 68 -544 c 0,43,44
 -74 -436 -74 -436 -74 -250 c 0,45,46
 -74 -102 -74 -102 0 4 c 0,47,48
 90 132 90 132 254 132 c 2,49,-1
 1214 132 l 2,50,51
 1340 132 1340 132 1447 241 c 128,-1,52
 1554 350 1554 350 1554 460 c 2,53,-1
 1554 486 l 2,54,55
 1554 610 1554 610 1486 690 c 0,56,57
 1412 778 1412 778 1292 778 c 0,58,59
 1180 778 1180 778 1090 704 c 128,-1,60
 1000 630 1000 630 988 520 c 2,61,-1
 954 204 l 1,62,-1
 730 204 l 1,63,-1
 764 542 l 1,64,65
 764 644 764 644 684 716 c 0,66,67
 590 800 590 800 434 800 c 0,68,69
 224 800 224 800 176 664 c 1,70,71
 260 678 260 678 304 678 c 0,72,73
 570 678 570 678 570 460 c 0,74,75
 570 348 570 348 470 280 c 0,76,77
 384 222 384 222 266 222 c 0,78,79
 154 222 154 222 88 298 c 0,80,81
 28 368 28 368 28 484 c 0,82,83
 28 688 28 688 166 810 c 0,84,85
 298 926 298 926 504 926 c 0,86,87
 650 926 650 926 758 868 c 0,88,89
 884 800 884 800 946 664 c 1,90,91
 1096 926 1096 926 1394 926 c 0,92,93
 1574 926 1574 926 1686 794 c 0,94,95
 1790 668 1790 668 1790 484 c 2,96,-1
 1790 460 l 2,0,1
332 460 m 0,97,98
 332 508 332 508 300 540 c 128,-1,99
 268 572 268 572 220 572 c 256,100,101
 172 572 172 572 139 540 c 128,-1,102
 106 508 106 508 106 460 c 0,103,104
 106 316 106 316 230 316 c 0,105,106
 292 316 292 316 316 358 c 0,107,108
 332 386 332 386 332 460 c 0,97,98
EndSplineSet
EndChar

StartChar: tm_o
Encoding: 2962 2962 59
Width: 1774
GlyphClass: 2
Flags: W
LayerCount: 2
Fore
SplineSet
1656 356 m 2,0,1
 1656 190 1656 190 1564 95 c 128,-1,2
 1472 0 1472 0 1308 0 c 0,3,4
 1208 0 1208 0 1137 80 c 128,-1,5
 1066 160 1066 160 1066 262 c 1,6,-1
 1070 304 l 1,7,8
 1020 304 1020 304 989 262 c 128,-1,9
 958 220 958 220 958 168 c 0,10,11
 958 48 958 48 1014 -24 c 0,12,13
 1066 -88 1066 -88 1184 -136 c 1,14,-1
 1532 -136 l 1,15,-1
 1512 -196 l 1,16,-1
 1196 -196 l 2,17,18
 1146 -196 1146 -196 1100 -223 c 128,-1,19
 1054 -250 1054 -250 1046 -296 c 0,20,21
 988 -614 988 -614 594 -614 c 0,22,23
 452 -614 452 -614 342 -550 c 0,24,25
 210 -472 210 -472 210 -340 c 0,26,27
 210 -262 210 -262 234 -226 c 1,28,-1
 312 -238 l 1,29,30
 294 -294 294 -294 290 -326 c 1,31,-1
 290 -340 l 1,32,33
 304 -430 304 -430 396 -484 c 0,34,35
 476 -532 476 -532 574 -532 c 0,36,37
 654 -532 654 -532 731 -459 c 128,-1,38
 808 -386 808 -386 818 -306 c 0,39,40
 828 -232 828 -232 896 -194 c 0,41,42
 956 -160 956 -160 1036 -160 c 1,43,44
 868 -24 868 -24 868 168 c 0,45,46
 868 308 868 308 980 388 c 0,47,48
 1082 460 1082 460 1226 460 c 1,49,50
 1168 378 1168 378 1168 270 c 0,51,52
 1168 122 1168 122 1296 122 c 0,53,54
 1422 122 1422 122 1422 382 c 0,55,56
 1422 576 1422 576 1270 716 c 0,57,58
 1106 868 1106 868 844 868 c 0,59,60
 616 868 616 868 412 760 c 0,61,62
 180 638 180 638 122 438 c 1,63,-1
 116 400 l 1,64,65
 116 342 116 342 147 276 c 128,-1,66
 178 210 178 210 210 192 c 1,67,-1
 202 274 l 1,68,69
 202 402 202 402 266 488 c 0,70,71
 336 586 336 586 460 586 c 0,72,73
 566 586 566 586 628 494 c 0,74,75
 684 414 684 414 684 304 c 0,76,77
 684 170 684 170 604 85 c 128,-1,78
 524 0 524 0 390 0 c 0,79,80
 244 0 244 0 142 118 c 0,81,82
 32 246 32 246 40 400 c 2,83,-1
 42 438 l 2,84,85
 52 636 52 636 296 790 c 0,86,87
 530 938 530 938 844 938 c 0,88,89
 1196 938 1196 938 1422 782 c 0,90,91
 1656 620 1656 620 1656 382 c 2,92,-1
 1656 356 l 2,0,1
450 270 m 0,93,94
 450 438 450 438 368 438 c 0,95,96
 314 438 314 438 290 364 c 0,97,98
 278 328 278 328 278 292 c 0,99,100
 278 232 278 232 304 182 c 128,-1,101
 330 132 330 132 360 132 c 0,102,103
 404 132 404 132 430 182 c 0,104,105
 450 222 450 222 450 270 c 0,93,94
EndSplineSet
EndChar

StartChar: tm_oo
Encoding: 2963 2963 60
Width: 1774
GlyphClass: 2
Flags: W
LayerCount: 2
Fore
SplineSet
1656 356 m 2,0,1
 1656 190 1656 190 1564 95 c 128,-1,2
 1472 0 1472 0 1308 0 c 0,3,4
 1208 0 1208 0 1137 80 c 128,-1,5
 1066 160 1066 160 1066 262 c 1,6,-1
 1070 304 l 1,7,8
 1020 304 1020 304 989 262 c 128,-1,9
 958 220 958 220 958 168 c 0,10,11
 958 48 958 48 1014 -24 c 0,12,13
 1066 -88 1066 -88 1184 -136 c 1,14,-1
 1532 -136 l 1,15,-1
 1512 -196 l 1,16,-1
 1196 -196 l 2,17,18
 1146 -196 1146 -196 1100 -223 c 128,-1,19
 1054 -250 1054 -250 1046 -296 c 0,20,21
 988 -614 988 -614 594 -614 c 0,22,23
 442 -614 442 -614 334 -538 c 0,24,25
 210 -452 210 -452 210 -308 c 0,26,27
 210 -230 210 -230 261 -180 c 128,-1,28
 312 -130 312 -130 390 -130 c 0,29,30
 470 -130 470 -130 522 -179 c 128,-1,31
 574 -228 574 -228 574 -308 c 0,32,33
 574 -412 574 -412 438 -488 c 1,34,35
 504 -532 504 -532 574 -532 c 0,36,37
 654 -532 654 -532 731 -459 c 128,-1,38
 808 -386 808 -386 818 -306 c 0,39,40
 828 -232 828 -232 896 -194 c 0,41,42
 956 -160 956 -160 1036 -160 c 1,43,44
 868 -24 868 -24 868 168 c 0,45,46
 868 308 868 308 980 388 c 0,47,48
 1082 460 1082 460 1226 460 c 1,49,50
 1168 378 1168 378 1168 270 c 0,51,52
 1168 122 1168 122 1296 122 c 0,53,54
 1422 122 1422 122 1422 382 c 0,55,56
 1422 576 1422 576 1270 716 c 0,57,58
 1106 868 1106 868 844 868 c 0,59,60
 616 868 616 868 412 760 c 0,61,62
 180 638 180 638 122 438 c 1,63,-1
 116 400 l 1,64,65
 116 342 116 342 147 276 c 128,-1,66
 178 210 178 210 210 192 c 1,67,-1
 202 274 l 1,68,69
 202 402 202 402 266 488 c 0,70,71
 336 586 336 586 460 586 c 0,72,73
 566 586 566 586 628 494 c 0,74,75
 684 414 684 414 684 304 c 0,76,77
 684 170 684 170 604 85 c 128,-1,78
 524 0 524 0 390 0 c 0,79,80
 244 0 244 0 142 118 c 0,81,82
 32 246 32 246 40 400 c 2,83,-1
 42 438 l 2,84,85
 52 636 52 636 296 790 c 0,86,87
 530 938 530 938 844 938 c 0,88,89
 1196 938 1196 938 1422 782 c 0,90,91
 1656 620 1656 620 1656 382 c 2,92,-1
 1656 356 l 2,0,1
450 270 m 0,93,94
 450 438 450 438 368 438 c 0,95,96
 314 438 314 438 290 364 c 0,97,98
 278 328 278 328 278 292 c 0,99,100
 278 232 278 232 304 182 c 128,-1,101
 330 132 330 132 360 132 c 0,102,103
 404 132 404 132 430 182 c 0,104,105
 450 222 450 222 450 270 c 0,93,94
438 -316 m 0,106,107
 438 -214 438 -214 360 -214 c 0,108,109
 284 -214 284 -214 284 -316 c 0,110,111
 284 -354 284 -354 304 -392 c 128,-1,112
 324 -430 324 -430 360 -430 c 0,113,114
 398 -430 398 -430 420 -390 c 0,115,116
 438 -358 438 -358 438 -316 c 0,106,107
EndSplineSet
EndChar

StartChar: tm_au
Encoding: 2964 2964 61
Width: 3758
GlyphClass: 2
Flags: W
LayerCount: 2
Fore
SplineSet
3698 926 m 1,0,-1
 3674 868 l 1,1,-1
 3436 868 l 1,2,-1
 3322 0 l 1,3,-1
 3088 0 l 1,4,-1
 3200 868 l 1,5,-1
 2962 868 l 1,6,-1
 2850 0 l 1,7,-1
 2612 0 l 1,8,-1
 2690 574 l 1,9,10
 2622 856 2622 856 2342 856 c 2,11,-1
 2324 856 l 2,12,13
 2156 856 2156 856 2008 726 c 0,14,15
 1854 592 1854 592 1854 426 c 0,16,17
 1854 374 1854 374 1882 294 c 0,18,19
 1912 206 1912 206 1948 180 c 1,20,-1
 1940 268 l 1,21,22
 1940 400 1940 400 2002 482 c 0,23,24
 2072 574 2072 574 2194 574 c 0,25,26
 2298 574 2298 574 2362 482 c 0,27,28
 2420 402 2420 402 2420 292 c 0,29,30
 2420 158 2420 158 2339 73 c 128,-1,31
 2258 -12 2258 -12 2126 -12 c 0,32,33
 1964 -12 1964 -12 1864 130 c 0,34,35
 1776 258 1776 258 1776 426 c 0,36,37
 1776 654 1776 654 1964 802 c 0,38,39
 2132 934 2132 934 2372 934 c 0,40,41
 2696 934 2696 934 2854 708 c 1,42,-1
 2884 926 l 1,43,-1
 3698 926 l 1,0,-1
1656 356 m 2,44,45
 1656 190 1656 190 1564 95 c 128,-1,46
 1472 0 1472 0 1308 0 c 0,47,48
 1208 0 1208 0 1137 80 c 128,-1,49
 1066 160 1066 160 1066 262 c 1,50,-1
 1070 304 l 1,51,52
 1020 304 1020 304 989 262 c 128,-1,53
 958 220 958 220 958 168 c 0,54,55
 958 48 958 48 1014 -24 c 0,56,57
 1066 -88 1066 -88 1184 -136 c 1,58,-1
 1532 -136 l 1,59,-1
 1512 -196 l 1,60,-1
 1196 -196 l 2,61,62
 1146 -196 1146 -196 1100 -223 c 128,-1,63
 1054 -250 1054 -250 1046 -296 c 0,64,65
 988 -614 988 -614 594 -614 c 0,66,67
 452 -614 452 -614 342 -550 c 0,68,69
 210 -472 210 -472 210 -340 c 0,70,71
 210 -262 210 -262 234 -226 c 1,72,-1
 312 -238 l 1,73,74
 294 -294 294 -294 290 -326 c 1,75,-1
 290 -340 l 1,76,77
 304 -430 304 -430 396 -484 c 0,78,79
 476 -532 476 -532 574 -532 c 0,80,81
 654 -532 654 -532 731 -459 c 128,-1,82
 808 -386 808 -386 818 -306 c 0,83,84
 828 -232 828 -232 896 -194 c 0,85,86
 956 -160 956 -160 1036 -160 c 1,87,88
 868 -24 868 -24 868 168 c 0,89,90
 868 308 868 308 980 388 c 0,91,92
 1082 460 1082 460 1226 460 c 1,93,94
 1168 378 1168 378 1168 270 c 0,95,96
 1168 122 1168 122 1296 122 c 0,97,98
 1422 122 1422 122 1422 382 c 0,99,100
 1422 576 1422 576 1270 716 c 0,101,102
 1106 868 1106 868 844 868 c 0,103,104
 616 868 616 868 412 760 c 0,105,106
 180 638 180 638 122 438 c 1,107,-1
 116 400 l 1,108,109
 116 342 116 342 147 276 c 128,-1,110
 178 210 178 210 210 192 c 1,111,-1
 202 274 l 1,112,113
 202 402 202 402 266 488 c 0,114,115
 336 586 336 586 460 586 c 0,116,117
 566 586 566 586 628 494 c 0,118,119
 684 414 684 414 684 304 c 0,120,121
 684 170 684 170 604 85 c 128,-1,122
 524 0 524 0 390 0 c 0,123,124
 244 0 244 0 142 118 c 0,125,126
 32 246 32 246 40 400 c 2,127,-1
 42 438 l 2,128,129
 52 636 52 636 296 790 c 0,130,131
 530 938 530 938 844 938 c 0,132,133
 1196 938 1196 938 1422 782 c 0,134,135
 1656 620 1656 620 1656 382 c 2,136,-1
 1656 356 l 2,44,45
2182 258 m 0,137,138
 2182 426 2182 426 2104 426 c 0,139,140
 2070 426 2070 426 2040 382 c 1,141,142
 2014 330 2014 330 2014 282 c 256,143,144
 2014 234 2014 234 2030 186 c 0,145,146
 2052 124 2052 124 2092 122 c 0,147,148
 2138 120 2138 120 2162 170 c 0,149,150
 2182 208 2182 208 2182 258 c 0,137,138
450 270 m 0,151,152
 450 438 450 438 368 438 c 0,153,154
 314 438 314 438 290 364 c 0,155,156
 278 328 278 328 278 292 c 0,157,158
 278 232 278 232 304 182 c 128,-1,159
 330 132 330 132 360 132 c 0,160,161
 404 132 404 132 430 182 c 0,162,163
 450 222 450 222 450 270 c 0,151,152
EndSplineSet
EndChar

StartChar: tm_ka
Encoding: 2965 2965 62
Width: 1442
GlyphClass: 2
Flags: W
LayerCount: 2
Fore
SplineSet
1332 270 m 0,0,1
 1332 160 1332 160 1249 74 c 128,-1,2
 1166 -12 1166 -12 1058 -12 c 0,3,4
 970 -12 970 -12 926 32 c 1,5,-1
 926 144 l 1,6,7
 1000 144 1000 144 1045 193 c 128,-1,8
 1090 242 1090 242 1090 316 c 256,9,10
 1090 390 1090 390 1045 436 c 128,-1,11
 1000 482 1000 482 926 482 c 2,12,-1
 886 482 l 1,13,-1
 868 348 l 2,14,15
 848 192 848 192 738 90 c 128,-1,16
 628 -12 628 -12 472 -12 c 0,17,18
 286 -12 286 -12 170 62 c 0,19,20
 32 150 32 150 32 324 c 0,21,22
 32 442 32 442 102 506 c 128,-1,23
 172 570 172 570 292 570 c 2,24,-1
 336 570 l 1,25,-1
 382 926 l 1,26,-1
 1196 926 l 1,27,-1
 1172 868 l 1,28,-1
 938 868 l 1,29,-1
 894 570 l 1,30,-1
 968 570 l 2,31,32
 1118 570 1118 570 1220 498 c 0,33,34
 1332 416 1332 416 1332 270 c 0,0,1
700 868 m 1,35,-1
 460 868 l 1,36,-1
 422 570 l 1,37,-1
 656 570 l 1,38,-1
 700 868 l 1,35,-1
654 476 m 1,39,-1
 264 476 l 2,40,41
 110 476 110 476 110 324 c 0,42,43
 110 210 110 210 192 146 c 0,44,45
 264 90 264 90 382 90 c 0,46,47
 482 90 482 90 552 172 c 0,48,49
 614 244 614 244 632 348 c 2,50,-1
 654 476 l 1,39,-1
EndSplineSet
EndChar

StartChar: tm_nga
Encoding: 2969 2969 63
Width: 1754
GlyphClass: 2
Flags: W
LayerCount: 2
Fore
SplineSet
1656 926 m 1,0,-1
 1524 0 l 1,1,-1
 504 0 l 1,2,-1
 528 54 l 1,3,-1
 594 54 l 2,4,5
 690 54 690 54 779 137 c 128,-1,6
 868 220 868 220 868 316 c 0,7,8
 868 374 868 374 823 422 c 128,-1,9
 778 470 778 470 720 470 c 0,10,11
 654 470 654 470 622 402 c 1,12,-1
 594 210 l 1,13,-1
 360 210 l 1,14,-1
 450 868 l 1,15,-1
 210 868 l 1,16,-1
 98 0 l 1,17,-1
 20 0 l 1,18,-1
 132 926 l 1,19,-1
 946 926 l 1,20,-1
 922 868 l 1,21,-1
 684 868 l 1,22,-1
 632 484 l 1,23,24
 698 586 698 586 816 586 c 0,25,26
 926 586 926 586 1016 510 c 128,-1,27
 1106 434 1106 434 1106 324 c 0,28,29
 1106 184 1106 184 958 54 c 1,30,-1
 1296 54 l 1,31,-1
 1410 926 l 1,32,-1
 1656 926 l 1,0,-1
EndSplineSet
EndChar

StartChar: tm_ca
Encoding: 2970 2970 64
Width: 1262
GlyphClass: 2
Flags: W
LayerCount: 2
Fore
SplineSet
1196 926 m 1,0,-1
 1172 868 l 1,1,-1
 934 868 l 1,2,-1
 896 584 l 1,3,-1
 1174 584 l 1,4,-1
 1154 488 l 1,5,-1
 892 488 l 1,6,-1
 868 348 l 2,7,8
 842 192 842 192 735 90 c 128,-1,9
 628 -12 628 -12 472 -12 c 0,10,11
 284 -12 284 -12 170 60 c 0,12,13
 32 146 32 146 32 324 c 0,14,15
 32 444 32 444 101 514 c 128,-1,16
 170 584 170 584 292 584 c 2,17,-1
 334 584 l 1,18,-1
 378 926 l 1,19,-1
 1196 926 l 1,0,-1
696 868 m 1,20,-1
 460 868 l 1,21,-1
 420 584 l 1,22,-1
 658 584 l 1,23,-1
 696 868 l 1,20,-1
654 488 m 1,24,-1
 272 488 l 2,25,26
 110 488 110 488 110 324 c 0,27,28
 110 212 110 212 190 148 c 0,29,30
 262 90 262 90 378 90 c 0,31,32
 474 90 474 90 546 172 c 0,33,34
 610 246 610 246 628 348 c 2,35,-1
 654 488 l 1,24,-1
EndSplineSet
EndChar

StartChar: tm_ja
Encoding: 2972 2972 65
Width: 1918
GlyphClass: 2
Flags: W
LayerCount: 2
Fore
SplineSet
1812 460 m 2,0,1
 1812 78 1812 78 1282 78 c 2,2,-1
 476 78 l 2,3,4
 356 78 356 78 264 -19 c 128,-1,5
 172 -116 172 -116 172 -238 c 0,6,7
 172 -332 172 -332 238 -393 c 128,-1,8
 304 -454 304 -454 398 -454 c 2,9,-1
 410 -454 l 2,10,11
 578 -454 578 -454 736 -326 c 2,12,-1
 1000 -112 l 1,13,14
 1176 0 1176 0 1418 0 c 0,15,16
 1540 0 1540 0 1625 -71 c 128,-1,17
 1710 -142 1710 -142 1710 -262 c 0,18,19
 1710 -390 1710 -390 1608 -478 c 128,-1,20
 1506 -566 1506 -566 1382 -566 c 2,21,-1
 1364 -566 l 2,22,23
 1262 -566 1262 -566 1175 -485 c 128,-1,24
 1088 -404 1088 -404 1088 -304 c 0,25,26
 1088 -228 1088 -228 1144 -172 c 1,27,-1
 1192 -196 l 1,28,29
 1160 -234 1160 -234 1160 -292 c 0,30,31
 1160 -352 1160 -352 1194 -400 c 0,32,33
 1234 -454 1234 -454 1292 -454 c 0,34,35
 1368 -454 1368 -454 1416 -386 c 0,36,37
 1460 -326 1460 -326 1460 -246 c 0,38,39
 1460 -84 1460 -84 1316 -84 c 0,40,41
 1156 -84 1156 -84 996 -212 c 2,42,-1
 710 -442 l 2,43,44
 556 -566 556 -566 308 -566 c 0,45,46
 174 -566 174 -566 62 -474 c 128,-1,47
 -50 -382 -50 -382 -50 -250 c 0,48,49
 -50 -108 -50 -108 24 0 c 0,50,51
 114 132 114 132 274 132 c 2,52,-1
 1234 132 l 2,53,54
 1366 132 1366 132 1470 242 c 128,-1,55
 1574 352 1574 352 1574 460 c 2,56,-1
 1574 486 l 2,57,58
 1574 608 1574 608 1504 693 c 128,-1,59
 1434 778 1434 778 1316 778 c 0,60,61
 1204 778 1204 778 1112 704 c 128,-1,62
 1020 630 1020 630 1008 520 c 2,63,-1
 976 204 l 1,64,-1
 750 204 l 1,65,-1
 786 536 l 1,66,67
 786 634 786 634 706 712 c 0,68,69
 616 800 616 800 458 800 c 0,70,71
 244 800 244 800 196 664 c 1,72,73
 316 688 316 688 356 688 c 0,74,75
 446 688 446 688 518 619 c 128,-1,76
 590 550 590 550 590 460 c 0,77,78
 590 348 590 348 490 280 c 0,79,80
 404 222 404 222 286 222 c 0,81,82
 172 222 172 222 110 298 c 0,83,84
 50 368 50 368 50 484 c 0,85,86
 50 688 50 688 186 810 c 0,87,88
 316 926 316 926 524 926 c 0,89,90
 674 926 674 926 786 864 c 0,91,92
 910 794 910 794 964 664 c 1,93,94
 1114 926 1114 926 1418 926 c 0,95,96
 1600 926 1600 926 1710 792 c 0,97,98
 1812 668 1812 668 1812 480 c 2,99,-1
 1812 460 l 2,0,1
356 436 m 0,100,101
 356 492 356 492 326 533 c 128,-1,102
 296 574 296 574 242 574 c 0,103,104
 130 574 130 574 130 454 c 0,105,106
 130 398 130 398 164 357 c 128,-1,107
 198 316 198 316 254 316 c 0,108,109
 302 316 302 316 329 353 c 128,-1,110
 356 390 356 390 356 436 c 0,100,101
EndSplineSet
EndChar

StartChar: tm_nya
Encoding: 2974 2974 66
Width: 2230
GlyphClass: 2
Flags: W
LayerCount: 2
Fore
SplineSet
2122 270 m 0,0,1
 2122 -82 2122 -82 1754 -286 c 0,2,3
 1450 -454 1450 -454 1070 -454 c 0,4,5
 674 -454 674 -454 380 -262 c 0,6,7
 42 -40 42 -40 42 336 c 0,8,9
 42 684 42 684 188 844 c 0,10,11
 224 884 224 884 258 884 c 0,12,13
 288 884 288 884 309 860 c 128,-1,14
 330 836 330 836 330 810 c 0,15,16
 330 788 330 788 312 766 c 0,17,18
 228 686 228 686 176 576 c 0,19,20
 122 460 122 460 122 348 c 2,21,-1
 122 336 l 2,22,23
 122 0 122 0 434 -202 c 0,24,25
 704 -376 704 -376 1058 -376 c 0,26,27
 1370 -376 1370 -376 1606 -224 c 0,28,29
 1882 -46 1882 -46 1882 258 c 0,30,31
 1882 528 1882 528 1770 528 c 0,32,33
 1682 528 1682 528 1640 472 c 1,34,-1
 1578 0 l 1,35,-1
 1340 0 l 1,36,-1
 1454 868 l 1,37,-1
 968 868 l 2,38,39
 794 868 794 868 636 736 c 0,40,41
 472 596 472 596 472 426 c 0,42,43
 472 378 472 378 501 292 c 128,-1,44
 530 206 530 206 562 180 c 1,45,-1
 554 266 l 1,46,47
 554 394 554 394 614 480 c 0,48,49
 684 574 684 574 808 574 c 0,50,51
 912 574 912 574 974 491 c 128,-1,52
 1036 408 1036 408 1036 292 c 0,53,54
 1036 158 1036 158 955 73 c 128,-1,55
 874 -12 874 -12 742 -12 c 0,56,57
 582 -12 582 -12 482 132 c 0,58,59
 390 260 390 260 390 426 c 0,60,61
 390 636 390 636 578 786 c 0,62,63
 752 926 752 926 968 926 c 2,64,-1
 1950 926 l 1,65,-1
 1930 868 l 1,66,-1
 1692 868 l 1,67,-1
 1648 550 l 1,68,69
 1706 632 1706 632 1840 632 c 0,70,71
 1972 632 1972 632 2052 512 c 0,72,73
 2122 408 2122 408 2122 270 c 0,0,1
796 258 m 0,74,75
 796 426 796 426 718 426 c 0,76,77
 678 426 678 426 650 372 c 0,78,79
 628 326 628 326 628 282 c 0,80,81
 628 236 628 236 646 186 c 0,82,83
 670 122 670 122 708 122 c 0,84,85
 744 122 744 122 770 158 c 128,-1,86
 796 194 796 194 796 258 c 0,74,75
EndSplineSet
EndChar

StartChar: tm_tta
Encoding: 2975 2975 67
Width: 1774
GlyphClass: 2
Flags: W
LayerCount: 2
Fore
SplineSet
1688 54 m 1,0,-1
 1668 0 l 1,1,-1
 40 0 l 1,2,-1
 164 926 l 1,3,-1
 402 926 l 1,4,-1
 290 54 l 1,5,-1
 1688 54 l 1,0,-1
EndSplineSet
EndChar

StartChar: tm_nna
Encoding: 2979 2979 68
Width: 2868
GlyphClass: 2
Flags: W
LayerCount: 2
Fore
SplineSet
2820 926 m 1,0,-1
 2796 868 l 1,1,-1
 2558 868 l 1,2,-1
 2446 0 l 1,3,-1
 2210 0 l 1,4,-1
 2320 868 l 1,5,-1
 2118 868 l 2,6,7
 1970 868 1970 868 1860 758 c 1,8,9
 2040 586 2040 586 2040 372 c 0,10,11
 2040 236 2040 236 1962 120 c 0,12,13
 1876 -12 1876 -12 1746 -12 c 0,14,15
 1636 -12 1636 -12 1571 88 c 128,-1,16
 1506 188 1506 188 1506 354 c 0,17,18
 1506 548 1506 548 1660 714 c 1,19,20
 1614 770 1614 770 1538 813 c 128,-1,21
 1462 856 1462 856 1394 856 c 0,22,23
 1354 856 1354 856 1274 822 c 128,-1,24
 1194 788 1194 788 1160 758 c 1,25,26
 1340 580 1340 580 1340 372 c 0,27,28
 1340 236 1340 236 1262 120 c 0,29,30
 1176 -12 1176 -12 1046 -12 c 0,31,32
 936 -12 936 -12 871 88 c 128,-1,33
 806 188 806 188 806 354 c 0,34,35
 806 554 806 554 960 714 c 1,36,37
 848 850 848 850 644 850 c 0,38,39
 448 850 448 850 284 732 c 0,40,41
 106 604 106 604 106 426 c 0,42,43
 106 372 106 372 132 292 c 0,44,45
 164 204 164 204 200 180 c 1,46,-1
 192 268 l 1,47,48
 192 400 192 400 254 482 c 0,49,50
 324 574 324 574 446 574 c 0,51,52
 550 574 550 574 614 482 c 0,53,54
 672 402 672 402 672 292 c 0,55,56
 672 158 672 158 591 73 c 128,-1,57
 510 -12 510 -12 378 -12 c 0,58,59
 216 -12 216 -12 116 130 c 0,60,61
 28 258 28 258 28 426 c 0,62,63
 28 652 28 652 238 802 c 0,64,65
 426 938 426 938 660 938 c 0,66,67
 902 938 902 938 1082 812 c 1,68,69
 1246 928 1246 928 1432 928 c 0,70,71
 1620 928 1620 928 1786 812 c 1,72,73
 1948 926 1948 926 2128 926 c 2,74,-1
 2820 926 l 1,0,-1
1800 394 m 0,75,76
 1800 540 1800 540 1718 648 c 1,77,78
 1586 518 1586 518 1586 382 c 0,79,80
 1586 156 1586 156 1680 156 c 0,81,82
 1748 156 1748 156 1778 248 c 0,83,84
 1800 310 1800 310 1800 394 c 0,75,76
1102 394 m 0,85,86
 1102 526 1102 526 1016 648 c 1,87,88
 886 518 886 518 886 382 c 0,89,90
 886 156 886 156 976 156 c 0,91,92
 1044 156 1044 156 1078 246 c 0,93,94
 1102 312 1102 312 1102 394 c 0,85,86
434 258 m 0,95,96
 434 426 434 426 356 426 c 0,97,98
 322 426 322 426 292 382 c 1,99,100
 266 330 266 330 266 282 c 256,101,102
 266 234 266 234 282 186 c 0,103,104
 304 124 304 124 344 122 c 0,105,106
 390 120 390 120 414 170 c 0,107,108
 434 208 434 208 434 258 c 0,95,96
EndSplineSet
EndChar

StartChar: tm_ta
Encoding: 2980 2980 69
Width: 1422
GlyphClass: 2
Flags: W
LayerCount: 2
Fore
SplineSet
1308 246 m 2,0,1
 1308 76 1308 76 1200 -30 c 128,-1,2
 1092 -136 1092 -136 922 -136 c 2,3,-1
 300 -136 l 2,4,5
 252 -136 252 -136 206 -168 c 1,6,7
 162 -206 162 -206 164 -250 c 0,8,9
 164 -274 164 -274 191 -309 c 128,-1,10
 218 -344 218 -344 222 -364 c 1,11,12
 222 -430 222 -430 181 -471 c 128,-1,13
 140 -512 140 -512 74 -512 c 0,14,15
 -70 -512 -70 -512 -70 -308 c 0,16,17
 -70 -204 -70 -204 8 -140 c 0,18,19
 80 -82 80 -82 188 -82 c 2,20,-1
 766 -82 l 2,21,22
 894 -82 894 -82 984 20 c 0,23,24
 1070 116 1070 116 1070 246 c 0,25,26
 1070 338 1070 338 1042 406 c 0,27,28
 1002 496 1002 496 922 496 c 2,29,-1
 886 496 l 1,30,-1
 868 348 l 2,31,32
 846 172 846 172 722 76 c 0,33,34
 608 -12 608 -12 472 -12 c 0,35,36
 284 -12 284 -12 170 60 c 0,37,38
 32 146 32 146 32 324 c 0,39,40
 32 446 32 446 102 518 c 128,-1,41
 172 590 172 590 290 590 c 2,42,-1
 332 590 l 1,43,-1
 378 926 l 1,44,-1
 1196 926 l 1,45,-1
 1172 868 l 1,46,-1
 934 868 l 1,47,-1
 894 590 l 1,48,-1
 968 590 l 2,49,50
 1102 590 1102 590 1205 491 c 128,-1,51
 1308 392 1308 392 1308 260 c 2,52,-1
 1308 246 l 2,0,1
696 868 m 1,53,-1
 460 868 l 1,54,-1
 418 590 l 1,55,-1
 656 590 l 1,56,-1
 696 868 l 1,53,-1
648 496 m 1,57,-1
 266 496 l 2,58,59
 110 496 110 496 110 324 c 0,60,61
 110 212 110 212 190 148 c 0,62,63
 262 90 262 90 378 90 c 0,64,65
 476 90 476 90 548 172 c 0,66,67
 614 248 614 248 628 348 c 2,68,-1
 648 496 l 1,57,-1
EndSplineSet
EndChar

StartChar: tm_na
Encoding: 2984 2984 70
Width: 1214
GlyphClass: 2
Flags: W
LayerCount: 2
Fore
SplineSet
1114 324 m 0,0,1
 1114 94 1114 94 972 -24 c 0,2,3
 840 -136 840 -136 606 -136 c 2,4,-1
 246 -136 l 2,5,6
 192 -136 192 -136 151 -167 c 128,-1,7
 110 -198 110 -198 110 -250 c 1,8,9
 114 -278 114 -278 137 -310 c 128,-1,10
 160 -342 160 -342 164 -364 c 1,11,12
 164 -512 164 -512 20 -512 c 0,13,14
 -128 -512 -128 -512 -128 -308 c 0,15,16
 -128 -202 -128 -202 -48 -140 c 0,17,18
 24 -82 24 -82 132 -82 c 2,19,-1
 516 -82 l 2,20,21
 662 -82 662 -82 772 46 c 0,22,23
 878 168 878 168 878 316 c 0,24,25
 878 388 878 388 842 450 c 0,26,27
 802 522 802 522 734 522 c 0,28,29
 682 522 682 522 632 472 c 1,30,-1
 574 0 l 1,31,-1
 336 0 l 1,32,-1
 450 868 l 1,33,-1
 210 868 l 1,34,-1
 98 0 l 1,35,-1
 20 0 l 1,36,-1
 132 926 l 1,37,-1
 946 926 l 1,38,-1
 922 868 l 1,39,-1
 684 868 l 1,40,-1
 644 550 l 1,41,42
 726 632 726 632 822 632 c 0,43,44
 942 632 942 632 1028 538 c 128,-1,45
 1114 444 1114 444 1114 324 c 0,0,1
EndSplineSet
EndChar

StartChar: tm_nnna
Encoding: 2985 2985 71
Width: 2188
GlyphClass: 2
Flags: W
LayerCount: 2
Fore
SplineSet
2132 926 m 1,0,-1
 2110 868 l 1,1,-1
 1872 868 l 1,2,-1
 1758 0 l 1,3,-1
 1524 0 l 1,4,-1
 1632 868 l 1,5,-1
 1430 868 l 2,6,7
 1282 868 1282 868 1172 758 c 1,8,9
 1352 586 1352 586 1352 372 c 0,10,11
 1352 236 1352 236 1274 120 c 0,12,13
 1188 -12 1188 -12 1058 -12 c 0,14,15
 948 -12 948 -12 883 88 c 128,-1,16
 818 188 818 188 818 354 c 0,17,18
 818 548 818 548 972 714 c 1,19,20
 850 854 850 854 652 854 c 0,21,22
 462 854 462 854 302 734 c 0,23,24
 168 634 168 634 134 516 c 0,25,26
 122 474 122 474 122 426 c 2,27,-1
 122 418 l 2,28,29
 122 366 122 366 148 290 c 0,30,31
 176 206 176 206 210 180 c 1,32,-1
 202 264 l 1,33,34
 202 394 202 394 264 478 c 0,35,36
 334 574 334 574 460 574 c 0,37,38
 566 574 566 574 628 482 c 0,39,40
 684 402 684 402 684 292 c 0,41,42
 684 158 684 158 603 73 c 128,-1,43
 522 -12 522 -12 390 -12 c 0,44,45
 228 -12 228 -12 130 130 c 0,46,47
 42 258 42 258 42 426 c 0,48,49
 42 654 42 654 252 804 c 0,50,51
 440 938 440 938 676 938 c 0,52,53
 918 938 918 938 1098 812 c 1,54,55
 1264 926 1264 926 1442 926 c 2,56,-1
 2132 926 l 1,0,-1
1114 394 m 0,57,58
 1114 534 1114 534 1032 648 c 1,59,60
 898 520 898 520 898 382 c 0,61,62
 898 156 898 156 992 156 c 0,63,64
 1058 156 1058 156 1090 248 c 0,65,66
 1114 314 1114 314 1114 394 c 0,57,58
450 258 m 0,67,68
 450 426 450 426 368 426 c 0,69,70
 334 426 334 426 304 382 c 1,71,72
 278 330 278 330 278 282 c 0,73,74
 278 222 278 222 304 172 c 128,-1,75
 330 122 330 122 360 122 c 0,76,77
 402 122 402 122 428 172 c 0,78,79
 450 212 450 212 450 258 c 0,67,68
EndSplineSet
EndChar

StartChar: tm_pa
Encoding: 2986 2986 72
Width: 1528
GlyphClass: 2
Flags: W
LayerCount: 2
Fore
SplineSet
1442 926 m 1,0,-1
 1316 0 l 1,1,-1
 16 0 l 1,2,-1
 140 926 l 1,3,-1
 378 926 l 1,4,-1
 266 54 l 1,5,-1
 1090 54 l 1,6,-1
 1204 926 l 1,7,-1
 1442 926 l 1,0,-1
EndSplineSet
EndChar

StartChar: tm_ma
Encoding: 2990 2990 73
Width: 1586
GlyphClass: 2
Flags: W
LayerCount: 2
Fore
SplineSet
1496 382 m 0,0,1
 1496 0 1496 0 1204 0 c 2,2,-1
 28 0 l 1,3,-1
 152 926 l 1,4,-1
 386 926 l 1,5,-1
 274 54 l 1,6,-1
 672 54 l 1,7,-1
 750 688 l 2,8,9
 762 788 762 788 846 863 c 128,-1,10
 930 938 930 938 1032 938 c 0,11,12
 1230 938 1230 938 1370 754 c 0,13,14
 1496 588 1496 588 1496 382 c 0,0,1
1418 372 m 0,15,16
 1418 530 1418 530 1340 664 c 0,17,18
 1254 812 1254 812 1132 812 c 0,19,20
 1018 812 1018 812 1000 688 c 2,21,-1
 906 54 l 1,22,-1
 1210 54 l 2,23,24
 1314 54 1314 54 1372 168 c 0,25,26
 1418 258 1418 258 1418 372 c 0,15,16
EndSplineSet
EndChar

StartChar: tm_ya
Encoding: 2991 2991 74
Width: 1774
GlyphClass: 2
Flags: W
LayerCount: 2
Fore
SplineSet
1688 926 m 1,0,-1
 1566 0 l 1,1,-1
 480 0 l 1,2,-1
 504 156 l 1,3,4
 436 68 436 68 363 34 c 128,-1,5
 290 0 290 0 176 0 c 0,6,7
 126 0 126 0 77 51 c 128,-1,8
 28 102 28 102 28 152 c 1,9,-1
 128 926 l 1,10,-1
 368 926 l 1,11,-1
 278 234 l 1,12,13
 278 156 278 156 356 156 c 0,14,15
 408 156 408 156 470 250 c 0,16,17
 528 336 528 336 536 394 c 2,18,-1
 606 926 l 1,19,-1
 844 926 l 1,20,-1
 730 54 l 1,21,-1
 1340 54 l 1,22,-1
 1454 926 l 1,23,-1
 1688 926 l 1,0,-1
EndSplineSet
EndChar

StartChar: tm_ra
Encoding: 2992 2992 75
Width: 1012
GlyphClass: 2
Flags: W
LayerCount: 2
Fore
SplineSet
946 926 m 1,0,-1
 922 868 l 1,1,-1
 684 868 l 1,2,-1
 578 54 l 1,3,4
 296 -30 296 -30 42 -340 c 1,5,-1
 -16 -286 l 1,6,7
 48 -158 48 -158 146 -46 c 0,8,9
 214 30 214 30 356 156 c 1,10,-1
 450 868 l 1,11,-1
 210 868 l 1,12,-1
 98 0 l 1,13,-1
 20 0 l 1,14,-1
 132 926 l 1,15,-1
 946 926 l 1,0,-1
EndSplineSet
EndChar

StartChar: tm_rra
Encoding: 2993 2993 76
Width: 1422
GlyphClass: 2
Flags: W
LayerCount: 2
Fore
SplineSet
1304 372 m 2,0,1
 1304 110 1304 110 1098 -26 c 0,2,3
 932 -136 932 -136 672 -136 c 2,4,-1
 356 -136 l 2,5,6
 300 -136 300 -136 259 -169 c 128,-1,7
 218 -202 218 -202 218 -250 c 1,8,9
 222 -276 222 -276 246 -309 c 128,-1,10
 270 -342 270 -342 274 -364 c 1,11,12
 274 -512 274 -512 128 -512 c 0,13,14
 -20 -512 -20 -512 -20 -308 c 0,15,16
 -20 -204 -20 -204 60 -140 c 0,17,18
 134 -82 134 -82 242 -82 c 2,19,-1
 546 -82 l 2,20,21
 890 -82 890 -82 1024 182 c 0,22,23
 1064 260 1064 260 1066 372 c 2,24,-1
 1068 448 l 2,25,26
 1072 600 1072 600 1022 710 c 0,27,28
 976 812 976 812 886 812 c 0,29,30
 790 812 790 812 708 692 c 0,31,32
 638 588 638 588 626 484 c 2,33,-1
 570 0 l 1,34,-1
 332 0 l 1,35,-1
 414 628 l 1,36,37
 414 690 414 690 392 744 c 0,38,39
 362 812 362 812 308 812 c 0,40,41
 188 812 188 812 160 574 c 2,42,-1
 94 0 l 1,43,-1
 16 0 l 1,44,-1
 94 640 l 2,45,46
 108 750 108 750 174 838 c 0,47,48
 252 938 252 938 356 938 c 0,49,50
 452 938 452 938 530 868 c 0,51,52
 598 808 598 808 636 710 c 1,53,54
 674 804 674 804 760 871 c 128,-1,55
 846 938 846 938 942 938 c 0,56,57
 1132 938 1132 938 1228 760 c 0,58,59
 1304 618 1304 618 1304 412 c 2,60,-1
 1304 372 l 2,0,1
EndSplineSet
EndChar

StartChar: tm_la
Encoding: 2994 2994 77
Width: 1774
GlyphClass: 2
Flags: W
LayerCount: 2
Fore
SplineSet
1656 496 m 0,0,1
 1656 330 1656 330 1532 174 c 0,2,3
 1384 -12 1384 -12 1160 -12 c 0,4,5
 974 -12 974 -12 894 78 c 128,-1,6
 814 168 814 168 814 360 c 0,7,8
 814 394 814 394 822 460 c 0,9,10
 830 542 830 542 832 574 c 2,11,-1
 834 606 l 2,12,13
 840 696 840 696 756 786 c 0,14,15
 676 868 676 868 594 868 c 0,16,17
 422 868 422 868 270 740 c 0,18,19
 110 608 110 608 110 438 c 0,20,21
 110 390 110 390 139 304 c 128,-1,22
 168 218 168 218 200 192 c 1,23,-1
 192 278 l 1,24,25
 192 406 192 406 256 492 c 0,26,27
 326 586 326 586 450 586 c 0,28,29
 554 586 554 586 618 494 c 0,30,31
 676 412 676 412 676 304 c 0,32,33
 676 168 676 168 595 84 c 128,-1,34
 514 0 514 0 378 0 c 0,35,36
 218 0 218 0 120 144 c 0,37,38
 32 270 32 270 32 438 c 0,39,40
 32 654 32 654 214 806 c 0,41,42
 388 950 388 950 606 950 c 0,43,44
 784 950 784 950 918 858 c 0,45,46
 1070 756 1070 756 1070 586 c 1,47,-1
 1056 464 l 2,48,49
 1042 342 1042 342 1042 312 c 0,50,51
 1042 90 1042 90 1226 90 c 0,52,53
 1364 90 1364 90 1471 227 c 128,-1,54
 1578 364 1578 364 1578 508 c 2,55,-1
 1578 528 l 2,56,57
 1578 672 1578 672 1510 744 c 0,58,59
 1450 810 1450 810 1308 844 c 1,60,61
 1230 844 1230 844 1230 922 c 0,62,63
 1230 952 1230 952 1255 978 c 128,-1,64
 1280 1004 1280 1004 1316 1004 c 0,65,66
 1396 1004 1396 1004 1464 964 c 128,-1,67
 1532 924 1532 924 1576 848 c 0,68,69
 1656 710 1656 710 1656 496 c 0,0,1
438 270 m 0,70,71
 438 438 438 438 360 438 c 0,72,73
 316 438 316 438 288 384 c 0,74,75
 266 340 266 340 266 292 c 0,76,77
 266 232 266 232 292 182 c 128,-1,78
 318 132 318 132 348 132 c 0,79,80
 392 132 392 132 418 182 c 0,81,82
 438 222 438 222 438 270 c 0,70,71
EndSplineSet
EndChar

StartChar: tm_lla
Encoding: 2995 2995 78
Width: 2024
GlyphClass: 2
Flags: W
LayerCount: 2
Fore
SplineSet
1958 926 m 1,0,-1
 1934 868 l 1,1,-1
 1696 868 l 1,2,-1
 1582 0 l 1,3,-1
 1348 0 l 1,4,-1
 1460 868 l 1,5,-1
 1222 868 l 1,6,-1
 1110 0 l 1,7,-1
 872 0 l 1,8,-1
 950 574 l 1,9,10
 882 856 882 856 602 856 c 2,11,-1
 584 856 l 2,12,13
 416 856 416 856 268 726 c 0,14,15
 114 592 114 592 114 426 c 0,16,17
 114 374 114 374 142 294 c 0,18,19
 172 206 172 206 208 180 c 1,20,-1
 200 268 l 1,21,22
 200 400 200 400 262 482 c 0,23,24
 332 574 332 574 454 574 c 0,25,26
 558 574 558 574 622 482 c 0,27,28
 680 402 680 402 680 292 c 0,29,30
 680 158 680 158 599 73 c 128,-1,31
 518 -12 518 -12 386 -12 c 0,32,33
 224 -12 224 -12 124 130 c 0,34,35
 36 258 36 258 36 426 c 0,36,37
 36 654 36 654 224 802 c 0,38,39
 392 934 392 934 632 934 c 0,40,41
 956 934 956 934 1114 708 c 1,42,-1
 1144 926 l 1,43,-1
 1958 926 l 1,0,-1
442 258 m 0,44,45
 442 426 442 426 364 426 c 0,46,47
 330 426 330 426 300 382 c 1,48,49
 274 330 274 330 274 282 c 256,50,51
 274 234 274 234 290 186 c 0,52,53
 312 124 312 124 352 122 c 0,54,55
 398 120 398 120 422 170 c 0,56,57
 442 208 442 208 442 258 c 0,44,45
EndSplineSet
EndChar

StartChar: tm_llla
Encoding: 2996 2996 79
Width: 1586
GlyphClass: 2
Flags: W
LayerCount: 2
Fore
SplineSet
1476 382 m 0,0,1
 1476 0 1476 0 1184 0 c 2,2,-1
 8 0 l 1,3,-1
 132 926 l 1,4,-1
 368 926 l 1,5,-1
 258 54 l 1,6,-1
 652 54 l 1,7,-1
 730 688 l 2,8,9
 742 786 742 786 827 862 c 128,-1,10
 912 938 912 938 1012 938 c 0,11,12
 1210 938 1210 938 1350 754 c 0,13,14
 1476 588 1476 588 1476 382 c 0,0,1
1172 -106 m 1,15,-1
 1148 -160 l 1,16,-1
 898 -160 l 2,17,18
 746 -160 746 -160 704 -252 c 2,19,-1
 626 -420 l 1,20,21
 540 -512 540 -512 300 -512 c 0,22,23
 164 -512 164 -512 66 -448 c 0,24,25
 -50 -372 -50 -372 -50 -250 c 0,26,27
 -50 -198 -50 -198 -26 -156 c 0,28,29
 2 -106 2 -106 50 -106 c 2,30,-1
 266 -106 l 1,31,-1
 266 -160 l 1,32,-1
 110 -160 l 2,33,34
 32 -160 32 -160 32 -250 c 0,35,36
 32 -328 32 -328 108 -382 c 0,37,38
 178 -430 178 -430 258 -430 c 0,39,40
 372 -430 372 -430 404 -348 c 2,41,-1
 462 -196 l 1,42,43
 520 -114 520 -114 684 -114 c 1,44,45
 640 -70 640 -70 640 0 c 1,46,-1
 878 0 l 1,47,-1
 876 -12 l 1,48,49
 880 -46 880 -46 902 -80 c 0,50,51
 916 -102 916 -102 934 -106 c 1,52,-1
 1172 -106 l 1,15,-1
1398 372 m 0,53,54
 1398 516 1398 516 1328 650 c 0,55,56
 1244 812 1244 812 1114 812 c 0,57,58
 1012 812 1012 812 980 688 c 1,59,-1
 890 54 l 1,60,-1
 1196 54 l 2,61,62
 1282 54 1282 54 1340 151 c 128,-1,63
 1398 248 1398 248 1398 372 c 0,53,54
EndSplineSet
EndChar

StartChar: tm_va
Encoding: 2997 2997 80
Width: 1942
GlyphClass: 2
Flags: W
LayerCount: 2
Fore
SplineSet
1864 926 m 1,0,-1
 1738 0 l 1,1,-1
 742 0 l 1,2,-1
 742 54 l 1,3,4
 946 178 946 178 946 438 c 0,5,6
 946 606 946 606 852 726 c 0,7,8
 750 856 750 856 586 856 c 2,9,-1
 568 856 l 2,10,11
 398 856 398 856 250 725 c 128,-1,12
 102 594 102 594 102 426 c 0,13,14
 102 374 102 374 128 294 c 0,15,16
 156 202 156 202 192 180 c 1,17,-1
 184 268 l 1,18,19
 184 400 184 400 246 482 c 0,20,21
 316 574 316 574 438 574 c 0,22,23
 542 574 542 574 606 482 c 0,24,25
 664 402 664 402 664 292 c 0,26,27
 664 158 664 158 585 73 c 128,-1,28
 506 -12 506 -12 372 -12 c 0,29,30
 212 -12 212 -12 110 132 c 0,31,32
 20 260 20 260 20 426 c 0,33,34
 20 642 20 642 204 794 c 0,35,36
 380 938 380 938 598 938 c 0,37,38
 846 938 846 938 1010 804 c 0,39,40
 1184 660 1184 660 1184 418 c 0,41,42
 1184 190 1184 190 1050 54 c 1,43,-1
 1512 54 l 1,44,-1
 1626 926 l 1,45,-1
 1864 926 l 1,0,-1
426 258 m 0,46,47
 426 426 426 426 348 426 c 0,48,49
 314 426 314 426 284 382 c 1,50,51
 258 330 258 330 258 282 c 256,52,53
 258 234 258 234 274 186 c 0,54,55
 296 124 296 124 336 122 c 0,56,57
 382 120 382 120 406 170 c 0,58,59
 426 208 426 208 426 258 c 0,46,47
EndSplineSet
EndChar

StartChar: tm_ssa
Encoding: 2999 2999 81
Width: 2332
GlyphClass: 2
Flags: W
LayerCount: 2
Fore
SplineSet
2234 622 m 1,0,-1
 2168 0 l 1,1,-1
 1828 0 l 1,2,-1
 1774 -524 l 1,3,-1
 1524 -524 l 1,4,-1
 1582 0 l 1,5,-1
 742 0 l 1,6,-1
 742 54 l 1,7,8
 946 178 946 178 946 438 c 0,9,10
 946 606 946 606 852 726 c 0,11,12
 750 856 750 856 586 856 c 2,13,-1
 568 856 l 2,14,15
 398 856 398 856 250 725 c 128,-1,16
 102 594 102 594 102 426 c 0,17,18
 102 374 102 374 128 294 c 0,19,20
 156 202 156 202 192 180 c 1,21,-1
 184 268 l 1,22,23
 184 400 184 400 246 482 c 0,24,25
 316 574 316 574 438 574 c 0,26,27
 542 574 542 574 606 482 c 0,28,29
 664 402 664 402 664 292 c 0,30,31
 664 158 664 158 585 73 c 128,-1,32
 506 -12 506 -12 372 -12 c 0,33,34
 212 -12 212 -12 110 132 c 0,35,36
 20 260 20 260 20 426 c 0,37,38
 20 642 20 642 204 794 c 0,39,40
 380 938 380 938 598 938 c 0,41,42
 846 938 846 938 1010 804 c 0,43,44
 1184 660 1184 660 1184 418 c 0,45,46
 1184 190 1184 190 1050 54 c 1,47,-1
 1590 54 l 1,48,-1
 1626 316 l 1,49,50
 1496 316 1496 316 1396 396 c 128,-1,51
 1296 476 1296 476 1296 622 c 0,52,53
 1296 750 1296 750 1386 844 c 128,-1,54
 1476 938 1476 938 1602 938 c 0,55,56
 1722 938 1722 938 1815 863 c 128,-1,57
 1908 788 1908 788 1908 688 c 2,58,-1
 1908 676 l 1,59,-1
 1906 664 l 1,60,-1
 1878 422 l 1,61,62
 2118 512 2118 512 2156 622 c 1,63,-1
 2234 622 l 1,0,-1
2144 496 m 1,64,65
 2002 392 2002 392 1872 348 c 1,66,-1
 1836 54 l 1,67,-1
 2094 54 l 1,68,-1
 2144 496 l 1,64,65
1662 646 m 1,69,70
 1670 800 1670 800 1524 800 c 0,71,72
 1460 800 1460 800 1418 744 c 128,-1,73
 1376 688 1376 688 1376 622 c 0,74,75
 1376 414 1376 414 1632 378 c 1,76,-1
 1662 646 l 1,69,70
426 258 m 0,77,78
 426 426 426 426 348 426 c 0,79,80
 314 426 314 426 284 382 c 1,81,82
 258 330 258 330 258 282 c 256,83,84
 258 234 258 234 274 186 c 0,85,86
 296 124 296 124 336 122 c 0,87,88
 382 120 382 120 406 170 c 0,89,90
 426 208 426 208 426 258 c 0,77,78
EndSplineSet
EndChar

StartChar: tm_sa
Encoding: 3000 3000 82
Width: 2332
GlyphClass: 2
Flags: W
LayerCount: 2
Fore
SplineSet
2214 496 m 0,0,1
 2214 330 2214 330 2090 174 c 0,2,3
 1942 -12 1942 -12 1718 -12 c 0,4,5
 1552 -12 1552 -12 1470 60 c 0,6,7
 1362 154 1362 154 1372 360 c 2,8,-1
 1378 482 l 1,9,-1
 1394 584 l 2,10,11
 1406 660 1406 660 1406 688 c 0,12,13
 1406 800 1406 800 1324 800 c 0,14,15
 1264 800 1264 800 1220 732 c 0,16,17
 1184 678 1184 678 1176 610 c 2,18,-1
 1098 0 l 1,19,-1
 860 0 l 1,20,-1
 938 578 l 1,21,22
 904 708 904 708 810 780 c 128,-1,23
 716 852 716 852 582 852 c 0,24,25
 398 852 398 852 258 738 c 0,26,27
 106 614 106 614 106 430 c 0,28,29
 106 378 106 378 132 298 c 0,30,31
 160 206 160 206 196 184 c 1,32,-1
 188 272 l 1,33,34
 188 404 188 404 250 486 c 0,35,36
 320 578 320 578 442 578 c 0,37,38
 546 578 546 578 610 486 c 0,39,40
 668 406 668 406 668 296 c 0,41,42
 668 162 668 162 589 77 c 128,-1,43
 510 -8 510 -8 376 -8 c 0,44,45
 216 -8 216 -8 114 136 c 0,46,47
 24 264 24 264 24 430 c 0,48,49
 24 658 24 658 212 806 c 0,50,51
 380 938 380 938 620 938 c 0,52,53
 942 938 942 938 1102 710 c 1,54,55
 1190 938 1190 938 1426 938 c 0,56,57
 1568 938 1568 938 1618 774 c 0,58,59
 1636 716 1636 716 1632 658 c 2,60,-1
 1628 586 l 1,61,-1
 1614 468 l 2,62,63
 1602 366 1602 366 1602 310 c 0,64,65
 1602 78 1602 78 1790 78 c 0,66,67
 1926 78 1926 78 2031 220 c 128,-1,68
 2136 362 2136 362 2136 508 c 2,69,-1
 2136 536 l 2,70,71
 2136 684 2136 684 2054 762 c 0,72,73
 1998 814 1998 814 1868 844 c 1,74,75
 1790 854 1790 854 1790 920 c 0,76,77
 1790 958 1790 958 1815 981 c 128,-1,78
 1840 1004 1840 1004 1878 1004 c 0,79,80
 2056 1004 2056 1004 2144 828 c 0,81,82
 2214 692 2214 692 2214 496 c 0,0,1
430 262 m 0,83,84
 430 430 430 430 352 430 c 0,85,86
 318 430 318 430 288 386 c 1,87,88
 262 334 262 334 262 286 c 256,89,90
 262 238 262 238 278 190 c 0,91,92
 300 128 300 128 340 126 c 0,93,94
 386 124 386 124 410 174 c 0,95,96
 430 212 430 212 430 262 c 0,83,84
EndSplineSet
EndChar

StartChar: tm_ha
Encoding: 3001 3001 83
Width: 2744
GlyphClass: 2
Flags: W
LayerCount: 2
Fore
SplineSet
2706 372 m 2,0,1
 2706 106 2706 106 2500 -38 c 0,2,3
 2324 -160 2324 -160 2072 -160 c 2,4,-1
 556 -160 l 2,5,6
 420 -160 420 -160 420 -250 c 0,7,8
 420 -280 420 -280 448 -308 c 1,9,10
 470 -336 470 -336 474 -364 c 1,11,12
 474 -508 474 -508 330 -508 c 0,13,14
 182 -508 182 -508 182 -304 c 0,15,16
 182 -212 182 -212 253 -159 c 128,-1,17
 324 -106 324 -106 444 -106 c 2,18,-1
 1964 -106 l 2,19,20
 2182 -106 2182 -106 2316 22 c 0,21,22
 2430 130 2430 130 2458 266 c 0,23,24
 2466 302 2466 302 2468 372 c 2,25,-1
 2470 442 l 2,26,27
 2474 598 2474 598 2424 710 c 0,28,29
 2378 812 2378 812 2288 812 c 0,30,31
 2196 812 2196 812 2114 688 c 0,32,33
 2042 582 2042 582 2030 480 c 2,34,-1
 1972 0 l 1,35,-1
 1732 0 l 1,36,-1
 1814 634 l 1,37,38
 1814 696 1814 696 1792 746 c 0,39,40
 1764 812 1764 812 1710 812 c 0,41,42
 1594 812 1594 812 1564 574 c 2,43,-1
 1494 0 l 1,44,-1
 850 0 l 1,45,-1
 850 54 l 1,46,47
 1050 176 1050 176 1050 436 c 0,48,49
 1050 602 1050 602 960 718 c 0,50,51
 852 856 852 856 694 856 c 2,52,-1
 676 856 l 2,53,54
 508 856 508 856 360 726 c 0,55,56
 206 592 206 592 206 426 c 0,57,58
 206 374 206 374 234 294 c 0,59,60
 264 206 264 206 300 180 c 1,61,-1
 292 268 l 1,62,63
 292 400 292 400 354 482 c 0,64,65
 424 574 424 574 546 574 c 0,66,67
 650 574 650 574 714 482 c 0,68,69
 772 402 772 402 772 292 c 0,70,71
 772 158 772 158 691 73 c 128,-1,72
 610 -12 610 -12 478 -12 c 0,73,74
 316 -12 316 -12 216 130 c 0,75,76
 128 258 128 258 128 426 c 0,77,78
 128 642 128 642 312 794 c 0,79,80
 488 938 488 938 706 938 c 0,81,82
 954 938 954 938 1118 804 c 0,83,84
 1292 660 1292 660 1292 418 c 0,85,86
 1292 190 1292 190 1154 54 c 1,87,-1
 1424 54 l 1,88,-1
 1494 640 l 2,89,90
 1508 752 1508 752 1574 838 c 0,91,92
 1652 938 1652 938 1756 938 c 0,93,94
 1950 938 1950 938 2038 710 c 1,95,96
 2072 800 2072 800 2161 869 c 128,-1,97
 2250 938 2250 938 2342 938 c 0,98,99
 2532 938 2532 938 2628 760 c 0,100,101
 2706 618 2706 618 2706 412 c 2,102,-1
 2706 372 l 2,0,1
534 258 m 0,103,104
 534 426 534 426 456 426 c 0,105,106
 422 426 422 426 392 382 c 1,107,108
 366 330 366 330 366 282 c 256,109,110
 366 234 366 234 382 186 c 0,111,112
 404 124 404 124 444 122 c 0,113,114
 490 120 490 120 514 170 c 0,115,116
 534 208 534 208 534 258 c 0,103,104
EndSplineSet
EndChar

StartChar: tm_aakaar
Encoding: 3006 3006 84
Width: 1012
GlyphClass: 2
Flags: W
LayerCount: 2
Fore
SplineSet
946 926 m 1,0,-1
 922 868 l 1,1,-1
 684 868 l 1,2,-1
 574 0 l 1,3,-1
 336 0 l 1,4,-1
 450 868 l 1,5,-1
 210 868 l 1,6,-1
 98 0 l 1,7,-1
 20 0 l 1,8,-1
 132 926 l 1,9,-1
 946 926 l 1,0,-1
EndSplineSet
EndChar

StartChar: tm_ikaar
Encoding: 3007 3007 85
Width: 266
GlyphClass: 2
Flags: W
LayerCount: 2
Fore
SplineSet
174 1138 m 2,0,-1
 168 1050 l 1,1,-1
 102 508 l 1,2,-1
 20 508 l 1,3,-1
 92 1074 l 1,4,5
 98 1174 98 1174 12 1250 c 0,6,7
 -68 1320 -68 1320 -196 1320 c 0,8,9
 -284 1320 -284 1320 -366 1258 c 0,10,11
 -454 1192 -454 1192 -454 1106 c 0,12,13
 -454 956 -454 956 -340 926 c 1,14,-1
 -464 926 l 1,15,16
 -578 1044 -578 1044 -578 1218 c 0,17,18
 -578 1364 -578 1364 -458 1458 c 0,19,20
 -346 1546 -346 1546 -196 1546 c 0,21,22
 -34 1546 -34 1546 70 1436 c 0,23,24
 186 1312 186 1312 174 1138 c 2,0,-1
EndSplineSet
EndChar

StartChar: tm_iikaar
Encoding: 3008 3008 86
Width: 1300
GlyphClass: 4
Flags: W
LayerCount: 2
Fore
SplineSet
168 1308 m 0,0,1
 168 1208 168 1208 104 1133 c 128,-1,2
 40 1058 40 1058 -58 1058 c 0,3,4
 -128 1058 -128 1058 -178 1116 c 128,-1,5
 -228 1174 -228 1174 -228 1244 c 0,6,7
 -228 1302 -228 1302 -184 1344 c 1,8,-1
 -210 1346 l 2,9,10
 -276 1352 -276 1352 -344 1312 c 0,11,12
 -442 1256 -442 1256 -442 1142 c 0,13,14
 -442 992 -442 992 -308 926 c 1,15,-1
 -430 926 l 1,16,17
 -554 1044 -554 1044 -554 1218 c 0,18,19
 -554 1386 -554 1386 -432 1482 c 0,20,21
 -320 1570 -320 1570 -148 1570 c 0,22,23
 -22 1570 -22 1570 68 1502 c 0,24,25
 168 1428 168 1428 168 1308 c 0,0,1
-8 1254 m 0,26,27
 -8 1344 -8 1344 -74 1344 c 0,28,29
 -106 1344 -106 1344 -127 1310 c 128,-1,30
 -148 1276 -148 1276 -148 1242 c 0,31,32
 -148 1160 -148 1160 -82 1160 c 0,33,34
 -8 1160 -8 1160 -8 1254 c 0,26,27
EndSplineSet
EndChar

StartChar: tm_ukaar
Encoding: 3009 3009 87
Width: 1006
GlyphClass: 4
Flags: W
LayerCount: 2
Fore
SplineSet
882 574 m 0,0,1
 882 412 882 412 787 317 c 128,-1,2
 692 222 692 222 530 222 c 0,3,4
 376 222 376 222 277 326 c 128,-1,5
 178 430 178 430 178 586 c 0,6,7
 178 664 178 664 210 742 c 0,8,9
 246 830 246 830 304 868 c 1,10,-1
 -360 868 l 1,11,-1
 -342 926 l 1,12,-1
 588 926 l 2,13,14
 704 926 704 926 796 806 c 0,15,16
 882 694 882 694 882 574 c 0,0,1
642 574 m 256,17,18
 642 666 642 666 594 734 c 0,19,20
 540 812 540 812 452 812 c 0,21,22
 358 812 358 812 306 736 c 0,23,24
 258 670 258 670 258 572 c 0,25,26
 258 480 258 480 302 414 c 0,27,28
 352 336 352 336 440 336 c 256,29,30
 528 336 528 336 588 412 c 0,31,32
 642 482 642 482 642 574 c 256,17,18
EndSplineSet
EndChar

StartChar: tm_uukaar
Encoding: 3010 3010 88
Width: 1617
GlyphClass: 4
Flags: W
LayerCount: 2
Fore
SplineSet
1548 688 m 2,0,1
 1548 388 1548 388 1338 188 c 128,-1,2
 1128 -12 1128 -12 826 -12 c 0,3,4
 690 -12 690 -12 646 20 c 1,5,-1
 658 66 l 1,6,7
 706 42 706 42 802 42 c 0,8,9
 1030 42 1030 42 1180 264 c 0,10,11
 1314 460 1314 460 1314 700 c 0,12,13
 1314 938 1314 938 1186 1100 c 0,14,15
 1046 1274 1046 1274 814 1274 c 2,16,-1
 792 1274 l 2,17,18
 390 1274 390 1274 260 926 c 1,19,-1
 588 926 l 2,20,21
 686 926 686 926 772 846 c 0,22,23
 872 754 872 754 872 632 c 2,24,-1
 872 604 l 2,25,26
 872 448 872 448 788 334 c 0,27,28
 696 210 696 210 544 210 c 0,29,30
 380 210 380 210 259 334 c 128,-1,31
 138 458 138 458 138 622 c 2,32,-1
 138 696 l 2,33,34
 138 722 138 722 141 757 c 128,-1,35
 144 792 144 792 162 868 c 1,36,-1
 -380 868 l 1,37,-1
 -362 926 l 1,38,-1
 178 926 l 1,39,40
 322 1386 322 1386 802 1386 c 0,41,42
 1108 1386 1108 1386 1322 1198 c 0,43,44
 1548 1002 1548 1002 1548 702 c 2,45,-1
 1548 688 l 2,0,1
622 622 m 0,46,47
 622 720 622 720 546 794 c 128,-1,48
 470 868 470 868 372 868 c 2,49,-1
 240 868 l 1,50,51
 218 792 218 792 218 688 c 0,52,53
 218 544 218 544 268 456 c 0,54,55
 330 348 330 348 456 348 c 0,56,57
 544 348 544 348 588 446 c 0,58,59
 622 520 622 520 622 622 c 0,46,47
EndSplineSet
EndChar

StartChar: tm_ekaar
Encoding: 3014 3014 89
Width: 1610
GlyphClass: 2
Flags: W
LayerCount: 2
Fore
SplineSet
1502 930 m 2,0,-1
 1492 754 l 1,1,-1
 1414 0 l 1,2,-1
 1336 0 l 1,3,-1
 1416 826 l 1,4,5
 1426 1006 1426 1006 1252 1168 c 0,6,7
 1088 1320 1088 1320 828 1320 c 0,8,9
 560 1320 560 1320 346 1152 c 0,10,11
 114 972 114 972 114 710 c 0,12,13
 114 492 114 492 220 312 c 0,14,15
 346 102 346 102 550 102 c 2,16,-1
 566 102 l 1,17,18
 454 214 454 214 454 382 c 0,19,20
 454 526 454 526 535 618 c 128,-1,21
 616 710 616 710 758 710 c 0,22,23
 872 710 872 710 967 620 c 128,-1,24
 1062 530 1062 530 1062 418 c 0,25,26
 1062 222 1062 222 934 108 c 0,27,28
 814 0 814 0 614 0 c 0,29,30
 338 0 338 0 176 236 c 0,31,32
 36 440 36 440 36 700 c 2,33,-1
 36 722 l 2,34,35
 36 1054 36 1054 276 1306 c 128,-1,36
 516 1558 516 1558 828 1558 c 0,37,38
 1170 1558 1170 1558 1345 1399 c 128,-1,39
 1520 1240 1520 1240 1502 930 c 2,0,-1
828 418 m 0,40,41
 828 476 828 476 782 537 c 128,-1,42
 736 598 736 598 680 598 c 0,43,44
 598 598 598 598 550 522 c 0,45,46
 508 456 508 456 508 368 c 0,47,48
 508 288 508 288 542 230 c 0,49,50
 584 164 584 164 660 164 c 0,51,52
 828 164 828 164 828 418 c 0,40,41
EndSplineSet
EndChar

StartChar: tm_eekaar
Encoding: 3015 3015 90
Width: 1504
GlyphClass: 2
Flags: W
LayerCount: 2
Fore
SplineSet
1496 1106 m 0,0,1
 1496 1002 1496 1002 1422 923 c 128,-1,2
 1348 844 1348 844 1246 844 c 0,3,4
 1130 844 1130 844 1042 935 c 128,-1,5
 954 1026 954 1026 954 1144 c 2,6,-1
 954 1152 l 2,7,8
 954 1230 954 1230 1000 1302 c 0,9,10
 1050 1382 1050 1382 1122 1398 c 1,11,12
 1184 1398 1184 1398 1258 1360 c 1,13,14
 1214 1344 1214 1344 1179 1273 c 128,-1,15
 1144 1202 1144 1202 1144 1152 c 2,16,-1
 1144 1144 l 2,17,18
 1144 1074 1144 1074 1182 1006 c 0,19,20
 1228 926 1228 926 1292 926 c 0,21,22
 1350 926 1350 926 1388 1000 c 0,23,24
 1418 1062 1418 1062 1418 1128 c 0,25,26
 1418 1422 1418 1422 876 1422 c 0,27,28
 646 1422 646 1422 454 1216 c 128,-1,29
 262 1010 262 1010 262 778 c 0,30,31
 262 522 262 522 380 322 c 0,32,33
 516 92 516 92 762 54 c 2,34,-1
 788 50 l 1,35,-1
 832 50 l 2,36,37
 1008 50 1008 50 1110 122 c 1,38,39
 1000 146 1000 146 934 224 c 0,40,41
 876 292 876 292 876 372 c 0,42,43
 876 498 876 498 938 575 c 128,-1,44
 1000 652 1000 652 1122 652 c 0,45,46
 1238 652 1238 652 1316 574 c 128,-1,47
 1394 496 1394 496 1394 380 c 2,48,-1
 1394 372 l 2,49,50
 1394 0 1394 0 762 0 c 0,51,52
 426 0 426 0 222 236 c 0,53,54
 28 460 28 460 28 800 c 0,55,56
 28 1110 28 1110 304 1314 c 0,57,58
 554 1500 554 1500 876 1500 c 0,59,60
 1496 1500 1496 1500 1496 1106 c 0,0,1
1318 358 m 0,61,62
 1318 422 1318 422 1288 472 c 0,63,64
 1252 528 1252 528 1192 528 c 0,65,66
 1110 528 1110 528 1110 372 c 0,67,68
 1110 318 1110 318 1130 268 c 0,69,70
 1158 204 1158 204 1204 204 c 0,71,72
 1260 204 1260 204 1292 254 c 0,73,74
 1318 298 1318 298 1318 358 c 0,61,62
EndSplineSet
EndChar

StartChar: tm_aikaar
Encoding: 3016 3016 91
Width: 2062
GlyphClass: 2
Flags: W
LayerCount: 2
Fore
SplineSet
1942 472 m 0,0,1
 1942 318 1942 318 1836 162 c 0,2,3
 1718 -10 1718 -10 1572 -10 c 0,4,5
 1534 -10 1534 -10 1512 0 c 1,6,-1
 1512 78 l 1,7,8
 1602 106 1602 106 1658 234 c 0,9,10
 1704 340 1704 340 1704 450 c 0,11,12
 1704 632 1704 632 1615 744 c 128,-1,13
 1526 856 1526 856 1410 856 c 0,14,15
 1344 856 1344 856 1280 822 c 2,16,-1
 1212 786 l 2,17,18
 1186 772 1186 772 1172 758 c 1,19,20
 1352 586 1352 586 1352 372 c 0,21,22
 1352 236 1352 236 1274 120 c 0,23,24
 1188 -12 1188 -12 1058 -12 c 0,25,26
 948 -12 948 -12 883 88 c 128,-1,27
 818 188 818 188 818 354 c 0,28,29
 818 548 818 548 972 714 c 1,30,31
 860 850 860 850 656 850 c 0,32,33
 464 850 464 850 300 732 c 0,34,35
 122 604 122 604 122 426 c 2,36,-1
 122 418 l 2,37,38
 122 366 122 366 148 290 c 0,39,40
 176 206 176 206 210 180 c 1,41,-1
 202 264 l 1,42,43
 202 394 202 394 264 478 c 0,44,45
 334 574 334 574 460 574 c 0,46,47
 566 574 566 574 628 482 c 0,48,49
 684 402 684 402 684 292 c 0,50,51
 684 158 684 158 603 73 c 128,-1,52
 522 -12 522 -12 390 -12 c 0,53,54
 228 -12 228 -12 130 130 c 0,55,56
 42 258 42 258 42 426 c 0,57,58
 42 654 42 654 252 804 c 0,59,60
 440 938 440 938 676 938 c 0,61,62
 918 938 918 938 1098 812 c 1,63,64
 1278 938 1278 938 1422 938 c 0,65,66
 1630 938 1630 938 1782 810 c 0,67,68
 1942 676 1942 676 1942 472 c 0,0,1
1114 394 m 0,69,70
 1114 534 1114 534 1032 648 c 1,71,72
 898 520 898 520 898 382 c 0,73,74
 898 156 898 156 992 156 c 0,75,76
 1058 156 1058 156 1090 248 c 0,77,78
 1114 314 1114 314 1114 394 c 0,69,70
450 258 m 0,79,80
 450 426 450 426 368 426 c 0,81,82
 334 426 334 426 304 382 c 1,83,84
 278 330 278 330 278 282 c 0,85,86
 278 222 278 222 304 172 c 128,-1,87
 330 122 330 122 360 122 c 0,88,89
 402 122 402 122 428 172 c 0,90,91
 450 212 450 212 450 258 c 0,79,80
EndSplineSet
EndChar

StartChar: tm_okaar
Encoding: 3018 3018 92
Width: 2586
GlyphClass: 2
Flags: W
LayerCount: 2
Fore
SplineSet
2546 926 m 1,0,-1
 2522 868 l 1,1,-1
 2284 868 l 1,2,-1
 2174 0 l 1,3,-1
 1936 0 l 1,4,-1
 2050 868 l 1,5,-1
 1810 868 l 1,6,-1
 1698 0 l 1,7,-1
 1620 0 l 1,8,-1
 1732 926 l 1,9,-1
 2546 926 l 1,0,-1
1502 930 m 2,10,-1
 1492 754 l 1,11,-1
 1414 0 l 1,12,-1
 1336 0 l 1,13,-1
 1416 826 l 1,14,15
 1426 1006 1426 1006 1252 1168 c 0,16,17
 1088 1320 1088 1320 828 1320 c 0,18,19
 560 1320 560 1320 346 1152 c 0,20,21
 114 972 114 972 114 710 c 0,22,23
 114 492 114 492 220 312 c 0,24,25
 346 102 346 102 550 102 c 2,26,-1
 566 102 l 1,27,28
 454 214 454 214 454 382 c 0,29,30
 454 526 454 526 535 618 c 128,-1,31
 616 710 616 710 758 710 c 0,32,33
 872 710 872 710 967 620 c 128,-1,34
 1062 530 1062 530 1062 418 c 0,35,36
 1062 222 1062 222 934 108 c 0,37,38
 814 0 814 0 614 0 c 0,39,40
 338 0 338 0 176 236 c 0,41,42
 36 440 36 440 36 700 c 2,43,-1
 36 722 l 2,44,45
 36 1054 36 1054 276 1306 c 128,-1,46
 516 1558 516 1558 828 1558 c 0,47,48
 1168 1558 1168 1558 1344 1398 c 128,-1,49
 1520 1238 1520 1238 1502 930 c 2,10,-1
828 418 m 0,50,51
 828 476 828 476 782 537 c 128,-1,52
 736 598 736 598 680 598 c 0,53,54
 598 598 598 598 550 522 c 0,55,56
 508 456 508 456 508 368 c 0,57,58
 508 288 508 288 542 230 c 0,59,60
 584 164 584 164 660 164 c 0,61,62
 828 164 828 164 828 418 c 0,50,51
EndSplineSet
EndChar

StartChar: tm_ookaar
Encoding: 3019 3019 93
Width: 2474
GlyphClass: 2
Flags: W
LayerCount: 2
Fore
SplineSet
2426 926 m 1,0,-1
 2402 868 l 1,1,-1
 2164 868 l 1,2,-1
 2054 0 l 1,3,-1
 1816 0 l 1,4,-1
 1930 868 l 1,5,-1
 1690 868 l 1,6,-1
 1578 0 l 1,7,-1
 1500 0 l 1,8,-1
 1612 926 l 1,9,-1
 2426 926 l 1,0,-1
1496 1106 m 0,10,11
 1496 1002 1496 1002 1422 923 c 128,-1,12
 1348 844 1348 844 1246 844 c 0,13,14
 1130 844 1130 844 1042 935 c 128,-1,15
 954 1026 954 1026 954 1144 c 2,16,-1
 954 1152 l 2,17,18
 954 1230 954 1230 1000 1302 c 0,19,20
 1050 1382 1050 1382 1122 1398 c 1,21,22
 1184 1398 1184 1398 1258 1360 c 1,23,24
 1214 1344 1214 1344 1179 1273 c 128,-1,25
 1144 1202 1144 1202 1144 1152 c 2,26,-1
 1144 1144 l 2,27,28
 1144 1074 1144 1074 1182 1006 c 0,29,30
 1228 926 1228 926 1292 926 c 0,31,32
 1350 926 1350 926 1388 1000 c 0,33,34
 1418 1062 1418 1062 1418 1128 c 0,35,36
 1418 1422 1418 1422 876 1422 c 0,37,38
 646 1422 646 1422 454 1216 c 128,-1,39
 262 1010 262 1010 262 778 c 0,40,41
 262 522 262 522 380 322 c 0,42,43
 516 92 516 92 762 54 c 2,44,-1
 788 50 l 1,45,-1
 832 50 l 2,46,47
 1008 50 1008 50 1110 122 c 1,48,49
 1000 146 1000 146 934 224 c 0,50,51
 876 292 876 292 876 372 c 0,52,53
 876 498 876 498 938 575 c 128,-1,54
 1000 652 1000 652 1122 652 c 0,55,56
 1238 652 1238 652 1316 574 c 128,-1,57
 1394 496 1394 496 1394 380 c 2,58,-1
 1394 372 l 2,59,60
 1394 0 1394 0 762 0 c 0,61,62
 426 0 426 0 222 236 c 0,63,64
 28 460 28 460 28 800 c 0,65,66
 28 1110 28 1110 304 1314 c 0,67,68
 554 1500 554 1500 876 1500 c 0,69,70
 1496 1500 1496 1500 1496 1106 c 0,10,11
1318 358 m 0,71,72
 1318 422 1318 422 1288 472 c 0,73,74
 1252 528 1252 528 1192 528 c 0,75,76
 1110 528 1110 528 1110 372 c 0,77,78
 1110 318 1110 318 1130 268 c 0,79,80
 1158 204 1158 204 1204 204 c 0,81,82
 1260 204 1260 204 1292 254 c 0,83,84
 1318 298 1318 298 1318 358 c 0,71,72
EndSplineSet
EndChar

StartChar: tm_aukaar
Encoding: 3020 3020 94
Width: 3610
GlyphClass: 2
Flags: W
LayerCount: 2
Fore
SplineSet
3538 926 m 1,0,-1
 3514 868 l 1,1,-1
 3276 868 l 1,2,-1
 3162 0 l 1,3,-1
 2928 0 l 1,4,-1
 3040 868 l 1,5,-1
 2802 868 l 1,6,-1
 2690 0 l 1,7,-1
 2452 0 l 1,8,-1
 2530 574 l 1,9,10
 2462 856 2462 856 2182 856 c 2,11,-1
 2164 856 l 2,12,13
 1996 856 1996 856 1848 726 c 0,14,15
 1694 592 1694 592 1694 426 c 0,16,17
 1694 374 1694 374 1722 294 c 0,18,19
 1752 206 1752 206 1788 180 c 1,20,-1
 1780 268 l 1,21,22
 1780 400 1780 400 1842 482 c 0,23,24
 1912 574 1912 574 2034 574 c 0,25,26
 2138 574 2138 574 2202 482 c 0,27,28
 2260 402 2260 402 2260 292 c 0,29,30
 2260 158 2260 158 2179 73 c 128,-1,31
 2098 -12 2098 -12 1966 -12 c 0,32,33
 1804 -12 1804 -12 1704 130 c 0,34,35
 1616 258 1616 258 1616 426 c 0,36,37
 1616 654 1616 654 1804 802 c 0,38,39
 1972 934 1972 934 2212 934 c 0,40,41
 2536 934 2536 934 2694 708 c 1,42,-1
 2724 926 l 1,43,-1
 3538 926 l 1,0,-1
1502 930 m 2,44,-1
 1492 754 l 1,45,-1
 1414 0 l 1,46,-1
 1336 0 l 1,47,-1
 1416 826 l 1,48,49
 1426 1006 1426 1006 1252 1168 c 0,50,51
 1088 1320 1088 1320 828 1320 c 0,52,53
 560 1320 560 1320 346 1152 c 0,54,55
 114 972 114 972 114 710 c 0,56,57
 114 492 114 492 220 312 c 0,58,59
 346 102 346 102 550 102 c 2,60,-1
 566 102 l 1,61,62
 454 214 454 214 454 382 c 0,63,64
 454 526 454 526 535 618 c 128,-1,65
 616 710 616 710 758 710 c 0,66,67
 872 710 872 710 967 620 c 128,-1,68
 1062 530 1062 530 1062 418 c 0,69,70
 1062 222 1062 222 934 108 c 0,71,72
 814 0 814 0 614 0 c 0,73,74
 338 0 338 0 176 236 c 0,75,76
 36 440 36 440 36 700 c 2,77,-1
 36 722 l 2,78,79
 36 1054 36 1054 276 1306 c 128,-1,80
 516 1558 516 1558 828 1558 c 0,81,82
 1168 1558 1168 1558 1344 1398 c 128,-1,83
 1520 1238 1520 1238 1502 930 c 2,44,-1
2022 258 m 0,84,85
 2022 426 2022 426 1944 426 c 0,86,87
 1910 426 1910 426 1880 382 c 1,88,89
 1854 330 1854 330 1854 282 c 256,90,91
 1854 234 1854 234 1870 186 c 0,92,93
 1892 124 1892 124 1932 122 c 0,94,95
 1978 120 1978 120 2002 170 c 0,96,97
 2022 208 2022 208 2022 258 c 0,84,85
828 418 m 0,98,99
 828 476 828 476 782 537 c 128,-1,100
 736 598 736 598 680 598 c 0,101,102
 598 598 598 598 550 522 c 0,103,104
 508 456 508 456 508 368 c 0,105,106
 508 288 508 288 542 230 c 0,107,108
 584 164 584 164 660 164 c 0,109,110
 828 164 828 164 828 418 c 0,98,99
EndSplineSet
EndChar

StartChar: tm_halant
Encoding: 3021 3021 95
Width: 20
GlyphClass: 4
Flags: W
LayerCount: 2
Fore
SplineSet
-434 1490 m 1,0,-1
 -590 1490 l 1,1,-1
 -590 1686 l 1,2,-1
 -434 1686 l 1,3,-1
 -434 1490 l 1,0,-1
EndSplineSet
EndChar

StartChar: tm_au_lengthmk
Encoding: 3031 3031 96
Width: 2021
GlyphClass: 2
Flags: W
LayerCount: 2
Fore
SplineSet
1958 926 m 1,0,-1
 1934 868 l 1,1,-1
 1696 868 l 1,2,-1
 1582 0 l 1,3,-1
 1348 0 l 1,4,-1
 1460 868 l 1,5,-1
 1222 868 l 1,6,-1
 1110 0 l 1,7,-1
 872 0 l 1,8,-1
 950 574 l 1,9,10
 882 856 882 856 602 856 c 2,11,-1
 584 856 l 2,12,13
 416 856 416 856 268 726 c 0,14,15
 114 592 114 592 114 426 c 0,16,17
 114 374 114 374 142 294 c 0,18,19
 172 206 172 206 208 180 c 1,20,-1
 200 268 l 1,21,22
 200 400 200 400 262 482 c 0,23,24
 332 574 332 574 454 574 c 0,25,26
 558 574 558 574 622 482 c 0,27,28
 680 402 680 402 680 292 c 0,29,30
 680 158 680 158 599 73 c 128,-1,31
 518 -12 518 -12 386 -12 c 0,32,33
 224 -12 224 -12 124 130 c 0,34,35
 36 258 36 258 36 426 c 0,36,37
 36 654 36 654 224 802 c 0,38,39
 392 934 392 934 632 934 c 0,40,41
 956 934 956 934 1114 708 c 1,42,-1
 1144 926 l 1,43,-1
 1958 926 l 1,0,-1
442 258 m 0,44,45
 442 426 442 426 364 426 c 0,46,47
 330 426 330 426 300 382 c 1,48,49
 274 330 274 330 274 282 c 256,50,51
 274 234 274 234 290 186 c 0,52,53
 312 124 312 124 352 122 c 0,54,55
 398 120 398 120 422 170 c 0,56,57
 442 208 442 208 442 258 c 0,44,45
EndSplineSet
EndChar

StartChar: tm_one
Encoding: 3047 3047 97
Width: 1376
GlyphClass: 2
Flags: W
LayerCount: 2
Fore
SplineSet
1266 286 m 0,0,1
 1268 174 1268 174 1175 94 c 128,-1,2
 1082 14 1082 14 968 12 c 0,3,4
 920 12 920 12 832 42 c 1,5,-1
 832 164 l 1,6,-1
 890 140 l 1,7,-1
 960 132 l 1,8,9
 1040 132 1040 132 1097 171 c 128,-1,10
 1154 210 1154 210 1156 286 c 0,11,12
 1158 370 1158 370 1104 419 c 128,-1,13
 1050 468 1050 468 964 468 c 2,14,-1
 792 468 l 1,15,-1
 792 286 l 2,16,17
 792 146 792 146 686 68 c 0,18,19
 592 -2 592 -2 446 -4 c 0,20,21
 282 -6 282 -6 162 94 c 0,22,23
 34 200 34 200 32 360 c 0,24,25
 32 438 32 438 78 504 c 0,26,27
 130 578 130 578 204 578 c 2,28,-1
 250 578 l 1,29,-1
 250 964 l 1,30,-1
 1110 964 l 1,31,-1
 1110 856 l 1,32,-1
 792 856 l 1,33,-1
 792 578 l 1,34,-1
 1012 578 l 2,35,36
 1120 578 1120 578 1192 487 c 128,-1,37
 1264 396 1264 396 1266 286 c 0,0,1
684 578 m 1,38,-1
 684 856 l 1,39,-1
 360 856 l 1,40,-1
 360 578 l 1,41,-1
 684 578 l 1,38,-1
684 336 m 2,42,-1
 684 468 l 1,43,-1
 250 468 l 2,44,45
 222 468 222 468 180 424 c 1,46,47
 152 384 152 384 152 336 c 0,48,49
 150 244 150 244 254 172 c 0,50,51
 350 106 350 106 446 106 c 0,52,53
 684 106 684 106 684 336 c 2,42,-1
EndSplineSet
EndChar

StartChar: tm_two
Encoding: 3048 3048 98
Width: 1672
GlyphClass: 2
Flags: W
LayerCount: 2
Fore
SplineSet
1574 -4 m 1,0,-1
 254 -4 l 2,1,2
 26 -4 26 -4 24 164 c 0,3,4
 24 244 24 244 88 292 c 0,5,6
 146 336 146 336 230 336 c 2,7,-1
 484 336 l 2,8,9
 584 336 584 336 674 412 c 0,10,11
 698 432 698 432 736 484 c 0,12,13
 738 490 738 490 752 516 c 0,14,15
 754 524 754 524 762 566 c 1,16,17
 762 702 762 702 678 778 c 128,-1,18
 594 854 594 854 456 856 c 0,19,20
 370 858 370 858 276 810 c 0,21,22
 158 750 158 750 152 656 c 0,23,24
 148 594 148 594 210 494 c 1,25,26
 284 452 284 452 284 406 c 0,27,28
 284 380 284 380 250 378 c 0,29,30
 164 374 164 374 102 430 c 0,31,32
 72 458 72 458 48 520 c 128,-1,33
 24 582 24 582 24 626 c 0,34,35
 22 800 22 800 170 890 c 0,36,37
 218 920 218 920 304 944 c 1,38,39
 418 964 418 964 460 964 c 0,40,41
 628 966 628 966 749 856 c 128,-1,42
 870 746 870 746 872 578 c 0,43,44
 874 434 874 434 736 326 c 0,45,46
 608 226 608 226 460 226 c 2,47,-1
 230 226 l 2,48,49
 122 226 122 226 122 164 c 0,50,51
 122 106 122 106 230 106 c 2,52,-1
 1574 106 l 1,53,-1
 1574 -4 l 1,0,-1
EndSplineSet
EndChar

StartChar: tm_three
Encoding: 3049 3049 99
Width: 1488
GlyphClass: 2
Flags: W
LayerCount: 2
Fore
SplineSet
1380 -4 m 1,0,-1
 464 -4 l 1,1,-1
 464 106 l 1,2,-1
 730 106 l 1,3,4
 898 152 898 152 898 360 c 0,5,6
 898 426 898 426 838 472 c 0,7,8
 786 512 786 512 716 514 c 0,9,10
 644 516 644 516 574 446 c 1,11,-1
 574 262 l 1,12,-1
 464 262 l 1,13,-1
 464 856 l 1,14,-1
 136 856 l 1,15,-1
 136 -4 l 1,16,-1
 28 -4 l 1,17,-1
 28 964 l 1,18,-1
 864 964 l 1,19,-1
 864 856 l 1,20,-1
 574 856 l 1,21,-1
 574 590 l 1,22,23
 640 644 640 644 730 646 c 0,24,25
 844 648 844 648 937 567 c 128,-1,26
 1030 486 1030 486 1032 372 c 0,27,28
 1034 194 1034 194 922 106 c 1,29,-1
 1380 104 l 1,30,-1
 1380 -4 l 1,0,-1
EndSplineSet
EndChar

StartChar: tm_four
Encoding: 3050 3050 100
Width: 1466
GlyphClass: 2
Flags: W
LayerCount: 2
Fore
SplineSet
1414 468 m 1,0,-1
 792 468 l 1,1,-1
 792 286 l 2,2,3
 792 146 792 146 686 68 c 0,4,5
 592 -2 592 -2 446 -4 c 0,6,7
 282 -6 282 -6 162 94 c 0,8,9
 34 200 34 200 32 360 c 0,10,11
 32 444 32 444 74 508 c 0,12,13
 124 578 124 578 204 578 c 2,14,-1
 250 578 l 1,15,-1
 250 964 l 1,16,-1
 1110 964 l 1,17,-1
 1110 856 l 1,18,-1
 792 856 l 1,19,-1
 792 578 l 1,20,-1
 1304 576 l 1,21,-1
 1304 958 l 1,22,-1
 1414 958 l 1,23,-1
 1414 468 l 1,0,-1
684 578 m 1,24,-1
 684 856 l 1,25,-1
 360 856 l 1,26,-1
 360 578 l 1,27,-1
 684 578 l 1,24,-1
684 336 m 2,28,-1
 684 468 l 1,29,-1
 250 468 l 2,30,31
 208 468 208 468 178 426 c 1,32,-1
 162 390 l 1,33,34
 162 366 162 366 152 336 c 1,35,36
 152 246 152 246 256 172 c 0,37,38
 350 106 350 106 446 106 c 0,39,40
 684 106 684 106 684 336 c 2,28,-1
EndSplineSet
EndChar

StartChar: tm_five
Encoding: 3051 3051 101
Width: 1762
GlyphClass: 2
Flags: W
LayerCount: 2
Fore
SplineSet
1640 94 m 0,0,1
 1642 -184 1642 -184 1392 -372 c 0,2,3
 1164 -544 1164 -544 878 -546 c 0,4,5
 540 -548 540 -548 296 -330 c 0,6,7
 42 -102 42 -102 32 226 c 2,8,-1
 30 290 l 2,9,10
 24 462 24 462 76 620 c 0,11,12
 144 830 144 830 262 926 c 0,13,14
 274 938 274 938 292 938 c 0,15,16
 340 938 340 938 342 888 c 1,17,-1
 336 868 l 1,18,19
 126 638 126 638 138 294 c 2,20,-1
 140 238 l 2,21,22
 152 -82 152 -82 370 -262 c 0,23,24
 566 -424 566 -424 868 -426 c 0,25,26
 1110 -428 1110 -428 1308 -292 c 0,27,28
 1530 -140 1530 -140 1532 94 c 0,29,30
 1534 214 1534 214 1472 320 c 0,31,32
 1402 444 1402 444 1290 446 c 0,33,34
 1152 448 1152 448 1074 296 c 1,35,-1
 1074 -4 l 1,36,-1
 964 -4 l 1,37,-1
 964 856 l 1,38,-1
 684 856 l 1,39,-1
 684 -4 l 1,40,-1
 578 -4 l 1,41,-1
 578 964 l 1,42,-1
 1352 964 l 1,43,-1
 1352 856 l 1,44,-1
 1074 856 l 1,45,-1
 1074 430 l 1,46,47
 1086 470 1086 470 1170 518 c 0,48,49
 1206 538 1206 538 1234 542 c 2,50,-1
 1300 550 l 1,51,52
 1446 550 1446 550 1554 412 c 1,53,54
 1638 278 1638 278 1640 94 c 0,0,1
EndSplineSet
EndChar

StartChar: tm_six
Encoding: 3052 3052 102
Width: 1992
GlyphClass: 2
Flags: W
LayerCount: 2
Fore
SplineSet
1862 476 m 1,0,-1
 1666 476 l 1,1,-1
 1666 -4 l 1,2,-1
 1556 -4 l 1,3,-1
 1556 476 l 1,4,-1
 1278 476 l 1,5,-1
 1278 -4 l 1,6,-1
 1170 -4 l 1,7,-1
 1170 90 l 2,8,9
 1170 218 1170 218 1156 286 c 1,10,11
 1158 370 1158 370 1104 419 c 128,-1,12
 1050 468 1050 468 964 468 c 2,13,-1
 792 468 l 1,14,-1
 792 286 l 2,15,16
 792 146 792 146 686 68 c 0,17,18
 592 -2 592 -2 446 -4 c 0,19,20
 282 -6 282 -6 162 94 c 0,21,22
 34 200 34 200 32 360 c 0,23,24
 32 438 32 438 78 504 c 0,25,26
 130 578 130 578 204 578 c 2,27,-1
 250 578 l 1,28,-1
 250 964 l 1,29,-1
 1110 964 l 1,30,-1
 1110 856 l 1,31,-1
 792 856 l 1,32,-1
 792 578 l 1,33,-1
 1012 578 l 2,34,35
 1094 578 1094 578 1170 508 c 1,36,-1
 1170 584 l 1,37,-1
 1862 584 l 1,38,-1
 1862 476 l 1,0,-1
684 578 m 1,39,-1
 684 856 l 1,40,-1
 360 856 l 1,41,-1
 360 578 l 1,42,-1
 684 578 l 1,39,-1
684 336 m 2,43,-1
 684 468 l 1,44,-1
 250 468 l 2,45,46
 222 468 222 468 180 424 c 1,47,48
 152 384 152 384 152 336 c 0,49,50
 150 244 150 244 254 172 c 0,51,52
 350 106 350 106 446 106 c 0,53,54
 684 106 684 106 684 336 c 2,43,-1
EndSplineSet
EndChar

StartChar: tm_seven
Encoding: 3053 3053 103
Width: 1488
GlyphClass: 2
Flags: W
LayerCount: 2
Fore
SplineSet
1430 832 m 1,0,-1
 1070 832 l 1,1,-1
 1070 -4 l 1,2,-1
 950 -4 l 1,3,-1
 950 832 l 1,4,-1
 536 832 l 2,5,6
 394 832 394 832 268 724 c 0,7,8
 254 712 254 712 180 604 c 1,9,-1
 156 538 l 1,10,-1
 148 468 l 1,11,12
 238 594 238 594 426 598 c 0,13,14
 560 600 560 600 644 521 c 128,-1,15
 728 442 728 442 730 308 c 0,16,17
 732 170 732 170 630 76 c 0,18,19
 544 -2 544 -2 442 -4 c 0,20,21
 254 -6 254 -6 138 134 c 0,22,23
 30 266 30 266 28 458 c 0,24,25
 26 666 26 666 176 810 c 128,-1,26
 326 954 326 954 536 954 c 2,27,-1
 1430 954 l 1,28,-1
 1430 832 l 1,0,-1
622 286 m 0,29,30
 622 348 622 348 562 413 c 128,-1,31
 502 478 502 478 442 480 c 0,32,33
 364 482 364 482 300 423 c 128,-1,34
 236 364 236 364 234 286 c 0,35,36
 232 220 232 220 290 156 c 1,37,38
 344 114 344 114 422 112 c 0,39,40
 504 110 504 110 563 158 c 128,-1,41
 622 206 622 206 622 286 c 0,29,30
EndSplineSet
EndChar

StartChar: tm_eight
Encoding: 3054 3054 104
Width: 2036
GlyphClass: 2
Flags: W
LayerCount: 2
Fore
SplineSet
1922 -320 m 1,0,-1
 1816 -320 l 1,1,-1
 1816 140 l 1,2,-1
 1494 140 l 1,3,4
 1384 -52 1384 -52 1170 -158 c 0,5,6
 974 -256 974 -256 738 -258 c 0,7,8
 522 -260 522 -260 296 -156 c 0,9,10
 26 -32 26 -32 24 164 c 0,11,12
 22 262 22 262 180 262 c 2,13,-1
 1420 262 l 1,14,15
 1452 360 1452 360 1454 468 c 0,16,17
 1458 614 1458 614 1353 737 c 128,-1,18
 1248 860 1248 860 1104 862 c 0,19,20
 1080 862 1080 862 1004 844 c 1,21,22
 978 844 978 844 920 790 c 0,23,24
 868 744 868 744 848 712 c 1,25,26
 842 684 842 684 830 626 c 1,27,28
 830 574 830 574 862 540 c 0,29,30
 942 452 942 452 978 436 c 0,31,32
 988 432 988 432 1026 406 c 0,33,34
 1058 382 1058 382 1070 382 c 0,35,36
 1076 382 1076 382 1082 388 c 1,37,38
 1080 360 1080 360 1094 334 c 0,39,40
 1098 328 1098 328 1116 304 c 1,41,42
 1114 300 1114 300 1110 298 c 0,43,44
 1094 284 1094 284 1074 284 c 0,45,46
 1052 284 1052 284 1018 300 c 2,47,-1
 950 332 l 2,48,49
 886 358 886 358 770 478 c 1,50,51
 716 552 716 552 714 648 c 0,52,53
 712 798 712 798 856 888 c 0,54,55
 974 962 974 962 1114 964 c 0,56,57
 1318 968 1318 968 1446 810 c 0,58,59
 1564 668 1564 668 1574 458 c 1,60,-1
 1568 356 l 2,61,62
 1566 336 1566 336 1560 312 c 2,63,-1
 1546 262 l 1,64,-1
 1816 262 l 1,65,-1
 1816 942 l 1,66,-1
 1922 942 l 1,67,-1
 1922 -320 l 1,0,-1
1360 140 m 1,68,-1
 144 140 l 1,69,70
 186 8 186 8 378 -76 c 0,71,72
 542 -148 542 -148 726 -148 c 0,73,74
 916 -148 916 -148 1080 -80 c 0,75,76
 1266 -4 1266 -4 1360 140 c 1,68,-1
EndSplineSet
EndChar

StartChar: tm_nine
Encoding: 3055 3055 105
Width: 1928
GlyphClass: 2
Flags: W
LayerCount: 2
Fore
SplineSet
1816 -4 m 1,0,-1
 1528 -4 l 1,1,-1
 1528 102 l 1,2,3
 1662 158 1662 158 1664 386 c 0,4,5
 1664 492 1664 492 1560 566 c 0,6,7
 1468 632 1468 632 1356 634 c 0,8,9
 1236 636 1236 636 1168 558 c 1,10,11
 1272 558 1272 558 1358 462 c 1,12,13
 1418 378 1418 378 1420 256 c 0,14,15
 1422 140 1422 140 1360 65 c 128,-1,16
 1298 -10 1298 -10 1184 -12 c 0,17,18
 1034 -14 1034 -14 960 86 c 1,19,-1
 938 126 l 2,20,21
 930 146 930 146 914 184 c 1,22,23
 900 240 900 240 898 316 c 0,24,25
 896 396 896 396 932 468 c 1,26,-1
 786 468 l 1,27,-1
 786 286 l 2,28,29
 786 146 786 146 676 68 c 0,30,31
 580 -2 580 -2 434 -4 c 0,32,33
 272 -6 272 -6 152 94 c 0,34,35
 24 200 24 200 24 360 c 0,36,37
 24 444 24 444 68 506 c 0,38,39
 118 578 118 578 196 578 c 2,40,-1
 242 578 l 1,41,-1
 242 964 l 1,42,-1
 1102 964 l 1,43,-1
 1102 856 l 1,44,-1
 786 856 l 1,45,-1
 786 578 l 1,46,-1
 998 578 l 1,47,48
 1138 748 1138 748 1378 750 c 0,49,50
 1540 752 1540 752 1663 621 c 128,-1,51
 1786 490 1786 490 1786 326 c 0,52,53
 1786 226 1786 226 1714 106 c 1,54,-1
 1804 106 l 1,55,-1
 1816 -4 l 1,0,-1
1296 282 m 1,56,57
 1278 470 1278 470 1098 472 c 0,58,59
 1078 472 1078 472 1040 422 c 1,60,61
 1016 374 1016 374 1016 304 c 0,62,63
 1016 108 1016 108 1176 106 c 0,64,65
 1296 104 1296 104 1296 282 c 1,56,57
676 578 m 1,66,-1
 676 856 l 1,67,-1
 352 856 l 1,68,-1
 352 578 l 1,69,-1
 676 578 l 1,66,-1
676 336 m 2,70,-1
 676 468 l 1,71,-1
 242 468 l 2,72,73
 200 468 200 468 170 426 c 1,74,-1
 154 390 l 1,75,76
 154 366 154 366 144 336 c 1,77,78
 144 246 144 246 246 174 c 0,79,80
 340 106 340 106 434 106 c 0,81,82
 676 106 676 106 676 336 c 2,70,-1
EndSplineSet
EndChar

StartChar: tm_ten
Encoding: 3056 3056 106
Width: 1638
GlyphClass: 2
Flags: W
LayerCount: 2
Fore
SplineSet
1526 522 m 0,0,1
 1526 362 1526 362 1470 226 c 0,2,3
 1408 72 1408 72 1286 -4 c 0,4,5
 1090 -126 1090 -126 850 -124 c 256,6,7
 610 -122 610 -122 534 0 c 0,8,9
 512 36 512 36 478 132 c 1,10,11
 434 72 434 72 353 31 c 128,-1,12
 272 -10 272 -10 198 -10 c 0,13,14
 28 -12 28 -12 28 140 c 2,15,-1
 28 964 l 1,16,-1
 136 964 l 1,17,-1
 136 204 l 2,18,19
 136 106 136 106 222 104 c 0,20,21
 304 102 304 102 372 174 c 0,22,23
 432 238 432 238 454 324 c 1,24,-1
 454 964 l 1,25,-1
 570 966 l 1,26,27
 566 850 566 850 570 598 c 0,28,29
 568 528 568 528 576 350 c 1,30,31
 592 186 592 186 622 110 c 0,32,33
 662 14 662 14 758 0 c 0,34,35
 828 -10 828 -10 892 -10 c 0,36,37
 1224 -10 1224 -10 1342 242 c 0,38,39
 1404 376 1404 376 1404 530 c 0,40,41
 1404 878 1404 878 1096 1078 c 0,42,43
 954 1170 954 1170 648 1186 c 1,44,-1
 644 1294 l 1,45,46
 1000 1260 1000 1260 1164 1162 c 0,47,48
 1286 1088 1286 1088 1350 1012 c 0,49,50
 1526 810 1526 810 1526 522 c 0,0,1
EndSplineSet
EndChar

StartChar: tm_hundred
Encoding: 3057 3057 107
Width: 1476
GlyphClass: 2
Flags: W
LayerCount: 2
Fore
SplineSet
1392 856 m 1,0,-1
 1116 856 l 1,1,-1
 1116 8 l 1,2,-1
 1006 12 l 1,3,-1
 1006 856 l 1,4,-1
 728 856 l 1,5,-1
 728 -4 l 1,6,-1
 620 -4 l 1,7,-1
 620 816 l 1,8,9
 530 838 530 838 444 838 c 0,10,11
 264 838 264 838 204 720 c 0,12,13
 164 640 164 640 164 436 c 256,14,15
 164 232 164 232 208 -4 c 1,16,-1
 100 -4 l 1,17,18
 58 242 58 242 56 446 c 0,19,20
 54 788 54 788 170 872 c 0,21,22
 256 934 256 934 456 934 c 0,23,24
 540 934 540 934 620 924 c 1,25,-1
 620 964 l 1,26,-1
 1392 964 l 1,27,-1
 1392 856 l 1,0,-1
EndSplineSet
EndChar

StartChar: tm_thousand
Encoding: 3058 3058 108
Width: 1682
GlyphClass: 2
Flags: W
LayerCount: 2
Fore
SplineSet
1606 48 m 0,0,1
 1606 -68 1606 -68 1542 -136 c 0,2,3
 1450 -232 1450 -232 1302 -288 c 0,4,5
 1166 -340 1166 -340 1024 -340 c 0,6,7
 952 -340 952 -340 807 -323 c 128,-1,8
 662 -306 662 -306 590 -306 c 0,9,10
 466 -306 466 -306 430 -368 c 1,11,12
 400 -450 400 -450 398 -452 c 0,13,14
 372 -504 372 -504 336 -508 c 0,15,16
 262 -516 262 -516 220 -434 c 0,17,18
 192 -380 192 -380 192 -362 c 0,19,20
 192 -324 192 -324 264 -240 c 0,21,22
 302 -196 302 -196 472 -196 c 0,23,24
 568 -196 568 -196 762 -210 c 128,-1,25
 956 -224 956 -224 1052 -224 c 0,26,27
 1212 -224 1212 -224 1272 -190 c 2,28,-1
 1434 -98 l 1,29,30
 1496 -52 1496 -52 1496 36 c 0,31,32
 1496 118 1496 118 1426 166 c 0,33,34
 1364 208 1364 208 1278 210 c 0,35,36
 1220 212 1220 212 1148 166 c 1,37,-1
 1148 -4 l 1,38,-1
 1028 -4 l 1,39,-1
 1028 468 l 1,40,-1
 796 468 l 1,41,-1
 796 286 l 2,42,43
 796 146 796 146 690 68 c 0,44,45
 596 -2 596 -2 450 -4 c 0,46,47
 286 -6 286 -6 166 94 c 0,48,49
 38 200 38 200 36 360 c 0,50,51
 36 444 36 444 78 508 c 0,52,53
 128 578 128 578 208 578 c 2,54,-1
 254 578 l 1,55,-1
 254 964 l 1,56,-1
 1114 964 l 1,57,-1
 1114 856 l 1,58,-1
 796 856 l 1,59,-1
 796 578 l 1,60,-1
 1258 578 l 1,61,-1
 1258 468 l 1,62,-1
 1148 468 l 1,63,-1
 1148 288 l 1,64,65
 1226 324 1226 324 1296 324 c 0,66,67
 1420 324 1420 324 1510 250 c 0,68,69
 1606 170 1606 170 1606 48 c 0,0,1
692 578 m 1,70,-1
 692 856 l 1,71,-1
 364 856 l 1,72,-1
 364 578 l 1,73,-1
 692 578 l 1,70,-1
692 336 m 2,74,-1
 692 468 l 1,75,-1
 254 468 l 2,76,77
 212 468 212 468 182 426 c 1,78,-1
 166 390 l 1,79,80
 166 366 166 366 156 336 c 1,81,82
 156 246 156 246 260 172 c 0,83,84
 354 106 354 106 450 106 c 0,85,86
 692 106 692 106 692 336 c 2,74,-1
EndSplineSet
EndChar

StartChar: zerowidthnonjoiner
Encoding: 8204 8204 109
Width: 0
GlyphClass: 2
Flags: W
LayerCount: 2
Fore
SplineSet
315 1225 m 1,0,-1
 -34 -516 l 1,1,-1
 -103 -516 l 1,2,-1
 244 1225 l 1,3,-1
 315 1225 l 1,0,-1
EndSplineSet
EndChar

StartChar: zerowidthjoiner
Encoding: 8205 8205 110
Width: 0
GlyphClass: 2
Flags: W
LayerCount: 2
Fore
SplineSet
415 997 m 1,0,-1
 363 953 l 1,1,-1
 270 1073 l 1,2,-1
 -24 -441 l 1,3,-1
 -87 -441 l 1,4,-1
 206 1073 l 1,5,-1
 65 953 l 1,6,-1
 32 997 l 1,7,-1
 210 1145 l 1,8,-1
 89 1292 l 1,9,-1
 140 1334 l 1,10,-1
 260 1185 l 1,11,-1
 437 1334 l 1,12,-1
 472 1292 l 1,13,-1
 294 1145 l 1,14,-1
 415 997 l 1,0,-1
EndSplineSet
EndChar

StartChar: u2013
Encoding: 8211 8211 111
Width: 722
GlyphClass: 2
Flags: W
LayerCount: 2
Fore
SplineSet
733 319 m 1,0,-1
 -12 319 l 1,1,-1
 -12 370 l 1,2,-1
 733 370 l 1,3,-1
 733 319 l 1,0,-1
EndSplineSet
EndChar

StartChar: u2014
Encoding: 8212 8212 112
Width: 1284
GlyphClass: 2
Flags: W
LayerCount: 2
Fore
SplineSet
1296 318 m 1,0,-1
 -13 319 l 1,1,-1
 -13 371 l 1,2,-1
 1296 370 l 1,3,-1
 1296 318 l 1,0,-1
EndSplineSet
EndChar

StartChar: u2018
Encoding: 65539 -1 113
Width: 666
GlyphClass: 2
Flags: W
LayerCount: 2
Fore
SplineSet
478 962 m 1,0,1
 478 912 478 912 448 882 c 1,2,-1
 402 856 l 1,3,-1
 350 848 l 1,4,-1
 320 850 l 1,5,-1
 284 862 l 2,6,7
 260 874 260 874 238 896 c 1,8,-1
 192 966 l 1,9,10
 180 1000 180 1000 180 1040 c 0,11,12
 180 1160 180 1160 266 1250 c 1,13,-1
 336 1308 l 1,14,-1
 432 1354 l 1,15,-1
 432 1312 l 1,16,-1
 348 1252 l 1,17,-1
 296 1200 l 1,18,-1
 276 1158 l 1,19,-1
 270 1110 l 1,20,-1
 272 1082 l 2,21,22
 276 1068 276 1068 282 1064 c 2,23,-1
 292 1052 l 1,24,-1
 308 1048 l 1,25,-1
 318 1050 l 1,26,-1
 334 1056 l 1,27,-1
 358 1062 l 1,28,-1
 378 1064 l 1,29,30
 420 1064 420 1064 446 1038 c 1,31,32
 458 1032 458 1032 470 1002 c 1,33,-1
 478 962 l 1,0,1
EndSplineSet
EndChar

StartChar: u2019
Encoding: 65540 -1 114
Width: 666
GlyphClass: 2
Flags: W
LayerCount: 2
Fore
SplineSet
486 1162 m 1,0,1
 486 1048 486 1048 398 952 c 1,2,-1
 368 926 l 1,3,-1
 326 894 l 1,4,-1
 232 848 l 1,5,-1
 232 894 l 1,6,-1
 316 950 l 1,7,-1
 342 974 l 1,8,-1
 368 1006 l 1,9,-1
 386 1044 l 1,10,-1
 394 1094 l 2,11,12
 394 1114 394 1114 390 1122 c 2,13,-1
 382 1138 l 1,14,-1
 370 1150 l 1,15,-1
 358 1154 l 1,16,-1
 344 1152 l 1,17,-1
 330 1146 l 1,18,-1
 306 1140 l 1,19,-1
 288 1138 l 1,20,-1
 250 1144 l 2,21,22
 234 1150 234 1150 218 1166 c 1,23,-1
 196 1200 l 1,24,-1
 188 1240 l 1,25,-1
 194 1282 l 1,26,27
 210 1322 210 1322 254 1340 c 1,28,-1
 316 1354 l 1,29,30
 348 1354 348 1354 370 1340 c 2,31,-1
 434 1298 l 2,32,33
 460 1282 460 1282 472 1236 c 2,34,-1
 482 1200 l 1,35,-1
 486 1162 l 1,0,1
EndSplineSet
EndChar

StartChar: u201C
Encoding: 65541 -1 115
Width: 886
GlyphClass: 2
Flags: W
LayerCount: 2
Fore
SplineSet
830 968 m 1,0,1
 830 944 830 944 822 926 c 2,2,-1
 812 904 l 1,3,-1
 792 884 l 1,4,-1
 750 858 l 1,5,-1
 700 850 l 1,6,-1
 670 852 l 1,7,-1
 636 864 l 2,8,9
 612 876 612 876 590 898 c 1,10,-1
 544 968 l 1,11,12
 530 1006 530 1006 532 1044 c 2,13,-1
 534 1096 l 2,14,15
 536 1142 536 1142 593 1222 c 128,-1,16
 650 1302 650 1302 784 1350 c 1,17,-1
 784 1314 l 1,18,-1
 746 1290 l 1,19,-1
 702 1260 l 2,20,21
 648 1222 648 1222 630 1162 c 1,22,-1
 622 1106 l 1,23,-1
 624 1082 l 1,24,-1
 632 1066 l 1,25,-1
 644 1054 l 1,26,-1
 656 1052 l 1,27,-1
 668 1054 l 1,28,-1
 708 1066 l 1,29,-1
 730 1068 l 2,30,31
 774 1068 774 1068 800 1038 c 1,32,-1
 822 1006 l 1,33,-1
 830 968 l 1,0,1
362 964 m 1,34,35
 362 938 362 938 354 919 c 128,-1,36
 346 900 346 900 326 884 c 2,37,-1
 286 858 l 1,38,-1
 236 850 l 1,39,-1
 206 852 l 1,40,-1
 192 854 l 1,41,-1
 166 866 l 1,42,-1
 120 904 l 1,43,-1
 78 970 l 1,44,-1
 68 1006 l 1,45,-1
 64 1046 l 1,46,-1
 64 1082 l 1,47,-1
 66 1108 l 2,48,49
 68 1124 68 1124 70 1126 c 2,50,-1
 82 1150 l 2,51,52
 132 1250 132 1250 208 1302 c 1,53,-1
 258 1328 l 1,54,-1
 318 1354 l 1,55,-1
 318 1314 l 1,56,-1
 276 1292 l 1,57,-1
 244 1268 l 1,58,-1
 194 1220 l 1,59,-1
 166 1168 l 1,60,-1
 158 1114 l 1,61,-1
 160 1084 l 2,62,63
 160 1072 160 1072 166 1066 c 2,64,-1
 176 1054 l 1,65,-1
 188 1052 l 1,66,-1
 202 1054 l 1,67,-1
 242 1066 l 1,68,-1
 262 1068 l 1,69,70
 306 1068 306 1068 332 1038 c 1,71,-1
 354 1004 l 1,72,-1
 362 964 l 1,34,35
EndSplineSet
EndChar

StartChar: u201D
Encoding: 65542 -1 116
Width: 886
GlyphClass: 2
Flags: W
LayerCount: 2
Fore
SplineSet
830 1352 m 1,0,1
 830 1280 830 1280 814 1256 c 1,2,-1
 796 1216 l 1,3,4
 782 1172 782 1172 686 1096 c 1,5,-1
 650 1076 l 1,6,-1
 578 1044 l 1,7,-1
 578 1086 l 1,8,9
 624 1108 624 1108 652 1130 c 1,10,-1
 700 1180 l 1,11,-1
 714 1200 l 1,12,-1
 728 1232 l 1,13,-1
 738 1268 l 1,14,-1
 738 1286 l 2,15,16
 738 1306 738 1306 734 1314 c 2,17,-1
 728 1334 l 1,18,-1
 718 1344 l 1,19,-1
 706 1346 l 1,20,-1
 690 1344 l 1,21,-1
 672 1338 l 1,22,23
 658 1338 658 1338 650 1334 c 2,24,-1
 632 1332 l 1,25,-1
 594 1338 l 1,26,-1
 562 1362 l 1,27,-1
 540 1396 l 1,28,-1
 534 1434 l 1,29,-1
 540 1478 l 2,30,31
 544 1490 544 1490 564 1512 c 1,32,-1
 610 1540 l 1,33,-1
 658 1548 l 1,34,35
 692 1548 692 1548 722 1535 c 128,-1,36
 752 1522 752 1522 776 1494 c 2,37,-1
 796 1466 l 1,38,-1
 816 1428 l 1,39,-1
 826 1392 l 1,40,-1
 830 1352 l 1,0,1
362 1352 m 1,41,-1
 360 1300 l 2,42,43
 358 1252 358 1252 296 1166 c 0,44,45
 278 1136 278 1136 222 1096 c 0,46,47
 196 1078 196 1078 112 1044 c 1,48,-1
 112 1086 l 1,49,-1
 194 1138 l 1,50,-1
 218 1160 l 1,51,-1
 240 1186 l 1,52,-1
 264 1236 l 1,53,-1
 272 1292 l 2,54,55
 272 1312 272 1312 268 1316 c 2,56,-1
 262 1332 l 1,57,-1
 250 1342 l 1,58,-1
 238 1346 l 1,59,-1
 224 1344 l 1,60,-1
 208 1338 l 1,61,62
 188 1338 188 1338 184 1334 c 2,63,-1
 164 1332 l 1,64,-1
 126 1338 l 2,65,66
 110 1344 110 1344 94 1360 c 1,67,-1
 72 1394 l 1,68,-1
 64 1432 l 1,69,70
 64 1458 64 1458 71 1476 c 128,-1,71
 78 1494 78 1494 98 1512 c 128,-1,72
 118 1530 118 1530 144 1540 c 1,73,-1
 194 1548 l 1,74,75
 226 1548 226 1548 254 1534 c 1,76,77
 318 1516 318 1516 348 1428 c 1,78,-1
 362 1352 l 1,41,-1
EndSplineSet
EndChar

StartChar: u2026
Encoding: 8230 8230 117
Width: 1283
GlyphClass: 2
Flags: W
LayerCount: 2
Fore
SplineSet
265 136 m 0,0,1
 298 136 298 136 320.5 114 c 128,-1,2
 343 92 343 92 343 58 c 0,3,4
 343 26 343 26 320.5 3 c 128,-1,5
 298 -20 298 -20 265 -20 c 0,6,7
 233 -20 233 -20 210 3 c 128,-1,8
 187 26 187 26 187 58 c 0,9,10
 187 92 187 92 210 114 c 128,-1,11
 233 136 233 136 265 136 c 0,0,1
638 136 m 256,12,13
 670 136 670 136 693 114 c 128,-1,14
 716 92 716 92 716 58 c 0,15,16
 716 26 716 26 692.5 3 c 128,-1,17
 669 -20 669 -20 638 -20 c 0,18,19
 606 -20 606 -20 583 3 c 128,-1,20
 560 26 560 26 560 58 c 0,21,22
 560 92 560 92 583 114 c 128,-1,23
 606 136 606 136 638 136 c 256,12,13
1010 136 m 0,24,25
 1043 136 1043 136 1066 114 c 128,-1,26
 1089 92 1089 92 1089 58 c 0,27,28
 1089 26 1089 26 1065.5 3 c 128,-1,29
 1042 -20 1042 -20 1010 -20 c 256,30,31
 978 -20 978 -20 955.5 3 c 128,-1,32
 933 26 933 26 933 58 c 0,33,34
 933 92 933 92 955.5 114 c 128,-1,35
 978 136 978 136 1010 136 c 0,24,25
EndSplineSet
EndChar

StartChar: u2212
Encoding: 8722 8722 118
Width: 974
GlyphClass: 2
Flags: W
LayerCount: 2
Fore
SplineSet
133 450 m 1,0,-1
 133 508 l 1,1,-1
 894 508 l 1,2,-1
 894 450 l 1,3,-1
 133 450 l 1,0,-1
EndSplineSet
EndChar

StartChar: u25CC
Encoding: 9676 9676 119
Width: 1167
GlyphClass: 2
Flags: W
LayerCount: 2
Fore
SplineSet
654 665 m 0,0,1
 626 665 626 665 612 679 c 128,-1,2
 598 693 598 693 598 724 c 0,3,4
 598 746 598 746 615 762.5 c 128,-1,5
 632 779 632 779 654 779 c 0,6,7
 683 779 683 779 697.5 765 c 128,-1,8
 712 751 712 751 712 724 c 0,9,10
 712 693 712 693 697.5 679 c 128,-1,11
 683 665 683 665 654 665 c 0,0,1
840 616 m 0,12,13
 811 616 811 616 796.5 630.5 c 128,-1,14
 782 645 782 645 782 674 c 0,15,16
 782 701 782 701 796.5 715 c 128,-1,17
 811 729 811 729 840 729 c 0,18,19
 862 729 862 729 879 713 c 128,-1,20
 896 697 896 697 896 674 c 0,21,22
 896 645 896 645 882 630.5 c 128,-1,23
 868 616 868 616 840 616 c 0,12,13
470 616 m 0,24,25
 442 616 442 616 428 630.5 c 128,-1,26
 414 645 414 645 414 674 c 0,27,28
 414 697 414 697 431 713 c 128,-1,29
 448 729 448 729 470 729 c 0,30,31
 494 729 494 729 510 713 c 128,-1,32
 526 697 526 697 526 674 c 0,33,34
 526 645 526 645 512.5 630.5 c 128,-1,35
 499 616 499 616 470 616 c 0,24,25
973 482 m 0,36,37
 951 482 951 482 933.5 498 c 128,-1,38
 916 514 916 514 916 538 c 0,39,40
 916 567 916 567 930.5 581 c 128,-1,41
 945 595 945 595 973 595 c 256,42,43
 1001 595 1001 595 1014.5 581 c 128,-1,44
 1028 567 1028 567 1028 538 c 0,45,46
 1028 514 1028 514 1012 498 c 128,-1,47
 996 482 996 482 973 482 c 0,36,37
336 482 m 0,48,49
 307 482 307 482 293 495.5 c 128,-1,50
 279 509 279 509 279 538 c 256,51,52
 279 567 279 567 293 581 c 128,-1,53
 307 595 307 595 336 595 c 0,54,55
 364 595 364 595 378 581 c 128,-1,56
 392 567 392 567 392 538 c 0,57,58
 392 514 392 514 375 498 c 128,-1,59
 358 482 358 482 336 482 c 0,48,49
1024 298 m 0,60,61
 994 298 994 298 979.5 311.5 c 128,-1,62
 965 325 965 325 965 354 c 0,63,64
 965 382 965 382 979.5 396 c 128,-1,65
 994 410 994 410 1024 410 c 0,66,67
 1046 410 1046 410 1063 393 c 128,-1,68
 1080 376 1080 376 1080 354 c 0,69,70
 1080 331 1080 331 1063 314.5 c 128,-1,71
 1046 298 1046 298 1024 298 c 0,60,61
287 298 m 0,72,73
 257 298 257 298 243 311.5 c 128,-1,74
 229 325 229 325 229 354 c 0,75,76
 229 382 229 382 243 396 c 128,-1,77
 257 410 257 410 287 410 c 0,78,79
 310 410 310 410 326.5 393 c 128,-1,80
 343 376 343 376 343 354 c 0,81,82
 343 331 343 331 326.5 314.5 c 128,-1,83
 310 298 310 298 287 298 c 0,72,73
973 112 m 256,84,85
 945 112 945 112 930.5 126.5 c 128,-1,86
 916 141 916 141 916 169 c 0,87,88
 916 193 916 193 933.5 209.5 c 128,-1,89
 951 226 951 226 973 226 c 0,90,91
 996 226 996 226 1012 209.5 c 128,-1,92
 1028 193 1028 193 1028 169 c 0,93,94
 1028 141 1028 141 1014.5 126.5 c 128,-1,95
 1001 112 1001 112 973 112 c 256,84,85
336 112 m 0,96,97
 307 112 307 112 293 126.5 c 128,-1,98
 279 141 279 141 279 169 c 0,99,100
 279 198 279 198 293 212 c 128,-1,101
 307 226 307 226 336 226 c 0,102,103
 358 226 358 226 375 209.5 c 128,-1,104
 392 193 392 193 392 169 c 0,105,106
 392 141 392 141 378 126.5 c 128,-1,107
 364 112 364 112 336 112 c 0,96,97
840 -22 m 0,108,109
 811 -22 811 -22 796.5 -8 c 128,-1,110
 782 6 782 6 782 34 c 0,111,112
 782 63 782 63 796.5 78 c 128,-1,113
 811 93 811 93 840 93 c 0,114,115
 863 93 863 93 879.5 75 c 128,-1,116
 896 57 896 57 896 34 c 256,117,118
 896 11 896 11 879 -5.5 c 128,-1,119
 862 -22 862 -22 840 -22 c 0,108,109
470 -22 m 0,120,121
 448 -22 448 -22 431 -5.5 c 128,-1,122
 414 11 414 11 414 34 c 256,123,124
 414 57 414 57 430.5 75 c 128,-1,125
 447 93 447 93 470 93 c 0,126,127
 495 93 495 93 510.5 75 c 128,-1,128
 526 57 526 57 526 34 c 256,129,130
 526 11 526 11 510 -5.5 c 128,-1,131
 494 -22 494 -22 470 -22 c 0,120,121
654 -72 m 0,132,133
 632 -72 632 -72 615 -55 c 128,-1,134
 598 -38 598 -38 598 -16 c 0,135,136
 598 14 598 14 612 28.5 c 128,-1,137
 626 43 626 43 654 43 c 0,138,139
 683 43 683 43 697.5 28.5 c 128,-1,140
 712 14 712 14 712 -16 c 0,141,142
 712 -44 712 -44 697.5 -58 c 128,-1,143
 683 -72 683 -72 654 -72 c 0,132,133
EndSplineSet
EndChar

StartChar: tm_k_ikaar
Encoding: 65543 -1 120
Width: 1528
GlyphClass: 2
Flags: W
LayerCount: 2
Fore
SplineSet
1440 1136 m 2,0,-1
 1434 1050 l 1,1,-1
 1368 508 l 1,2,-1
 1290 508 l 1,3,-1
 1358 1074 l 1,4,5
 1364 1174 1364 1174 1278 1250 c 0,6,7
 1198 1320 1198 1320 1074 1320 c 0,8,9
 984 1320 984 1320 902 1260 c 0,10,11
 812 1194 812 1194 812 1106 c 0,12,13
 812 956 812 956 926 926 c 1,14,-1
 1176 926 l 1,15,-1
 1152 868 l 1,16,-1
 914 868 l 1,17,-1
 876 550 l 1,18,-1
 950 550 l 2,19,20
 1100 550 1100 550 1198 486 c 0,21,22
 1312 412 1312 412 1312 270 c 0,23,24
 1312 168 1312 168 1221 75 c 128,-1,25
 1130 -18 1130 -18 1028 -18 c 0,26,27
 958 -18 958 -18 902 32 c 1,28,-1
 902 144 l 1,29,30
 978 144 978 144 1024 193 c 128,-1,31
 1070 242 1070 242 1070 318 c 0,32,33
 1070 390 1070 390 1026 443 c 128,-1,34
 982 496 982 496 902 496 c 2,35,-1
 868 496 l 1,36,-1
 848 348 l 2,37,38
 824 178 824 178 702 76 c 0,39,40
 596 -12 596 -12 454 -12 c 0,41,42
 264 -12 264 -12 150 60 c 0,43,44
 12 146 12 146 12 324 c 0,45,46
 12 550 12 550 270 550 c 2,47,-1
 316 550 l 1,48,-1
 364 926 l 1,49,-1
 800 926 l 1,50,51
 688 1042 688 1042 688 1218 c 0,52,53
 688 1364 688 1364 810 1460 c 0,54,55
 924 1546 924 1546 1074 1546 c 0,56,57
 1238 1546 1238 1546 1340 1434 c 0,58,59
 1452 1308 1452 1308 1440 1136 c 2,0,-1
680 868 m 1,60,-1
 442 868 l 1,61,-1
 398 550 l 1,62,-1
 636 550 l 1,63,-1
 680 868 l 1,60,-1
628 496 m 1,64,-1
 250 496 l 2,65,66
 90 496 90 496 90 324 c 0,67,68
 90 212 90 212 174 148 c 0,69,70
 250 90 250 90 364 90 c 0,71,72
 446 90 446 90 521 164 c 128,-1,73
 596 238 596 238 610 348 c 2,74,-1
 628 496 l 1,64,-1
EndSplineSet
Ligature2: "'psts' Post Base Substitutions lookup 8 subtable" tm_ka tm_ikaar
EndChar

StartChar: tm_ng_ikaar
Encoding: 65544 -1 121
Width: 2042
GlyphClass: 2
Flags: W
LayerCount: 2
Fore
SplineSet
1968 1032 m 2,0,-1
 1960 926 l 1,1,-1
 1894 418 l 1,2,-1
 1816 418 l 1,3,-1
 1886 952 l 1,4,5
 1896 1078 1896 1078 1794 1176 c 0,6,7
 1702 1262 1702 1262 1578 1262 c 256,8,9
 1454 1262 1454 1262 1346 1190 c 0,10,11
 1226 1110 1226 1110 1226 992 c 0,12,13
 1226 908 1226 908 1264 848 c 0,14,15
 1310 778 1310 778 1390 778 c 1,16,-1
 1410 926 l 1,17,-1
 1644 926 l 1,18,-1
 1524 0 l 1,19,-1
 504 0 l 1,20,-1
 528 54 l 1,21,-1
 594 54 l 2,22,23
 690 54 690 54 779 137 c 128,-1,24
 868 220 868 220 868 316 c 0,25,26
 868 374 868 374 823 422 c 128,-1,27
 778 470 778 470 720 470 c 0,28,29
 654 470 654 470 622 402 c 1,30,-1
 594 210 l 1,31,-1
 360 210 l 1,32,-1
 450 868 l 1,33,-1
 210 868 l 1,34,-1
 98 0 l 1,35,-1
 20 0 l 1,36,-1
 132 926 l 1,37,-1
 946 926 l 1,38,-1
 922 868 l 1,39,-1
 684 868 l 1,40,-1
 632 484 l 1,41,42
 698 586 698 586 816 586 c 0,43,44
 926 586 926 586 1016 510 c 128,-1,45
 1106 434 1106 434 1106 324 c 0,46,47
 1106 184 1106 184 958 54 c 1,48,-1
 1296 54 l 1,49,-1
 1378 710 l 1,50,-1
 1366 710 l 2,51,52
 1282 710 1282 710 1214 790 c 0,53,54
 1136 880 1136 880 1136 1016 c 0,55,56
 1136 1224 1136 1224 1265 1356 c 128,-1,57
 1394 1488 1394 1488 1602 1488 c 0,58,59
 1774 1488 1774 1488 1876 1350 c 0,60,61
 1982 1206 1982 1206 1968 1032 c 2,0,-1
EndSplineSet
Ligature2: "'psts' Post Base Substitutions lookup 8 subtable" tm_nga tm_ikaar
EndChar

StartChar: tm_c_ikaar
Encoding: 65545 -1 122
Width: 1528
GlyphClass: 2
Flags: W
LayerCount: 2
Fore
SplineSet
1458 1072 m 1,0,-1
 1454 1050 l 1,1,-1
 1382 508 l 1,2,-1
 1304 508 l 1,3,-1
 1374 1076 l 1,4,5
 1380 1180 1380 1180 1297 1250 c 128,-1,6
 1214 1320 1214 1320 1090 1320 c 0,7,8
 1002 1320 1002 1320 920 1258 c 0,9,10
 832 1192 832 1192 832 1106 c 0,11,12
 832 956 832 956 946 926 c 1,13,-1
 1192 926 l 1,14,-1
 1168 868 l 1,15,-1
 934 868 l 1,16,-1
 890 550 l 1,17,-1
 1168 550 l 1,18,-1
 1148 496 l 1,19,-1
 882 496 l 1,20,-1
 864 348 l 2,21,22
 844 178 844 178 718 76 c 0,23,24
 608 -12 608 -12 468 -12 c 0,25,26
 280 -12 280 -12 166 60 c 0,27,28
 28 148 28 148 28 324 c 0,29,30
 28 550 28 550 290 550 c 2,31,-1
 332 550 l 1,32,-1
 378 926 l 1,33,-1
 820 926 l 1,34,35
 708 1042 708 1042 708 1218 c 0,36,37
 708 1364 708 1364 828 1458 c 0,38,39
 940 1546 940 1546 1090 1546 c 0,40,41
 1260 1546 1260 1546 1364 1422 c 0,42,43
 1458 1304 1458 1304 1458 1130 c 2,44,-1
 1458 1072 l 1,0,-1
696 868 m 1,45,-1
 458 868 l 1,46,-1
 418 550 l 1,47,-1
 652 550 l 1,48,-1
 696 868 l 1,45,-1
644 496 m 1,49,-1
 266 496 l 2,50,51
 106 496 106 496 106 324 c 0,52,53
 106 210 106 210 188 146 c 0,54,55
 260 90 260 90 378 90 c 0,56,57
 466 90 466 90 541 164 c 128,-1,58
 616 238 616 238 628 348 c 2,59,-1
 644 496 l 1,49,-1
EndSplineSet
Ligature2: "'psts' Post Base Substitutions lookup 8 subtable" tm_ca tm_ikaar
EndChar

StartChar: tm_j_ikaar
Encoding: 65546 -1 123
Width: 2148
GlyphClass: 2
Flags: W
LayerCount: 2
Fore
SplineSet
2084 1042 m 2,0,-1
 2082 974 l 1,1,2
 2082 974 2082 974 2082 932 c 1,3,4
 2076 910 2076 910 2074 902 c 2,5,-1
 2004 394 l 1,6,-1
 1926 394 l 1,7,-1
 2000 938 l 1,8,9
 2010 1074 2010 1074 1920 1170 c 0,10,11
 1838 1254 1838 1254 1710 1254 c 0,12,13
 1604 1254 1604 1254 1522 1196 c 0,14,15
 1430 1130 1430 1130 1430 1028 c 0,16,17
 1430 968 1430 968 1462 924 c 1,18,19
 1614 888 1614 888 1702 766 c 128,-1,20
 1790 644 1790 644 1790 484 c 2,21,-1
 1790 460 l 2,22,23
 1790 78 1790 78 1262 78 c 2,24,-1
 458 78 l 2,25,26
 338 78 338 78 245 -19 c 128,-1,27
 152 -116 152 -116 152 -238 c 0,28,29
 152 -330 152 -330 219 -392 c 128,-1,30
 286 -454 286 -454 378 -454 c 2,31,-1
 390 -454 l 2,32,33
 558 -454 558 -454 716 -326 c 2,34,-1
 980 -112 l 1,35,36
 1156 0 1156 0 1394 0 c 0,37,38
 1520 0 1520 0 1602 -66 c 0,39,40
 1688 -138 1688 -138 1688 -262 c 0,41,42
 1688 -390 1688 -390 1590 -476 c 0,43,44
 1502 -554 1502 -554 1364 -566 c 1,45,-1
 1346 -566 l 2,46,47
 1240 -566 1240 -566 1152 -488 c 128,-1,48
 1064 -410 1064 -410 1064 -306 c 0,49,50
 1064 -228 1064 -228 1126 -172 c 1,51,-1
 1168 -196 l 1,52,53
 1140 -234 1140 -234 1140 -288 c 0,54,55
 1140 -350 1140 -350 1174 -398 c 0,56,57
 1212 -454 1212 -454 1270 -454 c 0,58,59
 1348 -454 1348 -454 1396 -388 c 0,60,61
 1438 -328 1438 -328 1438 -246 c 0,62,63
 1438 -172 1438 -172 1400 -121 c 128,-1,64
 1362 -70 1362 -70 1292 -70 c 0,65,66
 1108 -70 1108 -70 960 -198 c 2,67,-1
 682 -438 l 1,68,69
 500 -566 500 -566 290 -566 c 0,70,71
 154 -566 154 -566 44 -478 c 0,72,73
 -74 -382 -74 -382 -74 -250 c 0,74,75
 -74 -110 -74 -110 0 0 c 0,76,77
 88 132 88 132 254 132 c 2,78,-1
 1214 132 l 2,79,80
 1340 132 1340 132 1447 241 c 128,-1,81
 1554 350 1554 350 1554 460 c 2,82,-1
 1554 486 l 2,83,84
 1554 612 1554 612 1488 692 c 0,85,86
 1416 778 1416 778 1292 778 c 0,87,88
 1180 778 1180 778 1090 703 c 128,-1,89
 1000 628 1000 628 988 520 c 2,90,-1
 954 204 l 1,91,-1
 730 204 l 1,92,-1
 764 542 l 1,93,94
 764 666 764 666 658 738 c 0,95,96
 564 800 564 800 434 800 c 0,97,98
 224 800 224 800 176 664 c 1,99,-1
 242 674 l 1,100,-1
 304 678 l 2,101,102
 570 696 570 696 570 460 c 0,103,104
 570 352 570 352 474 282 c 0,105,106
 392 222 392 222 266 222 c 0,107,108
 154 222 154 222 88 298 c 0,109,110
 28 368 28 368 28 484 c 0,111,112
 28 686 28 686 166 808 c 0,113,114
 298 926 298 926 504 926 c 0,115,116
 824 926 824 926 946 664 c 1,117,118
 1098 926 1098 926 1364 926 c 1,119,120
 1328 1004 1328 1004 1328 1160 c 0,121,122
 1328 1300 1328 1300 1446 1392 c 0,123,124
 1556 1476 1556 1476 1700 1476 c 0,125,126
 2096 1476 2096 1476 2084 1042 c 2,0,-1
332 460 m 0,127,128
 332 534 332 534 266 564 c 0,129,130
 248 572 248 572 220 572 c 0,131,132
 170 572 170 572 138 541 c 128,-1,133
 106 510 106 510 106 460 c 0,134,135
 106 316 106 316 230 316 c 0,136,137
 288 316 288 316 316 358 c 1,138,139
 332 390 332 390 332 460 c 0,127,128
EndSplineSet
Ligature2: "'psts' Post Base Substitutions lookup 8 subtable" tm_ja tm_ikaar
EndChar

StartChar: tm_ny_ikaar
Encoding: 65547 -1 124
Width: 2312
GlyphClass: 2
Flags: W
LayerCount: 2
Fore
SplineSet
2252 1134 m 2,0,-1
 2246 1050 l 1,1,-1
 2176 508 l 1,2,-1
 2098 508 l 1,3,-1
 2166 1080 l 1,4,5
 2172 1184 2172 1184 2090 1252 c 128,-1,6
 2008 1320 2008 1320 1882 1320 c 0,7,8
 1794 1320 1794 1320 1710 1256 c 128,-1,9
 1626 1192 1626 1192 1626 1106 c 0,10,11
 1626 956 1626 956 1738 926 c 1,12,-1
 1950 926 l 1,13,-1
 1930 868 l 1,14,-1
 1692 868 l 1,15,-1
 1648 550 l 1,16,17
 1706 632 1706 632 1840 632 c 0,18,19
 1972 632 1972 632 2052 512 c 0,20,21
 2122 408 2122 408 2122 270 c 0,22,23
 2122 -82 2122 -82 1754 -286 c 0,24,25
 1450 -454 1450 -454 1070 -454 c 0,26,27
 674 -454 674 -454 380 -262 c 0,28,29
 42 -40 42 -40 42 336 c 0,30,31
 42 684 42 684 188 844 c 0,32,33
 224 884 224 884 258 884 c 0,34,35
 284 884 284 884 307 860 c 128,-1,36
 330 836 330 836 330 810 c 0,37,38
 330 790 330 790 312 766 c 1,39,40
 228 688 228 688 176 576 c 0,41,42
 122 458 122 458 122 348 c 2,43,-1
 122 336 l 2,44,45
 122 22 122 22 412 -186 c 0,46,47
 678 -376 678 -376 1058 -376 c 0,48,49
 1368 -376 1368 -376 1606 -224 c 0,50,51
 1882 -48 1882 -48 1882 258 c 0,52,53
 1882 528 1882 528 1770 528 c 0,54,55
 1684 528 1684 528 1640 472 c 1,56,-1
 1578 0 l 1,57,-1
 1340 0 l 1,58,-1
 1454 868 l 1,59,-1
 968 868 l 2,60,61
 794 868 794 868 636 736 c 0,62,63
 472 596 472 596 472 426 c 0,64,65
 472 362 472 362 501 284 c 128,-1,66
 530 206 530 206 562 180 c 1,67,-1
 554 266 l 1,68,69
 554 394 554 394 614 480 c 0,70,71
 684 574 684 574 808 574 c 0,72,73
 912 574 912 574 978 482 c 0,74,75
 1036 400 1036 400 1036 292 c 0,76,77
 1036 154 1036 154 958 71 c 128,-1,78
 880 -12 880 -12 742 -12 c 0,79,80
 582 -12 582 -12 480 132 c 0,81,82
 390 258 390 258 390 426 c 0,83,84
 390 636 390 636 578 786 c 0,85,86
 752 926 752 926 968 926 c 2,87,-1
 1614 926 l 1,88,89
 1500 1040 1500 1040 1500 1218 c 0,90,91
 1500 1364 1500 1364 1620 1458 c 0,92,93
 1732 1546 1732 1546 1882 1546 c 0,94,95
 2044 1546 2044 1546 2148 1434 c 0,96,97
 2264 1306 2264 1306 2252 1134 c 2,0,-1
796 258 m 0,98,99
 796 426 796 426 718 426 c 0,100,101
 678 426 678 426 650 372 c 0,102,103
 628 328 628 328 628 282 c 256,104,105
 628 236 628 236 646 188 c 0,106,107
 670 130 670 130 708 122 c 1,108,109
 740 122 740 122 768 161 c 128,-1,110
 796 200 796 200 796 258 c 0,98,99
EndSplineSet
Ligature2: "'psts' Post Base Substitutions lookup 8 subtable" tm_nya tm_ikaar
EndChar

StartChar: tm_tt_ikaar
Encoding: 65548 -1 125
Width: 1754
GlyphClass: 2
Flags: W
LayerCount: 2
Fore
SplineSet
1668 54 m 1,0,-1
 1644 0 l 1,1,-1
 1102 0 l 1,2,-1
 1036 -500 l 1,3,-1
 796 -500 l 1,4,-1
 862 0 l 1,5,-1
 20 0 l 1,6,-1
 144 926 l 1,7,-1
 378 926 l 1,8,-1
 266 54 l 1,9,-1
 664 54 l 1,10,11
 604 90 604 90 560 201 c 128,-1,12
 516 312 516 312 516 394 c 0,13,14
 516 554 516 554 600 650 c 0,15,16
 688 754 688 754 844 754 c 0,17,18
 972 754 972 754 1068 672 c 0,19,20
 1168 584 1168 584 1162 464 c 2,21,-1
 1160 426 l 1,22,-1
 1110 54 l 1,23,-1
 1668 54 l 1,0,-1
914 422 m 2,24,25
 920 500 920 500 880 566 c 128,-1,26
 840 632 840 632 766 632 c 0,27,28
 678 632 678 632 638 550 c 0,29,30
 606 486 606 486 606 394 c 0,31,32
 606 254 606 254 654 166 c 0,33,34
 716 54 716 54 844 54 c 2,35,-1
 868 54 l 1,36,-1
 914 422 l 2,24,25
EndSplineSet
Ligature2: "'psts' Post Base Substitutions lookup 8 subtable" tm_tta tm_ikaar
EndChar

StartChar: tm_nn_ikaar
Encoding: 65549 -1 126
Width: 3156
GlyphClass: 2
Flags: W
LayerCount: 2
Fore
SplineSet
3084 1140 m 2,0,-1
 3078 1050 l 1,1,-1
 3000 394 l 1,2,-1
 2922 394 l 1,3,-1
 3002 1074 l 1,4,5
 3008 1174 3008 1174 2922 1250 c 0,6,7
 2842 1320 2842 1320 2718 1320 c 0,8,9
 2630 1320 2630 1320 2548 1258 c 0,10,11
 2458 1192 2458 1192 2458 1106 c 0,12,13
 2458 956 2458 956 2570 926 c 1,14,-1
 2820 926 l 1,15,-1
 2796 868 l 1,16,-1
 2558 868 l 1,17,-1
 2446 0 l 1,18,-1
 2210 0 l 1,19,-1
 2320 868 l 1,20,-1
 2118 868 l 2,21,22
 1970 868 1970 868 1860 758 c 1,23,24
 2040 590 2040 590 2040 372 c 0,25,26
 2040 238 2040 238 1962 120 c 0,27,28
 1874 -12 1874 -12 1746 -12 c 0,29,30
 1578 -12 1578 -12 1524 214 c 0,31,32
 1506 282 1506 282 1506 354 c 0,33,34
 1506 548 1506 548 1660 714 c 1,35,36
 1618 770 1618 770 1539 813 c 128,-1,37
 1460 856 1460 856 1394 856 c 0,38,39
 1350 856 1350 856 1270 822 c 128,-1,40
 1190 788 1190 788 1160 758 c 1,41,42
 1340 584 1340 584 1340 372 c 0,43,44
 1340 238 1340 238 1262 120 c 0,45,46
 1174 -12 1174 -12 1046 -12 c 0,47,48
 878 -12 878 -12 824 214 c 0,49,50
 806 282 806 282 806 354 c 0,51,52
 806 554 806 554 960 714 c 1,53,54
 848 850 848 850 644 850 c 0,55,56
 444 850 444 850 284 732 c 0,57,58
 106 600 106 600 106 426 c 0,59,60
 106 364 106 364 134 286 c 128,-1,61
 162 208 162 208 200 180 c 1,62,-1
 192 268 l 1,63,64
 192 396 192 396 254 480 c 0,65,66
 324 574 324 574 446 574 c 0,67,68
 550 574 550 574 614 482 c 0,69,70
 672 400 672 400 672 292 c 0,71,72
 672 154 672 154 594 71 c 128,-1,73
 516 -12 516 -12 378 -12 c 0,74,75
 226 -12 226 -12 122 124 c 0,76,77
 28 248 28 248 28 426 c 0,78,79
 28 652 28 652 238 802 c 0,80,81
 426 938 426 938 660 938 c 0,82,83
 898 938 898 938 1082 812 c 1,84,85
 1246 928 1246 928 1432 928 c 0,86,87
 1620 928 1620 928 1786 812 c 1,88,89
 1946 926 1946 926 2128 926 c 2,90,-1
 2446 926 l 1,91,92
 2332 1040 2332 1040 2332 1218 c 0,93,94
 2332 1364 2332 1364 2454 1460 c 0,95,96
 2568 1546 2568 1546 2718 1546 c 0,97,98
 2880 1546 2880 1546 2982 1438 c 0,99,100
 3096 1316 3096 1316 3084 1140 c 2,0,-1
1800 394 m 0,101,102
 1800 540 1800 540 1718 648 c 1,103,104
 1586 522 1586 522 1586 382 c 0,105,106
 1586 156 1586 156 1680 156 c 0,107,108
 1736 156 1736 156 1768 223 c 128,-1,109
 1800 290 1800 290 1800 394 c 0,101,102
1102 394 m 0,110,111
 1102 526 1102 526 1016 648 c 1,112,113
 886 518 886 518 886 382 c 0,114,115
 886 156 886 156 976 156 c 0,116,117
 1040 156 1040 156 1076 248 c 0,118,119
 1102 318 1102 318 1102 394 c 0,110,111
434 258 m 0,120,121
 434 426 434 426 356 426 c 0,122,123
 324 426 324 426 292 382 c 1,124,-1
 276 342 l 2,125,126
 266 316 266 316 266 282 c 0,127,128
 266 212 266 212 289 168 c 128,-1,129
 312 124 312 124 344 122 c 0,130,131
 374 122 374 122 408 158 c 1,132,133
 434 200 434 200 434 258 c 0,120,121
EndSplineSet
Ligature2: "'psts' Post Base Substitutions lookup 8 subtable" tm_nna tm_ikaar
EndChar

StartChar: tm_t_ikaar
Encoding: 65550 -1 127
Width: 1528
GlyphClass: 2
Flags: W
LayerCount: 2
Fore
SplineSet
1460 1136 m 2,0,-1
 1454 1050 l 1,1,-1
 1386 508 l 1,2,-1
 1308 508 l 1,3,-1
 1378 1070 l 1,4,5
 1386 1178 1386 1178 1298 1252 c 0,6,7
 1218 1320 1218 1320 1094 1320 c 0,8,9
 1004 1320 1004 1320 922 1260 c 0,10,11
 832 1194 832 1194 832 1106 c 0,12,13
 832 956 832 956 946 926 c 1,14,-1
 1196 926 l 1,15,-1
 1172 868 l 1,16,-1
 934 868 l 1,17,-1
 894 550 l 1,18,-1
 968 550 l 2,19,20
 1104 550 1104 550 1202 474 c 0,21,22
 1308 392 1308 392 1308 260 c 2,23,-1
 1308 246 l 2,24,25
 1308 76 1308 76 1200 -30 c 128,-1,26
 1092 -136 1092 -136 922 -136 c 2,27,-1
 300 -136 l 2,28,29
 248 -136 248 -136 206 -168 c 128,-1,30
 164 -200 164 -200 164 -250 c 0,31,32
 164 -278 164 -278 193 -311 c 128,-1,33
 222 -344 222 -344 222 -364 c 0,34,35
 222 -430 222 -430 181 -471 c 128,-1,36
 140 -512 140 -512 74 -512 c 0,37,38
 -70 -512 -70 -512 -70 -308 c 0,39,40
 -70 -206 -70 -206 10 -142 c 0,41,42
 82 -82 82 -82 188 -82 c 2,43,-1
 766 -82 l 2,44,45
 894 -82 894 -82 982 18 c 128,-1,46
 1070 118 1070 118 1070 246 c 0,47,48
 1070 362 1070 362 1029 429 c 128,-1,49
 988 496 988 496 922 496 c 2,50,-1
 886 496 l 1,51,-1
 868 348 l 2,52,53
 848 178 848 178 722 76 c 0,54,55
 612 -12 612 -12 472 -12 c 0,56,57
 282 -12 282 -12 168 60 c 0,58,59
 32 146 32 146 32 324 c 0,60,61
 32 550 32 550 290 550 c 2,62,-1
 332 550 l 1,63,-1
 378 926 l 1,64,-1
 820 926 l 1,65,66
 708 1042 708 1042 708 1218 c 0,67,68
 708 1366 708 1366 830 1460 c 0,69,70
 942 1546 942 1546 1094 1546 c 0,71,72
 1258 1546 1258 1546 1360 1434 c 0,73,74
 1472 1308 1472 1308 1460 1136 c 2,0,-1
696 868 m 1,75,-1
 460 868 l 1,76,-1
 418 550 l 1,77,-1
 656 550 l 1,78,-1
 696 868 l 1,75,-1
648 496 m 1,79,-1
 266 496 l 2,80,81
 110 496 110 496 110 324 c 0,82,83
 110 212 110 212 190 148 c 0,84,85
 262 90 262 90 378 90 c 0,86,87
 460 90 460 90 537 165 c 128,-1,88
 614 240 614 240 628 348 c 2,89,-1
 648 496 l 1,79,-1
EndSplineSet
Ligature2: "'psts' Post Base Substitutions lookup 8 subtable" tm_ta tm_ikaar
EndChar

StartChar: tm_n_ikaar
Encoding: 65551 -1 128
Width: 1340
GlyphClass: 2
Flags: W
LayerCount: 2
Fore
SplineSet
1268 1136 m 2,0,-1
 1262 1050 l 1,1,-1
 1196 508 l 1,2,-1
 1114 508 l 1,3,-1
 1186 1074 l 1,4,5
 1192 1174 1192 1174 1106 1250 c 0,6,7
 1026 1320 1026 1320 898 1320 c 0,8,9
 812 1320 812 1320 728 1258 c 0,10,11
 640 1190 640 1190 640 1106 c 0,12,13
 640 956 640 956 754 926 c 1,14,-1
 946 926 l 1,15,-1
 922 868 l 1,16,-1
 684 868 l 1,17,-1
 644 550 l 1,18,19
 718 630 718 630 820 630 c 0,20,21
 940 630 940 630 1027 537 c 128,-1,22
 1114 444 1114 444 1114 324 c 0,23,24
 1114 96 1114 96 972 -24 c 0,25,26
 838 -136 838 -136 606 -136 c 2,27,-1
 246 -136 l 2,28,29
 194 -136 194 -136 152 -167 c 128,-1,30
 110 -198 110 -198 110 -250 c 0,31,32
 110 -276 110 -276 135 -310 c 128,-1,33
 160 -344 160 -344 164 -364 c 1,34,35
 164 -512 164 -512 20 -512 c 0,36,37
 -128 -512 -128 -512 -128 -308 c 0,38,39
 -128 -202 -128 -202 -48 -140 c 0,40,41
 24 -82 24 -82 132 -82 c 2,42,-1
 516 -82 l 2,43,44
 660 -82 660 -82 769 46 c 128,-1,45
 878 174 878 174 878 316 c 0,46,47
 878 388 878 388 842 446 c 0,48,49
 800 512 800 512 734 522 c 1,50,51
 682 522 682 522 632 472 c 1,52,-1
 574 0 l 1,53,-1
 336 0 l 1,54,-1
 450 868 l 1,55,-1
 210 868 l 1,56,-1
 98 0 l 1,57,-1
 20 0 l 1,58,-1
 132 926 l 1,59,-1
 628 926 l 1,60,61
 516 1042 516 1042 516 1218 c 0,62,63
 516 1364 516 1364 636 1458 c 0,64,65
 748 1546 748 1546 898 1546 c 0,66,67
 1062 1546 1062 1546 1164 1434 c 0,68,69
 1216 1378 1216 1378 1242 1304 c 0,70,71
 1274 1214 1274 1214 1268 1136 c 2,0,-1
EndSplineSet
Ligature2: "'psts' Post Base Substitutions lookup 8 subtable" tm_na tm_ikaar
EndChar

StartChar: tm_nnn_ikaar
Encoding: 65552 -1 129
Width: 2458
GlyphClass: 2
Flags: W
LayerCount: 2
Fore
SplineSet
2378 1136 m 2,0,-1
 2372 1050 l 1,1,-1
 2292 394 l 1,2,-1
 2210 394 l 1,3,-1
 2294 1074 l 1,4,5
 2300 1176 2300 1176 2214 1252 c 0,6,7
 2134 1320 2134 1320 2008 1320 c 0,8,9
 1920 1320 1920 1320 1838 1258 c 0,10,11
 1750 1190 1750 1190 1750 1106 c 0,12,13
 1750 956 1750 956 1864 926 c 1,14,-1
 2110 926 l 1,15,-1
 2090 868 l 1,16,-1
 1852 868 l 1,17,-1
 1738 0 l 1,18,-1
 1500 0 l 1,19,-1
 1614 868 l 1,20,-1
 1410 868 l 2,21,22
 1268 868 1268 868 1152 758 c 1,23,24
 1332 584 1332 584 1332 372 c 0,25,26
 1332 236 1332 236 1256 120 c 0,27,28
 1168 -12 1168 -12 1040 -12 c 0,29,30
 930 -12 930 -12 865 94 c 128,-1,31
 800 200 800 200 800 360 c 2,32,-1
 800 394 l 2,33,34
 800 558 800 558 954 714 c 1,35,36
 838 854 838 854 634 854 c 0,37,38
 438 854 438 854 280 734 c 0,39,40
 102 600 102 600 102 426 c 2,41,-1
 102 418 l 2,42,43
 102 364 102 364 128 290 c 0,44,45
 156 208 156 208 192 180 c 1,46,-1
 184 268 l 1,47,48
 184 396 184 396 246 480 c 0,49,50
 316 574 316 574 438 574 c 0,51,52
 542 574 542 574 606 482 c 0,53,54
 664 400 664 400 664 292 c 0,55,56
 664 154 664 154 586 71 c 128,-1,57
 508 -12 508 -12 372 -12 c 0,58,59
 210 -12 210 -12 110 130 c 0,60,61
 20 258 20 258 20 426 c 0,62,63
 20 652 20 652 230 802 c 0,64,65
 418 938 418 938 652 938 c 0,66,67
 890 938 890 938 1074 812 c 1,68,69
 1236 926 1236 926 1422 926 c 2,70,-1
 1738 926 l 1,71,72
 1626 1042 1626 1042 1626 1218 c 0,73,74
 1626 1364 1626 1364 1746 1458 c 0,75,76
 1858 1546 1858 1546 2008 1546 c 0,77,78
 2172 1546 2172 1546 2274 1434 c 0,79,80
 2326 1378 2326 1378 2352 1304 c 0,81,82
 2384 1214 2384 1214 2378 1136 c 2,0,-1
1094 394 m 0,83,84
 1094 526 1094 526 1008 648 c 1,85,86
 878 518 878 518 878 382 c 0,87,88
 878 156 878 156 968 156 c 0,89,90
 1032 156 1032 156 1068 248 c 0,91,92
 1094 318 1094 318 1094 394 c 0,83,84
426 258 m 0,93,94
 426 426 426 426 348 426 c 0,95,96
 316 426 316 426 284 382 c 1,97,-1
 268 342 l 2,98,99
 258 316 258 316 258 282 c 0,100,101
 258 212 258 212 281 168 c 128,-1,102
 304 124 304 124 336 122 c 0,103,104
 366 122 366 122 400 158 c 1,105,106
 426 200 426 200 426 258 c 0,93,94
EndSplineSet
Ligature2: "'psts' Post Base Substitutions lookup 8 subtable" tm_nnna tm_ikaar
EndChar

StartChar: tm_p_ikaar
Encoding: 65553 -1 130
Width: 1836
GlyphClass: 2
Flags: W
LayerCount: 2
Fore
SplineSet
1762 1032 m 2,0,-1
 1754 926 l 1,1,-1
 1688 418 l 1,2,-1
 1610 418 l 1,3,-1
 1680 950 l 1,4,5
 1690 1078 1690 1078 1586 1176 c 0,6,7
 1492 1262 1492 1262 1372 1262 c 0,8,9
 1246 1262 1246 1262 1140 1192 c 0,10,11
 1020 1112 1020 1112 1020 992 c 0,12,13
 1020 908 1020 908 1058 848 c 0,14,15
 1104 778 1104 778 1184 778 c 1,16,-1
 1204 926 l 1,17,-1
 1438 926 l 1,18,-1
 1316 0 l 1,19,-1
 16 0 l 1,20,-1
 140 926 l 1,21,-1
 376 926 l 1,22,-1
 262 76 l 1,23,-1
 1090 76 l 1,24,-1
 1172 710 l 1,25,-1
 1160 710 l 2,26,27
 1056 710 1056 710 988 814 c 0,28,29
 930 906 930 906 930 1016 c 0,30,31
 930 1226 930 1226 1057 1357 c 128,-1,32
 1184 1488 1184 1488 1394 1488 c 0,33,34
 1568 1488 1568 1488 1670 1350 c 0,35,36
 1776 1206 1776 1206 1762 1032 c 2,0,-1
EndSplineSet
Ligature2: "'psts' Post Base Substitutions lookup 8 subtable" tm_pa tm_ikaar
EndChar

StartChar: tm_m_ikaar
Encoding: 65554 -1 131
Width: 1836
GlyphClass: 2
Flags: W
LayerCount: 2
Fore
SplineSet
1762 960 m 1,0,1
 1756 924 1756 924 1754 914 c 2,2,-1
 1688 406 l 1,3,-1
 1610 406 l 1,4,-1
 1676 890 l 1,5,-1
 1680 958 l 2,6,7
 1688 1092 1688 1092 1602 1182 c 0,8,9
 1522 1262 1522 1262 1394 1262 c 0,10,11
 1288 1262 1288 1262 1204 1206 c 0,12,13
 1110 1142 1110 1142 1110 1040 c 0,14,15
 1110 970 1110 970 1180 908 c 1,16,17
 1320 846 1320 846 1412 690 c 0,18,19
 1496 548 1496 548 1496 382 c 0,20,21
 1496 0 1496 0 1204 0 c 2,22,-1
 28 0 l 1,23,-1
 152 926 l 1,24,-1
 386 926 l 1,25,-1
 274 54 l 1,26,-1
 672 54 l 1,27,-1
 750 688 l 2,28,29
 762 784 762 784 846 863 c 128,-1,30
 930 942 930 942 1032 938 c 2,31,-1
 1076 936 l 1,32,33
 1008 1022 1008 1022 1008 1172 c 0,34,35
 1008 1314 1008 1314 1126 1404 c 0,36,37
 1236 1488 1236 1488 1382 1488 c 0,38,39
 1762 1488 1762 1488 1762 1046 c 2,40,-1
 1762 960 l 1,0,1
1418 372 m 0,41,42
 1418 518 1418 518 1348 652 c 0,43,44
 1264 812 1264 812 1132 812 c 0,45,46
 1018 812 1018 812 1000 688 c 2,47,-1
 906 54 l 1,48,-1
 1210 54 l 2,49,50
 1310 54 1310 54 1370 168 c 0,51,52
 1418 262 1418 262 1418 372 c 0,41,42
EndSplineSet
Ligature2: "'psts' Post Base Substitutions lookup 8 subtable" tm_ma tm_ikaar
EndChar

StartChar: tm_y_ikaar
Encoding: 65555 -1 132
Width: 2086
GlyphClass: 2
Flags: W
LayerCount: 2
Fore
SplineSet
2012 1032 m 2,0,-1
 2004 926 l 1,1,-1
 1938 418 l 1,2,-1
 1860 418 l 1,3,-1
 1930 950 l 1,4,5
 1940 1078 1940 1078 1836 1176 c 0,6,7
 1742 1262 1742 1262 1622 1262 c 0,8,9
 1496 1262 1496 1262 1390 1192 c 0,10,11
 1270 1112 1270 1112 1270 992 c 0,12,13
 1270 908 1270 908 1308 848 c 0,14,15
 1354 778 1354 778 1434 778 c 1,16,-1
 1454 926 l 1,17,-1
 1688 926 l 1,18,-1
 1566 0 l 1,19,-1
 480 0 l 1,20,-1
 504 156 l 1,21,22
 436 68 436 68 363 34 c 128,-1,23
 290 0 290 0 176 0 c 0,24,25
 126 0 126 0 77 51 c 128,-1,26
 28 102 28 102 28 152 c 1,27,-1
 128 926 l 1,28,-1
 368 926 l 1,29,-1
 278 234 l 1,30,31
 278 156 278 156 356 156 c 0,32,33
 406 156 406 156 470 250 c 0,34,35
 528 336 528 336 536 394 c 2,36,-1
 606 926 l 1,37,-1
 844 926 l 1,38,-1
 730 66 l 1,39,-1
 1340 66 l 1,40,-1
 1422 710 l 1,41,-1
 1410 710 l 2,42,43
 1306 710 1306 710 1238 814 c 0,44,45
 1180 906 1180 906 1180 1016 c 0,46,47
 1180 1226 1180 1226 1307 1357 c 128,-1,48
 1434 1488 1434 1488 1644 1488 c 0,49,50
 1818 1488 1818 1488 1920 1350 c 0,51,52
 2026 1206 2026 1206 2012 1032 c 2,0,-1
EndSplineSet
Ligature2: "'psts' Post Base Substitutions lookup 8 subtable" tm_ya tm_ikaar
EndChar

StartChar: tm_r_ikaar
Encoding: 65556 -1 133
Width: 1300
GlyphClass: 2
Flags: W
LayerCount: 2
Fore
SplineSet
1212 1072 m 1,0,-1
 1208 1050 l 1,1,-1
 1126 394 l 1,2,-1
 1046 394 l 1,3,-1
 1128 1076 l 1,4,5
 1134 1180 1134 1180 1051 1250 c 128,-1,6
 968 1320 968 1320 844 1320 c 0,7,8
 754 1320 754 1320 672 1260 c 0,9,10
 582 1194 582 1194 582 1106 c 0,11,12
 582 978 582 978 654 926 c 1,13,-1
 946 926 l 1,14,-1
 922 868 l 1,15,-1
 684 868 l 1,16,-1
 578 54 l 1,17,18
 296 -30 296 -30 42 -340 c 1,19,-1
 -16 -286 l 1,20,21
 48 -158 48 -158 146 -46 c 0,22,23
 214 30 214 30 356 156 c 1,24,-1
 450 868 l 1,25,-1
 210 868 l 1,26,-1
 98 0 l 1,27,-1
 20 0 l 1,28,-1
 132 926 l 1,29,-1
 556 926 l 1,30,31
 460 1040 460 1040 460 1218 c 0,32,33
 460 1366 460 1366 580 1460 c 0,34,35
 692 1546 692 1546 844 1546 c 0,36,37
 1014 1546 1014 1546 1118 1422 c 0,38,39
 1212 1304 1212 1304 1212 1130 c 2,40,-1
 1212 1072 l 1,0,-1
EndSplineSet
Ligature2: "'psts' Post Base Substitutions lookup 8 subtable" tm_ra tm_ikaar
EndChar

StartChar: tm_rr_ikaar
Encoding: 65557 -1 134
Width: 1734
GlyphClass: 2
Flags: W
LayerCount: 2
Fore
SplineSet
1650 992 m 1,0,1
 1646 974 1646 974 1646 968 c 2,2,-1
 1640 914 l 1,3,-1
 1574 406 l 1,4,-1
 1496 406 l 1,5,-1
 1562 890 l 1,6,-1
 1566 956 l 2,7,8
 1574 1088 1574 1088 1488 1180 c 0,9,10
 1408 1262 1408 1262 1282 1262 c 0,11,12
 1176 1262 1176 1262 1092 1206 c 0,13,14
 1000 1142 1000 1142 1000 1040 c 0,15,16
 1000 980 1000 980 1072 910 c 1,17,18
 1194 856 1194 856 1254 696 c 0,19,20
 1304 570 1304 570 1304 412 c 2,21,-1
 1304 372 l 2,22,23
 1304 110 1304 110 1098 -26 c 0,24,25
 932 -136 932 -136 672 -136 c 2,26,-1
 356 -136 l 2,27,28
 302 -136 302 -136 262 -164 c 0,29,30
 218 -198 218 -198 218 -250 c 0,31,32
 218 -276 218 -276 244 -309 c 128,-1,33
 270 -342 270 -342 274 -364 c 1,34,35
 274 -512 274 -512 128 -512 c 0,36,37
 -20 -512 -20 -512 -20 -308 c 0,38,39
 -20 -204 -20 -204 60 -140 c 0,40,41
 134 -82 134 -82 242 -82 c 2,42,-1
 546 -82 l 2,43,44
 770 -82 770 -82 906 34 c 0,45,46
 1060 166 1060 166 1066 372 c 2,47,-1
 1068 448 l 2,48,49
 1072 606 1072 606 1022 714 c 0,50,51
 976 812 976 812 886 812 c 0,52,53
 790 812 790 812 708 692 c 0,54,55
 638 588 638 588 626 484 c 2,56,-1
 570 0 l 1,57,-1
 332 0 l 1,58,-1
 414 628 l 1,59,60
 418 690 418 690 386 756 c 0,61,62
 356 812 356 812 308 812 c 0,63,64
 188 812 188 812 160 574 c 2,65,-1
 94 0 l 1,66,-1
 16 0 l 1,67,-1
 94 640 l 2,68,69
 108 754 108 754 174 840 c 0,70,71
 248 938 248 938 356 938 c 0,72,73
 454 938 454 938 532 870 c 0,74,75
 602 808 602 808 636 710 c 1,76,77
 670 804 670 804 757 871 c 128,-1,78
 844 938 844 938 942 938 c 1,79,-1
 954 934 l 1,80,-1
 964 932 l 1,81,82
 894 1020 894 1020 894 1172 c 0,83,84
 894 1314 894 1314 1014 1406 c 0,85,86
 1124 1488 1124 1488 1270 1488 c 0,87,88
 1650 1488 1650 1488 1650 1064 c 2,89,-1
 1650 992 l 1,0,1
EndSplineSet
Ligature2: "'psts' Post Base Substitutions lookup 8 subtable" tm_rra tm_ikaar
EndChar

StartChar: tm_l_ikaar
Encoding: 65558 -1 135
Width: 2000
GlyphClass: 2
Flags: W
LayerCount: 2
Fore
SplineSet
1922 1008 m 2,0,-1
 1918 926 l 1,1,-1
 1852 372 l 1,2,-1
 1774 372 l 1,3,-1
 1842 944 l 1,4,5
 1850 1056 1850 1056 1764 1160 c 0,6,7
 1670 1274 1670 1274 1512 1274 c 0,8,9
 1366 1274 1366 1274 1262 1190 c 0,10,11
 1152 1100 1152 1100 1152 958 c 0,12,13
 1152 892 1152 892 1208 828 c 128,-1,14
 1264 764 1264 764 1328 764 c 0,15,16
 1376 764 1376 764 1410 812 c 1,17,-1
 1292 842 l 2,18,19
 1216 862 1216 862 1216 920 c 1,20,-1
 1218 938 l 2,21,22
 1222 968 1222 968 1249 986 c 128,-1,23
 1276 1004 1276 1004 1308 1004 c 0,24,25
 1472 1004 1472 1004 1568 848 c 0,26,27
 1648 718 1648 718 1648 496 c 0,28,29
 1648 330 1648 330 1522 174 c 0,30,31
 1372 -12 1372 -12 1152 -12 c 0,32,33
 966 -12 966 -12 885 77 c 128,-1,34
 804 166 804 166 804 356 c 2,35,-1
 804 444 l 1,36,37
 810 476 810 476 812 490 c 2,38,-1
 824 574 l 1,39,-1
 826 602 l 2,40,41
 832 694 832 694 746 784 c 0,42,43
 666 868 666 868 586 868 c 0,44,45
 414 868 414 868 262 740 c 0,46,47
 102 608 102 608 102 438 c 0,48,49
 102 386 102 386 128 306 c 0,50,51
 156 214 156 214 192 192 c 1,52,-1
 184 280 l 1,53,54
 184 412 184 412 246 494 c 0,55,56
 316 586 316 586 438 586 c 0,57,58
 542 586 542 586 606 494 c 0,59,60
 664 414 664 414 664 304 c 0,61,62
 664 164 664 164 587 76 c 128,-1,63
 510 -12 510 -12 372 -12 c 0,64,65
 210 -12 210 -12 108 136 c 0,66,67
 20 268 20 268 20 438 c 0,68,69
 20 654 20 654 204 806 c 0,70,71
 380 950 380 950 598 950 c 0,72,73
 774 950 774 950 908 858 c 0,74,75
 1058 754 1058 754 1058 586 c 1,76,-1
 1044 464 l 2,77,78
 1030 342 1030 342 1030 308 c 0,79,80
 1030 82 1030 82 1214 82 c 0,81,82
 1368 82 1368 82 1476 236 c 0,83,84
 1574 374 1574 374 1574 534 c 0,85,86
 1574 698 1574 698 1468 778 c 1,87,88
 1424 710 1424 710 1332 710 c 0,89,90
 1202 710 1202 710 1126 797 c 128,-1,91
 1050 884 1050 884 1050 1016 c 0,92,93
 1050 1228 1050 1228 1181 1364 c 128,-1,94
 1312 1500 1312 1500 1522 1500 c 2,95,-1
 1540 1500 l 2,96,97
 1700 1500 1700 1500 1814 1350 c 0,98,99
 1932 1194 1932 1194 1922 1008 c 2,0,-1
426 270 m 0,100,101
 426 438 426 438 348 438 c 0,102,103
 294 438 294 438 270 364 c 0,104,105
 258 328 258 328 258 292 c 0,106,107
 258 230 258 230 283 181 c 128,-1,108
 308 132 308 132 336 132 c 0,109,110
 380 132 380 132 406 182 c 0,111,112
 426 222 426 222 426 270 c 0,100,101
EndSplineSet
Ligature2: "'psts' Post Base Substitutions lookup 8 subtable" tm_la tm_ikaar
EndChar

StartChar: tm_ll_ikaar
Encoding: 65559 -1 136
Width: 2312
GlyphClass: 2
Flags: W
LayerCount: 2
Fore
SplineSet
2232 1142 m 2,0,-1
 2226 1050 l 1,1,-1
 2148 394 l 1,2,-1
 2070 394 l 1,3,-1
 2150 1074 l 1,4,5
 2156 1176 2156 1176 2070 1252 c 0,6,7
 1990 1320 1990 1320 1868 1320 c 0,8,9
 1778 1320 1778 1320 1696 1260 c 0,10,11
 1606 1194 1606 1194 1606 1106 c 0,12,13
 1606 956 1606 956 1718 926 c 1,14,-1
 1958 926 l 1,15,-1
 1934 868 l 1,16,-1
 1696 868 l 1,17,-1
 1582 0 l 1,18,-1
 1348 0 l 1,19,-1
 1460 868 l 1,20,-1
 1222 868 l 1,21,-1
 1110 0 l 1,22,-1
 872 0 l 1,23,-1
 950 574 l 1,24,25
 882 856 882 856 602 856 c 2,26,-1
 584 856 l 2,27,28
 416 856 416 856 268 726 c 0,29,30
 114 592 114 592 114 426 c 0,31,32
 114 376 114 376 142 294 c 0,33,34
 174 202 174 202 208 180 c 1,35,-1
 200 268 l 1,36,37
 200 396 200 396 262 480 c 0,38,39
 332 574 332 574 454 574 c 0,40,41
 558 574 558 574 622 482 c 0,42,43
 680 400 680 400 680 292 c 0,44,45
 680 154 680 154 602 71 c 128,-1,46
 524 -12 524 -12 386 -12 c 0,47,48
 234 -12 234 -12 130 124 c 0,49,50
 36 248 36 248 36 426 c 0,51,52
 36 658 36 658 222 802 c 0,53,54
 394 934 394 934 632 934 c 0,55,56
 956 934 956 934 1114 708 c 1,57,-1
 1144 926 l 1,58,-1
 1594 926 l 1,59,60
 1480 1040 1480 1040 1480 1218 c 0,61,62
 1480 1366 1480 1366 1604 1460 c 0,63,64
 1716 1546 1716 1546 1868 1546 c 0,65,66
 2026 1546 2026 1546 2130 1438 c 0,67,68
 2244 1316 2244 1316 2232 1142 c 2,0,-1
442 258 m 0,69,70
 442 426 442 426 364 426 c 0,71,72
 332 426 332 426 300 382 c 1,73,-1
 284 342 l 2,74,75
 274 316 274 316 274 282 c 0,76,77
 274 212 274 212 297 168 c 128,-1,78
 320 124 320 124 352 122 c 0,79,80
 382 122 382 122 416 158 c 1,81,82
 442 200 442 200 442 258 c 0,69,70
EndSplineSet
Ligature2: "'psts' Post Base Substitutions lookup 8 subtable" tm_lla tm_ikaar
EndChar

StartChar: tm_lll_ikaar
Encoding: 65560 -1 137
Width: 1856
GlyphClass: 2
Flags: W
LayerCount: 2
Fore
SplineSet
1768 960 m 1,0,-1
 1760 914 l 1,1,-1
 1690 406 l 1,2,-1
 1612 406 l 1,3,-1
 1686 950 l 1,4,5
 1694 1082 1694 1082 1606 1178 c 0,6,7
 1524 1262 1524 1262 1396 1262 c 0,8,9
 1290 1262 1290 1262 1208 1206 c 0,10,11
 1116 1142 1116 1142 1116 1040 c 0,12,13
 1116 1004 1116 1004 1208 924 c 1,14,15
 1342 862 1342 862 1426 696 c 0,16,17
 1498 552 1498 552 1498 382 c 0,18,19
 1498 0 1498 0 1206 0 c 2,20,-1
 900 0 l 1,21,-1
 898 -12 l 1,22,23
 898 -38 898 -38 915 -68 c 128,-1,24
 932 -98 932 -98 956 -106 c 1,25,-1
 1194 -106 l 1,26,-1
 1170 -160 l 1,27,-1
 924 -160 l 2,28,29
 770 -160 770 -160 726 -252 c 2,30,-1
 646 -420 l 1,31,32
 564 -512 564 -512 322 -512 c 0,33,34
 190 -512 190 -512 90 -448 c 0,35,36
 -26 -374 -26 -374 -26 -250 c 0,37,38
 -26 -196 -26 -196 -2 -156 c 0,39,40
 26 -106 26 -106 76 -106 c 2,41,-1
 292 -106 l 1,42,-1
 292 -160 l 1,43,-1
 130 -160 l 2,44,45
 52 -160 52 -160 52 -250 c 0,46,47
 52 -328 52 -328 128 -382 c 0,48,49
 198 -430 198 -430 280 -430 c 0,50,51
 390 -430 390 -430 424 -348 c 2,52,-1
 486 -196 l 1,53,54
 544 -114 544 -114 710 -114 c 1,55,56
 662 -72 662 -72 662 0 c 1,57,-1
 30 0 l 1,58,-1
 154 926 l 1,59,-1
 392 926 l 1,60,-1
 280 54 l 1,61,-1
 674 54 l 1,62,-1
 752 688 l 2,63,64
 762 778 762 778 855 866 c 128,-1,65
 948 954 948 954 1058 954 c 1,66,-1
 1066 950 l 1,67,-1
 1072 946 l 1,68,69
 1014 1014 1014 1014 1014 1172 c 0,70,71
 1014 1310 1014 1310 1132 1402 c 0,72,73
 1242 1488 1242 1488 1384 1488 c 0,74,75
 1768 1488 1768 1488 1768 1050 c 2,76,-1
 1768 960 l 1,0,-1
1420 372 m 0,77,78
 1420 514 1420 514 1350 650 c 0,79,80
 1268 812 1268 812 1138 812 c 0,81,82
 1088 812 1088 812 1045 775 c 128,-1,83
 1002 738 1002 738 1002 688 c 1,84,-1
 912 54 l 1,85,-1
 1216 54 l 2,86,87
 1318 54 1318 54 1374 168 c 0,88,89
 1420 258 1420 258 1420 372 c 0,77,78
EndSplineSet
Ligature2: "'psts' Post Base Substitutions lookup 8 subtable" tm_llla tm_ikaar
EndChar

StartChar: tm_v_ikaar
Encoding: 65561 -1 138
Width: 2270
GlyphClass: 2
Flags: W
LayerCount: 2
Fore
SplineSet
2186 1024 m 2,0,-1
 2180 926 l 1,1,-1
 2110 418 l 1,2,-1
 2032 418 l 1,3,-1
 2104 948 l 1,4,5
 2110 1080 2110 1080 2012 1174 c 0,6,7
 1918 1262 1918 1262 1792 1262 c 0,8,9
 1670 1262 1670 1262 1564 1190 c 0,10,11
 1446 1108 1446 1108 1446 992 c 0,12,13
 1446 896 1446 896 1490 834 c 1,14,15
 1542 778 1542 778 1606 778 c 1,16,-1
 1626 926 l 1,17,-1
 1864 926 l 1,18,-1
 1738 0 l 1,19,-1
 742 0 l 1,20,-1
 742 54 l 1,21,22
 946 178 946 178 946 438 c 0,23,24
 946 606 946 606 852 726 c 0,25,26
 750 856 750 856 586 856 c 2,27,-1
 568 856 l 2,28,29
 398 856 398 856 250 725 c 128,-1,30
 102 594 102 594 102 426 c 0,31,32
 102 374 102 374 128 294 c 0,33,34
 156 202 156 202 192 180 c 1,35,-1
 184 268 l 1,36,37
 184 400 184 400 246 482 c 0,38,39
 316 574 316 574 438 574 c 0,40,41
 542 574 542 574 606 482 c 0,42,43
 664 402 664 402 664 292 c 0,44,45
 664 158 664 158 585 73 c 128,-1,46
 506 -12 506 -12 372 -12 c 0,47,48
 212 -12 212 -12 110 132 c 0,49,50
 20 260 20 260 20 426 c 0,51,52
 20 642 20 642 204 794 c 0,53,54
 380 938 380 938 598 938 c 0,55,56
 846 938 846 938 1010 804 c 0,57,58
 1184 660 1184 660 1184 418 c 0,59,60
 1184 190 1184 190 1050 54 c 1,61,-1
 1512 54 l 1,62,-1
 1598 710 l 1,63,-1
 1586 710 l 2,64,65
 1482 710 1482 710 1414 814 c 0,66,67
 1356 906 1356 906 1356 1016 c 0,68,69
 1356 1220 1356 1220 1484 1354 c 128,-1,70
 1612 1488 1612 1488 1816 1488 c 0,71,72
 1994 1488 1994 1488 2096 1348 c 128,-1,73
 2198 1208 2198 1208 2186 1024 c 2,0,-1
426 258 m 0,74,75
 426 426 426 426 348 426 c 0,76,77
 314 426 314 426 284 382 c 1,78,79
 258 330 258 330 258 282 c 256,80,81
 258 234 258 234 274 186 c 0,82,83
 296 124 296 124 336 122 c 0,84,85
 382 120 382 120 406 170 c 0,86,87
 426 208 426 208 426 258 c 0,74,75
EndSplineSet
Ligature2: "'psts' Post Base Substitutions lookup 8 subtable" tm_va tm_ikaar
EndChar

StartChar: tm_ss_ikaar
Encoding: 65562 -1 139
Width: 2558
GlyphClass: 2
Flags: W
LayerCount: 2
Fore
SplineSet
2492 934 m 1,0,1
 2486 902 2486 902 2484 890 c 2,2,-1
 2418 382 l 1,3,-1
 2336 382 l 1,4,-1
 2410 918 l 1,5,6
 2420 1052 2420 1052 2314 1158 c 0,7,8
 2218 1254 2218 1254 2090 1254 c 0,9,10
 1980 1254 1980 1254 1878 1192 c 0,11,12
 1762 1120 1762 1120 1762 1016 c 0,13,14
 1762 910 1762 910 1782 890 c 1,15,16
 1908 814 1908 814 1908 688 c 2,17,-1
 1908 676 l 1,18,-1
 1906 664 l 1,19,-1
 1878 422 l 1,20,21
 2112 512 2112 512 2156 622 c 1,22,-1
 2234 622 l 1,23,-1
 2168 0 l 1,24,-1
 1828 0 l 1,25,-1
 1774 -524 l 1,26,-1
 1524 -524 l 1,27,-1
 1582 0 l 1,28,-1
 742 0 l 1,29,-1
 742 54 l 1,30,31
 946 174 946 174 946 438 c 0,32,33
 946 602 946 602 856 720 c 0,34,35
 752 856 752 856 586 856 c 2,36,-1
 568 856 l 2,37,38
 398 856 398 856 250 725 c 128,-1,39
 102 594 102 594 102 426 c 0,40,41
 102 368 102 368 130 290 c 1,42,43
 154 200 154 200 192 180 c 1,44,-1
 184 268 l 1,45,46
 184 396 184 396 246 480 c 0,47,48
 316 574 316 574 438 574 c 0,49,50
 542 574 542 574 606 482 c 0,51,52
 664 400 664 400 664 292 c 0,53,54
 664 154 664 154 586 71 c 128,-1,55
 508 -12 508 -12 372 -12 c 0,56,57
 210 -12 210 -12 110 130 c 0,58,59
 20 258 20 258 20 426 c 0,60,61
 20 638 20 638 206 792 c 0,62,63
 382 938 382 938 598 938 c 0,64,65
 850 938 850 938 1010 806 c 0,66,67
 1184 664 1184 664 1184 418 c 0,68,69
 1184 190 1184 190 1050 54 c 1,70,-1
 1590 54 l 1,71,-1
 1626 316 l 1,72,73
 1500 316 1500 316 1398 395 c 128,-1,74
 1296 474 1296 474 1296 622 c 0,75,76
 1296 752 1296 752 1384 845 c 128,-1,77
 1472 938 1472 938 1602 938 c 1,78,-1
 1674 926 l 1,79,80
 1660 982 1660 982 1660 1152 c 0,81,82
 1660 1292 1660 1292 1802 1394 c 0,83,84
 1932 1488 1932 1488 2078 1488 c 0,85,86
 2284 1488 2284 1488 2392 1352 c 0,87,88
 2492 1228 2492 1228 2492 1016 c 2,89,-1
 2492 934 l 1,0,1
2144 496 m 1,90,91
 2004 398 2004 398 1872 348 c 1,92,-1
 1836 54 l 1,93,-1
 2094 54 l 1,94,-1
 2144 496 l 1,90,91
1662 646 m 1,95,96
 1670 800 1670 800 1524 800 c 0,97,98
 1462 800 1462 800 1419 748 c 128,-1,99
 1376 696 1376 696 1376 622 c 0,100,101
 1376 426 1376 426 1632 378 c 1,102,-1
 1662 646 l 1,95,96
426 258 m 0,103,104
 426 426 426 426 348 426 c 0,105,106
 316 426 316 426 284 382 c 1,107,-1
 268 342 l 2,108,109
 258 316 258 316 258 282 c 0,110,111
 258 212 258 212 281 168 c 128,-1,112
 304 124 304 124 336 122 c 0,113,114
 366 122 366 122 400 158 c 1,115,116
 426 200 426 200 426 258 c 0,103,104
EndSplineSet
Ligature2: "'psts' Post Base Substitutions lookup 8 subtable" tm_ssa tm_ikaar
EndChar

StartChar: tm_s_ikaar
Encoding: 65563 -1 140
Width: 2578
GlyphClass: 2
Flags: W
LayerCount: 2
Fore
SplineSet
2492 1008 m 2,0,-1
 2488 926 l 1,1,-1
 2422 372 l 1,2,-1
 2340 372 l 1,3,-1
 2412 942 l 1,4,5
 2420 1054 2420 1054 2334 1160 c 0,6,7
 2242 1274 2242 1274 2082 1274 c 0,8,9
 1936 1274 1936 1274 1832 1190 c 0,10,11
 1718 1100 1718 1100 1718 958 c 0,12,13
 1718 892 1718 892 1775 828 c 128,-1,14
 1832 764 1832 764 1898 764 c 0,15,16
 1946 764 1946 764 1980 812 c 1,17,-1
 1862 842 l 2,18,19
 1788 860 1788 860 1788 918 c 1,20,-1
 1790 938 l 2,21,22
 1790 964 1790 964 1821 984 c 128,-1,23
 1852 1004 1852 1004 1878 1004 c 0,24,25
 2040 1006 2040 1006 2134 848 c 0,26,27
 2214 712 2214 712 2214 496 c 0,28,29
 2214 330 2214 330 2090 174 c 0,30,31
 1942 -12 1942 -12 1718 -12 c 0,32,33
 1552 -12 1552 -12 1470 60 c 0,34,35
 1362 154 1362 154 1372 360 c 2,36,-1
 1378 482 l 1,37,-1
 1394 584 l 2,38,39
 1406 660 1406 660 1406 688 c 0,40,41
 1406 800 1406 800 1324 800 c 0,42,43
 1264 800 1264 800 1220 732 c 0,44,45
 1184 678 1184 678 1176 610 c 2,46,-1
 1098 0 l 1,47,-1
 860 0 l 1,48,-1
 938 578 l 1,49,50
 904 708 904 708 810 780 c 128,-1,51
 716 852 716 852 582 852 c 0,52,53
 398 852 398 852 258 738 c 0,54,55
 106 614 106 614 106 430 c 0,56,57
 106 378 106 378 132 298 c 0,58,59
 160 206 160 206 196 184 c 1,60,-1
 188 272 l 1,61,62
 188 404 188 404 250 486 c 0,63,64
 320 578 320 578 442 578 c 0,65,66
 546 578 546 578 610 486 c 0,67,68
 668 406 668 406 668 296 c 0,69,70
 668 162 668 162 589 77 c 128,-1,71
 510 -8 510 -8 376 -8 c 0,72,73
 216 -8 216 -8 114 136 c 0,74,75
 24 264 24 264 24 430 c 0,76,77
 24 658 24 658 212 806 c 0,78,79
 380 938 380 938 620 938 c 0,80,81
 942 938 942 938 1102 710 c 1,82,83
 1190 938 1190 938 1426 938 c 0,84,85
 1568 938 1568 938 1618 774 c 0,86,87
 1636 716 1636 716 1632 658 c 2,88,-1
 1628 586 l 1,89,-1
 1614 468 l 2,90,91
 1602 366 1602 366 1602 310 c 0,92,93
 1602 78 1602 78 1790 78 c 0,94,95
 1926 78 1926 78 2031 220 c 128,-1,96
 2136 362 2136 362 2136 508 c 2,97,-1
 2136 524 l 2,98,99
 2136 696 2136 696 2040 778 c 1,100,101
 1990 710 1990 710 1898 710 c 0,102,103
 1774 710 1774 710 1696 800 c 128,-1,104
 1618 890 1618 890 1618 1016 c 0,105,106
 1618 1224 1618 1224 1749 1362 c 128,-1,107
 1880 1500 1880 1500 2088 1500 c 2,108,-1
 2106 1500 l 2,109,110
 2184 1500 2184 1500 2258 1460 c 0,111,112
 2372 1398 2372 1398 2435 1270 c 128,-1,113
 2498 1142 2498 1142 2492 1008 c 2,0,-1
430 262 m 0,114,115
 430 430 430 430 352 430 c 0,116,117
 318 430 318 430 288 386 c 1,118,119
 262 334 262 334 262 286 c 256,120,121
 262 238 262 238 278 190 c 0,122,123
 300 128 300 128 340 126 c 0,124,125
 386 124 386 124 410 174 c 0,126,127
 430 212 430 212 430 262 c 0,114,115
EndSplineSet
Ligature2: "'psts' Post Base Substitutions lookup 8 subtable" tm_sa tm_ikaar
EndChar

StartChar: tm_h_ikaar
Encoding: 65564 -1 141
Width: 3036
GlyphClass: 2
Flags: W
LayerCount: 2
Fore
SplineSet
2958 960 m 1,0,-1
 2950 914 l 1,1,-1
 2878 406 l 1,2,-1
 2800 406 l 1,3,-1
 2872 952 l 1,4,5
 2880 1082 2880 1082 2792 1176 c 0,6,7
 2712 1262 2712 1262 2586 1262 c 0,8,9
 2480 1262 2480 1262 2396 1206 c 0,10,11
 2304 1142 2304 1142 2304 1040 c 0,12,13
 2304 982 2304 982 2376 910 c 1,14,15
 2498 854 2498 854 2560 696 c 0,16,17
 2610 568 2610 568 2610 412 c 2,18,-1
 2610 372 l 2,19,20
 2610 108 2610 108 2404 -38 c 0,21,22
 2232 -160 2232 -160 1976 -160 c 2,23,-1
 460 -160 l 2,24,25
 324 -160 324 -160 324 -250 c 0,26,27
 324 -268 324 -268 349 -306 c 128,-1,28
 374 -344 374 -344 378 -364 c 1,29,30
 378 -508 378 -508 234 -508 c 0,31,32
 86 -508 86 -508 86 -304 c 0,33,34
 86 -106 86 -106 332 -106 c 2,35,-1
 1868 -106 l 2,36,37
 2082 -106 2082 -106 2216 20 c 0,38,39
 2366 160 2366 160 2372 372 c 2,40,-1
 2374 442 l 2,41,42
 2378 598 2378 598 2328 710 c 0,43,44
 2282 812 2282 812 2192 812 c 0,45,46
 2100 812 2100 812 2018 688 c 0,47,48
 1946 582 1946 582 1934 480 c 2,49,-1
 1876 0 l 1,50,-1
 1636 0 l 1,51,-1
 1718 634 l 1,52,53
 1722 706 1722 706 1690 764 c 0,54,55
 1662 812 1662 812 1614 812 c 0,56,57
 1498 812 1498 812 1468 574 c 2,58,-1
 1398 0 l 1,59,-1
 754 0 l 1,60,-1
 754 54 l 1,61,62
 954 172 954 172 954 436 c 0,63,64
 954 600 954 600 864 718 c 0,65,66
 758 856 758 856 598 856 c 2,67,-1
 580 856 l 2,68,69
 412 856 412 856 264 726 c 0,70,71
 110 592 110 592 110 426 c 0,72,73
 110 376 110 376 138 294 c 0,74,75
 170 202 170 202 204 180 c 1,76,-1
 196 268 l 1,77,78
 196 396 196 396 258 480 c 0,79,80
 328 574 328 574 450 574 c 0,81,82
 554 574 554 574 618 482 c 0,83,84
 676 400 676 400 676 292 c 0,85,86
 676 154 676 154 598 71 c 128,-1,87
 520 -12 520 -12 382 -12 c 0,88,89
 230 -12 230 -12 126 124 c 0,90,91
 32 248 32 248 32 426 c 0,92,93
 32 638 32 638 218 792 c 0,94,95
 394 938 394 938 610 938 c 0,96,97
 862 938 862 938 1022 806 c 0,98,99
 1196 664 1196 664 1196 418 c 0,100,101
 1196 196 1196 196 1058 54 c 1,102,-1
 1328 54 l 1,103,-1
 1398 640 l 2,104,105
 1412 752 1412 752 1478 838 c 0,106,107
 1554 938 1554 938 1660 938 c 0,108,109
 1852 938 1852 938 1942 710 c 1,110,111
 1972 798 1972 798 2063 868 c 128,-1,112
 2154 938 2154 938 2246 938 c 2,113,-1
 2274 938 l 1,114,115
 2204 1008 2204 1008 2204 1172 c 0,116,117
 2204 1274 2204 1274 2270 1356 c 0,118,119
 2332 1430 2332 1430 2434 1466 c 0,120,121
 2500 1488 2500 1488 2574 1488 c 0,122,123
 2958 1488 2958 1488 2958 1050 c 2,124,-1
 2958 960 l 1,0,-1
438 258 m 0,125,126
 438 426 438 426 360 426 c 0,127,128
 328 426 328 426 296 382 c 1,129,-1
 280 342 l 2,130,131
 270 316 270 316 270 282 c 0,132,133
 270 212 270 212 293 168 c 128,-1,134
 316 124 316 124 348 122 c 0,135,136
 378 122 378 122 412 158 c 1,137,138
 438 200 438 200 438 258 c 0,125,126
EndSplineSet
Ligature2: "'psts' Post Base Substitutions lookup 8 subtable" tm_ha tm_ikaar
EndChar

StartChar: tm_k_iikaar
Encoding: 65565 -1 142
Width: 1442
GlyphClass: 2
Flags: W
LayerCount: 2
Fore
SplineSet
1422 1308 m 0,0,1
 1422 1198 1422 1198 1363 1128 c 128,-1,2
 1304 1058 1304 1058 1196 1058 c 0,3,4
 1128 1058 1128 1058 1076 1115 c 128,-1,5
 1024 1172 1024 1172 1024 1240 c 0,6,7
 1024 1306 1024 1306 1070 1344 c 1,8,-1
 1044 1346 l 2,9,10
 980 1350 980 1350 913 1314 c 128,-1,11
 846 1278 846 1278 824 1218 c 1,12,13
 814 1178 814 1178 814 1144 c 0,14,15
 814 994 814 994 950 926 c 1,16,-1
 1196 926 l 1,17,-1
 1172 868 l 1,18,-1
 938 868 l 1,19,-1
 894 550 l 1,20,-1
 968 550 l 2,21,22
 1120 550 1120 550 1218 488 c 0,23,24
 1332 414 1332 414 1332 270 c 0,25,26
 1332 164 1332 164 1248 76 c 128,-1,27
 1164 -12 1164 -12 1058 -12 c 0,28,29
 970 -12 970 -12 926 32 c 1,30,-1
 926 144 l 1,31,32
 998 144 998 144 1050 198 c 1,33,34
 1090 248 1090 248 1090 316 c 0,35,36
 1090 394 1090 394 1046 445 c 128,-1,37
 1002 496 1002 496 926 496 c 2,38,-1
 886 496 l 1,39,-1
 868 348 l 2,40,41
 848 178 848 178 722 76 c 0,42,43
 612 -12 612 -12 472 -12 c 0,44,45
 284 -12 284 -12 170 60 c 0,46,47
 32 148 32 148 32 324 c 0,48,49
 32 550 32 550 292 550 c 2,50,-1
 336 550 l 1,51,-1
 382 926 l 1,52,-1
 824 926 l 1,53,54
 700 1050 700 1050 700 1218 c 256,55,56
 700 1386 700 1386 822 1482 c 0,57,58
 934 1570 934 1570 1106 1570 c 0,59,60
 1236 1570 1236 1570 1324 1506 c 0,61,62
 1422 1434 1422 1434 1422 1308 c 0,0,1
1246 1260 m 0,63,64
 1246 1356 1246 1356 1172 1356 c 0,65,66
 1104 1356 1104 1356 1104 1248 c 0,67,68
 1104 1160 1104 1160 1172 1160 c 0,69,70
 1202 1160 1202 1160 1226 1190 c 1,71,72
 1246 1230 1246 1230 1246 1260 c 0,63,64
700 868 m 1,73,-1
 460 868 l 1,74,-1
 422 550 l 1,75,-1
 656 550 l 1,76,-1
 700 868 l 1,73,-1
648 496 m 1,77,-1
 270 496 l 2,78,79
 110 496 110 496 110 324 c 0,80,81
 110 210 110 210 192 146 c 0,82,83
 264 90 264 90 382 90 c 0,84,85
 470 90 470 90 545 164 c 128,-1,86
 620 238 620 238 632 348 c 2,87,-1
 648 496 l 1,77,-1
EndSplineSet
Ligature2: "'abvs' Above Base Substitutions lookup 6 subtable" tm_ka tm_iikaar
EndChar

StartChar: tm_ng_iikaar
Encoding: 65566 -1 143
Width: 1734
GlyphClass: 2
Flags: W
LayerCount: 2
Fore
SplineSet
1918 1230 m 0,0,1
 1918 1134 1918 1134 1847 1063 c 128,-1,2
 1776 992 1776 992 1680 992 c 0,3,4
 1604 992 1604 992 1544 1045 c 128,-1,5
 1484 1098 1484 1098 1484 1174 c 0,6,7
 1484 1234 1484 1234 1532 1286 c 1,8,-1
 1496 1288 l 2,9,10
 1388 1294 1388 1294 1282 1204 c 0,11,12
 1184 1120 1184 1120 1184 1004 c 0,13,14
 1184 906 1184 906 1250 842 c 128,-1,15
 1316 778 1316 778 1390 778 c 1,16,-1
 1410 926 l 1,17,-1
 1644 926 l 1,18,-1
 1524 0 l 1,19,-1
 504 0 l 1,20,-1
 528 54 l 1,21,-1
 594 54 l 2,22,23
 690 54 690 54 779 137 c 128,-1,24
 868 220 868 220 868 316 c 0,25,26
 868 374 868 374 823 422 c 128,-1,27
 778 470 778 470 720 470 c 0,28,29
 654 470 654 470 622 402 c 1,30,-1
 594 210 l 1,31,-1
 360 210 l 1,32,-1
 450 868 l 1,33,-1
 210 868 l 1,34,-1
 98 0 l 1,35,-1
 20 0 l 1,36,-1
 132 926 l 1,37,-1
 946 926 l 1,38,-1
 922 868 l 1,39,-1
 684 868 l 1,40,-1
 632 484 l 1,41,42
 698 586 698 586 816 586 c 0,43,44
 926 586 926 586 1016 510 c 128,-1,45
 1106 434 1106 434 1106 324 c 0,46,47
 1106 184 1106 184 958 54 c 1,48,-1
 1296 54 l 1,49,-1
 1378 710 l 1,50,-1
 1368 710 l 2,51,52
 1276 710 1276 710 1192 792 c 0,53,54
 1094 886 1094 886 1094 1016 c 2,55,-1
 1094 1028 l 2,56,57
 1094 1242 1094 1242 1268 1372 c 0,58,59
 1422 1488 1422 1488 1644 1488 c 0,60,61
 1746 1488 1746 1488 1832 1409 c 128,-1,62
 1918 1330 1918 1330 1918 1230 c 0,0,1
1758 1172 m 0,63,64
 1758 1268 1758 1268 1664 1268 c 0,65,66
 1562 1268 1562 1268 1562 1178 c 1,67,-1
 1566 1152 l 2,68,69
 1578 1074 1578 1074 1658 1074 c 0,70,71
 1698 1074 1698 1074 1728 1103 c 128,-1,72
 1758 1132 1758 1132 1758 1172 c 0,63,64
EndSplineSet
Ligature2: "'abvs' Above Base Substitutions lookup 6 subtable" tm_nga tm_iikaar
EndChar

StartChar: tm_c_iikaar
Encoding: 65567 -1 144
Width: 1456
GlyphClass: 2
Flags: W
LayerCount: 2
Fore
SplineSet
1406 1308 m 2,0,1
 1406 1208 1406 1208 1344 1136 c 0,2,3
 1278 1058 1278 1058 1180 1058 c 0,4,5
 1112 1058 1112 1058 1060 1115 c 128,-1,6
 1008 1172 1008 1172 1008 1242 c 0,7,8
 1008 1304 1008 1304 1054 1344 c 1,9,-1
 1028 1346 l 2,10,11
 964 1350 964 1350 897 1314 c 128,-1,12
 830 1278 830 1278 808 1218 c 1,13,14
 798 1178 798 1178 798 1144 c 0,15,16
 798 994 798 994 934 926 c 1,17,-1
 1192 926 l 1,18,-1
 1168 868 l 1,19,-1
 934 868 l 1,20,-1
 890 550 l 1,21,-1
 1168 550 l 1,22,-1
 1148 496 l 1,23,-1
 882 496 l 1,24,-1
 864 348 l 2,25,26
 844 178 844 178 718 76 c 0,27,28
 608 -12 608 -12 468 -12 c 0,29,30
 280 -12 280 -12 166 60 c 0,31,32
 28 148 28 148 28 324 c 0,33,34
 28 550 28 550 290 550 c 2,35,-1
 332 550 l 1,36,-1
 378 926 l 1,37,-1
 808 926 l 1,38,39
 684 1050 684 1050 684 1218 c 0,40,41
 684 1384 684 1384 806 1480 c 0,42,43
 920 1570 920 1570 1090 1570 c 0,44,45
 1212 1570 1212 1570 1304 1506 c 0,46,47
 1406 1434 1406 1434 1406 1316 c 2,48,-1
 1406 1308 l 2,0,1
1240 1280 m 0,49,50
 1240 1356 1240 1356 1168 1356 c 0,51,52
 1080 1356 1080 1356 1080 1254 c 0,53,54
 1080 1160 1080 1160 1156 1160 c 1,55,56
 1194 1166 1194 1166 1217 1203 c 128,-1,57
 1240 1240 1240 1240 1240 1280 c 0,49,50
696 868 m 1,58,-1
 458 868 l 1,59,-1
 418 550 l 1,60,-1
 652 550 l 1,61,-1
 696 868 l 1,58,-1
644 496 m 1,62,-1
 266 496 l 2,63,64
 106 496 106 496 106 324 c 0,65,66
 106 210 106 210 188 146 c 0,67,68
 260 90 260 90 378 90 c 0,69,70
 466 90 466 90 541 164 c 128,-1,71
 616 238 616 238 628 348 c 2,72,-1
 644 496 l 1,62,-1
EndSplineSet
Ligature2: "'abvs' Above Base Substitutions lookup 6 subtable" tm_ca tm_iikaar
EndChar

StartChar: tm_j_iikaar
Encoding: 65568 -1 145
Width: 1918
GlyphClass: 2
Flags: W
LayerCount: 2
Fore
SplineSet
2050 1184 m 0,0,1
 2050 1086 2050 1086 1980 1012 c 128,-1,2
 1910 938 1910 938 1812 938 c 2,3,-1
 1804 938 l 2,4,5
 1712 938 1712 938 1644 994 c 128,-1,6
 1576 1050 1576 1050 1576 1140 c 0,7,8
 1576 1214 1576 1214 1610 1254 c 1,9,10
 1532 1254 1532 1254 1475 1186 c 128,-1,11
 1418 1118 1418 1118 1418 1040 c 0,12,13
 1418 978 1418 978 1464 918 c 1,14,15
 1622 890 1622 890 1710 766 c 0,16,17
 1790 650 1790 650 1790 484 c 2,18,-1
 1790 460 l 2,19,20
 1790 78 1790 78 1262 78 c 2,21,-1
 458 78 l 2,22,23
 338 78 338 78 245 -19 c 128,-1,24
 152 -116 152 -116 152 -238 c 0,25,26
 152 -330 152 -330 219 -392 c 128,-1,27
 286 -454 286 -454 378 -454 c 2,28,-1
 390 -454 l 2,29,30
 558 -454 558 -454 716 -326 c 2,31,-1
 980 -112 l 1,32,33
 1156 0 1156 0 1394 0 c 0,34,35
 1520 0 1520 0 1602 -66 c 0,36,37
 1688 -138 1688 -138 1688 -262 c 0,38,39
 1688 -390 1688 -390 1590 -476 c 0,40,41
 1502 -554 1502 -554 1364 -566 c 1,42,-1
 1346 -566 l 2,43,44
 1240 -566 1240 -566 1152 -488 c 128,-1,45
 1064 -410 1064 -410 1064 -306 c 0,46,47
 1064 -228 1064 -228 1126 -172 c 1,48,-1
 1168 -196 l 1,49,50
 1140 -234 1140 -234 1140 -288 c 0,51,52
 1140 -350 1140 -350 1174 -398 c 0,53,54
 1212 -454 1212 -454 1270 -454 c 0,55,56
 1348 -454 1348 -454 1396 -388 c 0,57,58
 1438 -328 1438 -328 1438 -246 c 0,59,60
 1438 -172 1438 -172 1400 -121 c 128,-1,61
 1362 -70 1362 -70 1292 -70 c 0,62,63
 1108 -70 1108 -70 960 -198 c 2,64,-1
 682 -438 l 1,65,66
 500 -566 500 -566 290 -566 c 0,67,68
 154 -566 154 -566 44 -478 c 0,69,70
 -74 -382 -74 -382 -74 -250 c 0,71,72
 -74 -110 -74 -110 0 0 c 0,73,74
 88 132 88 132 254 132 c 2,75,-1
 1214 132 l 2,76,77
 1340 132 1340 132 1447 241 c 128,-1,78
 1554 350 1554 350 1554 460 c 2,79,-1
 1554 486 l 2,80,81
 1554 612 1554 612 1488 692 c 0,82,83
 1416 778 1416 778 1292 778 c 0,84,85
 1180 778 1180 778 1090 703 c 128,-1,86
 1000 628 1000 628 988 520 c 2,87,-1
 954 204 l 1,88,-1
 730 204 l 1,89,-1
 764 542 l 1,90,91
 764 666 764 666 658 738 c 0,92,93
 564 800 564 800 434 800 c 0,94,95
 224 800 224 800 176 664 c 1,96,-1
 242 674 l 1,97,-1
 304 678 l 2,98,99
 570 696 570 696 570 460 c 0,100,101
 570 352 570 352 474 282 c 0,102,103
 392 222 392 222 266 222 c 0,104,105
 154 222 154 222 88 298 c 0,106,107
 28 368 28 368 28 484 c 0,108,109
 28 686 28 686 166 808 c 0,110,111
 298 926 298 926 504 926 c 0,112,113
 824 926 824 926 946 664 c 1,114,115
 1094 924 1094 924 1384 924 c 1,116,117
 1316 1038 1316 1038 1316 1172 c 0,118,119
 1316 1318 1316 1318 1436 1406 c 0,120,121
 1542 1484 1542 1484 1694 1484 c 0,122,123
 1842 1484 1842 1484 1940 1410 c 0,124,125
 2050 1328 2050 1328 2050 1184 c 0,0,1
1832 1150 m 0,126,127
 1832 1188 1832 1188 1808 1221 c 128,-1,128
 1784 1254 1784 1254 1746 1254 c 0,129,130
 1660 1254 1660 1254 1660 1156 c 0,131,132
 1660 1122 1660 1122 1684 1086 c 1,133,134
 1708 1058 1708 1058 1750 1058 c 2,135,-1
 1758 1058 l 2,136,137
 1832 1058 1832 1058 1832 1150 c 0,126,127
334 436 m 0,138,139
 334 492 334 492 303 533 c 128,-1,140
 272 574 272 574 218 574 c 0,141,142
 106 574 106 574 106 454 c 0,143,144
 106 396 106 396 140 356 c 128,-1,145
 174 316 174 316 230 316 c 0,146,147
 276 316 276 316 305 352 c 128,-1,148
 334 388 334 388 334 436 c 0,138,139
EndSplineSet
Ligature2: "'abvs' Above Base Substitutions lookup 6 subtable" tm_ja tm_iikaar
EndChar

StartChar: tm_ny_iikaar
Encoding: 65569 -1 146
Width: 2230
GlyphClass: 2
Flags: W
LayerCount: 2
Fore
SplineSet
2164 1308 m 2,0,1
 2164 1208 2164 1208 2102 1133 c 128,-1,2
 2040 1058 2040 1058 1942 1058 c 0,3,4
 1872 1058 1872 1058 1821 1112 c 128,-1,5
 1770 1166 1770 1166 1770 1238 c 0,6,7
 1770 1298 1770 1298 1816 1344 c 1,8,-1
 1790 1346 l 2,9,10
 1732 1350 1732 1350 1654 1312 c 0,11,12
 1584 1278 1584 1278 1566 1218 c 0,13,14
 1556 1186 1556 1186 1556 1144 c 0,15,16
 1556 994 1556 994 1692 926 c 1,17,-1
 1950 926 l 1,18,-1
 1930 868 l 1,19,-1
 1692 868 l 1,20,-1
 1648 550 l 1,21,22
 1706 632 1706 632 1840 632 c 0,23,24
 1972 632 1972 632 2052 512 c 0,25,26
 2122 408 2122 408 2122 270 c 0,27,28
 2122 -82 2122 -82 1754 -286 c 0,29,30
 1450 -454 1450 -454 1070 -454 c 0,31,32
 674 -454 674 -454 380 -262 c 0,33,34
 42 -40 42 -40 42 336 c 0,35,36
 42 684 42 684 188 844 c 0,37,38
 224 884 224 884 258 884 c 0,39,40
 284 884 284 884 307 860 c 128,-1,41
 330 836 330 836 330 810 c 0,42,43
 330 790 330 790 312 766 c 1,44,45
 228 688 228 688 176 576 c 0,46,47
 122 458 122 458 122 348 c 2,48,-1
 122 336 l 2,49,50
 122 22 122 22 412 -186 c 0,51,52
 678 -376 678 -376 1058 -376 c 0,53,54
 1368 -376 1368 -376 1606 -224 c 0,55,56
 1882 -48 1882 -48 1882 258 c 0,57,58
 1882 528 1882 528 1770 528 c 0,59,60
 1684 528 1684 528 1640 472 c 1,61,-1
 1578 0 l 1,62,-1
 1340 0 l 1,63,-1
 1454 868 l 1,64,-1
 968 868 l 2,65,66
 794 868 794 868 636 736 c 0,67,68
 472 596 472 596 472 426 c 0,69,70
 472 362 472 362 501 284 c 128,-1,71
 530 206 530 206 562 180 c 1,72,-1
 554 266 l 1,73,74
 554 394 554 394 614 480 c 0,75,76
 684 574 684 574 808 574 c 0,77,78
 912 574 912 574 978 482 c 0,79,80
 1036 400 1036 400 1036 292 c 0,81,82
 1036 154 1036 154 958 71 c 128,-1,83
 880 -12 880 -12 742 -12 c 0,84,85
 582 -12 582 -12 480 132 c 0,86,87
 390 258 390 258 390 426 c 0,88,89
 390 636 390 636 578 786 c 0,90,91
 752 926 752 926 968 926 c 2,92,-1
 1566 926 l 1,93,94
 1442 1050 1442 1050 1442 1218 c 0,95,96
 1442 1384 1442 1384 1564 1480 c 0,97,98
 1678 1570 1678 1570 1848 1570 c 0,99,100
 1970 1570 1970 1570 2062 1506 c 0,101,102
 2164 1434 2164 1434 2164 1316 c 2,103,-1
 2164 1308 l 2,0,1
1996 1262 m 0,104,105
 1996 1356 1996 1356 1930 1356 c 0,106,107
 1854 1356 1854 1356 1854 1276 c 1,108,-1
 1860 1242 l 1,109,110
 1860 1160 1860 1160 1918 1160 c 0,111,112
 1996 1160 1996 1160 1996 1262 c 0,104,105
796 258 m 0,113,114
 796 426 796 426 718 426 c 0,115,116
 678 426 678 426 650 372 c 0,117,118
 628 328 628 328 628 282 c 256,119,120
 628 236 628 236 646 188 c 0,121,122
 670 130 670 130 708 122 c 1,123,124
 740 122 740 122 768 161 c 128,-1,125
 796 200 796 200 796 258 c 0,113,114
EndSplineSet
Ligature2: "'abvs' Above Base Substitutions lookup 6 subtable" tm_nya tm_iikaar
EndChar

StartChar: tm_tt_iikaar
Encoding: 65570 -1 147
Width: 1754
GlyphClass: 2
Flags: W
LayerCount: 2
Fore
SplineSet
1668 88 m 1,0,-1
 1654 4 l 1,1,-1
 20 0 l 1,2,-1
 144 926 l 1,3,-1
 378 926 l 1,4,-1
 266 88 l 1,5,-1
 718 88 l 1,6,7
 480 214 480 214 480 452 c 2,8,-1
 480 472 l 2,9,10
 480 622 480 622 598 728 c 0,11,12
 706 824 706 824 890 824 c 0,13,14
 1020 824 1020 824 1108 760 c 0,15,16
 1208 688 1208 688 1208 562 c 0,17,18
 1208 462 1208 462 1145 389 c 128,-1,19
 1082 316 1082 316 980 316 c 0,20,21
 910 316 910 316 856 379 c 128,-1,22
 802 442 802 442 802 512 c 0,23,24
 802 564 802 564 844 610 c 1,25,-1
 830 610 l 2,26,27
 740 610 740 610 679 525 c 128,-1,28
 618 440 618 440 618 348 c 0,29,30
 618 144 618 144 832 88 c 1,31,-1
 1668 88 l 1,0,-1
1024 508 m 0,32,33
 1024 542 1024 542 1006 578 c 1,34,35
 988 604 988 604 958 610 c 1,36,37
 928 610 928 610 908 576 c 128,-1,38
 888 542 888 542 888 508 c 0,39,40
 888 418 888 418 958 418 c 0,41,42
 1024 418 1024 418 1024 508 c 0,32,33
EndSplineSet
Ligature2: "'abvs' Above Base Substitutions lookup 5 subtable" tm_tta tm_iikaar
EndChar

StartChar: tm_nn_iikaar
Encoding: 65571 -1 148
Width: 2890
GlyphClass: 2
Flags: W
LayerCount: 2
Fore
SplineSet
3046 1308 m 0,0,1
 3046 1206 3046 1206 2983 1132 c 128,-1,2
 2920 1058 2920 1058 2820 1058 c 0,3,4
 2752 1058 2752 1058 2700 1112 c 128,-1,5
 2648 1166 2648 1166 2648 1238 c 0,6,7
 2648 1292 2648 1292 2696 1344 c 1,8,-1
 2670 1346 l 2,9,10
 2612 1350 2612 1350 2533 1311 c 128,-1,11
 2454 1272 2454 1272 2440 1190 c 0,12,13
 2436 1170 2436 1170 2436 1146 c 0,14,15
 2436 994 2436 994 2570 926 c 1,16,-1
 2820 926 l 1,17,-1
 2796 868 l 1,18,-1
 2558 868 l 1,19,-1
 2446 0 l 1,20,-1
 2210 0 l 1,21,-1
 2320 868 l 1,22,-1
 2118 868 l 2,23,24
 1970 868 1970 868 1860 758 c 1,25,26
 2040 590 2040 590 2040 372 c 0,27,28
 2040 238 2040 238 1962 120 c 0,29,30
 1874 -12 1874 -12 1746 -12 c 0,31,32
 1578 -12 1578 -12 1524 214 c 0,33,34
 1506 282 1506 282 1506 354 c 0,35,36
 1506 548 1506 548 1660 714 c 1,37,38
 1618 770 1618 770 1539 813 c 128,-1,39
 1460 856 1460 856 1394 856 c 0,40,41
 1350 856 1350 856 1270 822 c 128,-1,42
 1190 788 1190 788 1160 758 c 1,43,44
 1340 584 1340 584 1340 372 c 0,45,46
 1340 238 1340 238 1262 120 c 0,47,48
 1174 -12 1174 -12 1046 -12 c 0,49,50
 878 -12 878 -12 824 214 c 0,51,52
 806 282 806 282 806 354 c 0,53,54
 806 554 806 554 960 714 c 1,55,56
 848 850 848 850 644 850 c 0,57,58
 444 850 444 850 284 732 c 0,59,60
 106 600 106 600 106 426 c 0,61,62
 106 364 106 364 134 286 c 128,-1,63
 162 208 162 208 200 180 c 1,64,-1
 192 268 l 1,65,66
 192 396 192 396 254 480 c 0,67,68
 324 574 324 574 446 574 c 0,69,70
 550 574 550 574 614 482 c 0,71,72
 672 400 672 400 672 292 c 0,73,74
 672 154 672 154 594 71 c 128,-1,75
 516 -12 516 -12 378 -12 c 0,76,77
 226 -12 226 -12 122 124 c 0,78,79
 28 248 28 248 28 426 c 0,80,81
 28 652 28 652 238 802 c 0,82,83
 426 938 426 938 660 938 c 0,84,85
 898 938 898 938 1082 812 c 1,86,87
 1246 928 1246 928 1432 928 c 0,88,89
 1620 928 1620 928 1786 812 c 1,90,91
 1946 926 1946 926 2128 926 c 2,92,-1
 2446 926 l 1,93,94
 2320 1052 2320 1052 2320 1218 c 256,95,96
 2320 1384 2320 1384 2444 1482 c 0,97,98
 2558 1570 2558 1570 2730 1570 c 0,99,100
 2858 1570 2858 1570 2946 1504 c 0,101,102
 3046 1430 3046 1430 3046 1308 c 0,0,1
2862 1256 m 0,103,104
 2862 1356 2862 1356 2796 1356 c 256,105,106
 2730 1356 2730 1356 2730 1230 c 0,107,108
 2730 1160 2730 1160 2796 1160 c 256,109,110
 2862 1160 2862 1160 2862 1256 c 0,103,104
1800 394 m 0,111,112
 1800 540 1800 540 1718 648 c 1,113,114
 1586 522 1586 522 1586 382 c 0,115,116
 1586 156 1586 156 1680 156 c 0,117,118
 1736 156 1736 156 1768 223 c 128,-1,119
 1800 290 1800 290 1800 394 c 0,111,112
1102 394 m 0,120,121
 1102 526 1102 526 1016 648 c 1,122,123
 886 518 886 518 886 382 c 0,124,125
 886 156 886 156 976 156 c 0,126,127
 1040 156 1040 156 1076 248 c 0,128,129
 1102 318 1102 318 1102 394 c 0,120,121
434 258 m 0,130,131
 434 426 434 426 356 426 c 0,132,133
 324 426 324 426 292 382 c 1,134,-1
 276 342 l 2,135,136
 266 316 266 316 266 282 c 0,137,138
 266 212 266 212 289 168 c 128,-1,139
 312 124 312 124 344 122 c 0,140,141
 374 122 374 122 408 158 c 1,142,143
 434 200 434 200 434 258 c 0,130,131
EndSplineSet
Ligature2: "'abvs' Above Base Substitutions lookup 6 subtable" tm_nna tm_iikaar
EndChar

StartChar: tm_t_iikaar
Encoding: 65572 -1 149
Width: 1422
GlyphClass: 2
Flags: W
LayerCount: 2
Fore
SplineSet
1422 1308 m 0,0,1
 1422 1208 1422 1208 1358 1133 c 128,-1,2
 1294 1058 1294 1058 1196 1058 c 0,3,4
 1132 1058 1132 1058 1077 1114 c 128,-1,5
 1022 1170 1022 1170 1022 1238 c 0,6,7
 1022 1292 1022 1292 1070 1344 c 1,8,-1
 1044 1346 l 2,9,10
 986 1350 986 1350 908 1312 c 0,11,12
 840 1278 840 1278 820 1218 c 1,13,-1
 812 1180 l 1,14,-1
 810 1148 l 2,15,16
 800 996 800 996 946 926 c 1,17,-1
 1196 926 l 1,18,-1
 1172 868 l 1,19,-1
 934 868 l 1,20,-1
 894 550 l 1,21,-1
 968 550 l 2,22,23
 1104 550 1104 550 1202 474 c 0,24,25
 1308 392 1308 392 1308 260 c 2,26,-1
 1308 246 l 2,27,28
 1308 76 1308 76 1200 -30 c 128,-1,29
 1092 -136 1092 -136 922 -136 c 2,30,-1
 300 -136 l 2,31,32
 248 -136 248 -136 206 -168 c 128,-1,33
 164 -200 164 -200 164 -250 c 0,34,35
 164 -278 164 -278 193 -311 c 128,-1,36
 222 -344 222 -344 222 -364 c 0,37,38
 222 -430 222 -430 181 -471 c 128,-1,39
 140 -512 140 -512 74 -512 c 0,40,41
 -70 -512 -70 -512 -70 -308 c 0,42,43
 -70 -206 -70 -206 10 -142 c 0,44,45
 82 -82 82 -82 188 -82 c 2,46,-1
 766 -82 l 2,47,48
 894 -82 894 -82 982 18 c 128,-1,49
 1070 118 1070 118 1070 246 c 0,50,51
 1070 362 1070 362 1029 429 c 128,-1,52
 988 496 988 496 922 496 c 2,53,-1
 886 496 l 1,54,-1
 868 348 l 2,55,56
 848 178 848 178 722 76 c 0,57,58
 612 -12 612 -12 472 -12 c 0,59,60
 282 -12 282 -12 168 60 c 0,61,62
 32 146 32 146 32 324 c 0,63,64
 32 550 32 550 290 550 c 2,65,-1
 332 550 l 1,66,-1
 378 926 l 1,67,-1
 820 926 l 1,68,69
 696 1050 696 1050 696 1218 c 0,70,71
 696 1384 696 1384 820 1482 c 0,72,73
 934 1570 934 1570 1106 1570 c 0,74,75
 1234 1570 1234 1570 1322 1504 c 0,76,77
 1422 1430 1422 1430 1422 1308 c 0,0,1
1238 1230 m 0,78,79
 1238 1356 1238 1356 1184 1356 c 0,80,81
 1146 1356 1146 1356 1124 1310 c 0,82,83
 1106 1272 1106 1272 1106 1230 c 0,84,85
 1106 1168 1106 1168 1170 1160 c 1,86,87
 1238 1160 1238 1160 1238 1230 c 0,78,79
696 868 m 1,88,-1
 460 868 l 1,89,-1
 418 550 l 1,90,-1
 656 550 l 1,91,-1
 696 868 l 1,88,-1
648 496 m 1,92,-1
 266 496 l 2,93,94
 110 496 110 496 110 324 c 0,95,96
 110 212 110 212 190 148 c 0,97,98
 262 90 262 90 378 90 c 0,99,100
 460 90 460 90 537 165 c 128,-1,101
 614 240 614 240 628 348 c 2,102,-1
 648 496 l 1,92,-1
EndSplineSet
Ligature2: "'abvs' Above Base Substitutions lookup 6 subtable" tm_ta tm_iikaar
EndChar

StartChar: tm_n_iikaar
Encoding: 65573 -1 150
Width: 1238
GlyphClass: 2
Flags: W
LayerCount: 2
Fore
SplineSet
1184 1308 m 0,0,1
 1184 1208 1184 1208 1120 1133 c 128,-1,2
 1056 1058 1056 1058 958 1058 c 0,3,4
 890 1058 890 1058 838 1115 c 128,-1,5
 786 1172 786 1172 786 1240 c 0,6,7
 786 1306 786 1306 832 1344 c 1,8,-1
 806 1346 l 2,9,10
 750 1350 750 1350 674 1312 c 0,11,12
 606 1276 606 1276 582 1218 c 1,13,14
 572 1182 572 1182 572 1146 c 0,15,16
 572 994 572 994 708 926 c 1,17,-1
 946 926 l 1,18,-1
 922 868 l 1,19,-1
 684 868 l 1,20,-1
 644 550 l 1,21,22
 722 632 722 632 822 632 c 0,23,24
 940 632 940 632 1027 538 c 128,-1,25
 1114 444 1114 444 1114 324 c 0,26,27
 1114 96 1114 96 972 -24 c 0,28,29
 838 -136 838 -136 606 -136 c 2,30,-1
 246 -136 l 2,31,32
 194 -136 194 -136 152 -167 c 128,-1,33
 110 -198 110 -198 110 -250 c 0,34,35
 110 -276 110 -276 135 -310 c 128,-1,36
 160 -344 160 -344 164 -364 c 1,37,38
 164 -512 164 -512 20 -512 c 0,39,40
 -128 -512 -128 -512 -128 -308 c 0,41,42
 -128 -202 -128 -202 -48 -140 c 0,43,44
 24 -82 24 -82 132 -82 c 2,45,-1
 516 -82 l 2,46,47
 660 -82 660 -82 769 46 c 128,-1,48
 878 174 878 174 878 316 c 0,49,50
 878 388 878 388 842 446 c 0,51,52
 800 512 800 512 734 522 c 1,53,54
 682 522 682 522 632 472 c 1,55,-1
 574 0 l 1,56,-1
 336 0 l 1,57,-1
 450 868 l 1,58,-1
 210 868 l 1,59,-1
 98 0 l 1,60,-1
 20 0 l 1,61,-1
 132 926 l 1,62,-1
 582 926 l 1,63,64
 460 1052 460 1052 460 1218 c 256,65,66
 460 1384 460 1384 584 1482 c 0,67,68
 696 1570 696 1570 868 1570 c 0,69,70
 996 1570 996 1570 1084 1504 c 0,71,72
 1184 1430 1184 1430 1184 1308 c 0,0,1
1004 1262 m 0,73,74
 1004 1356 1004 1356 946 1356 c 0,75,76
 910 1356 910 1356 889 1318 c 128,-1,77
 868 1280 868 1280 868 1242 c 0,78,79
 868 1160 868 1160 934 1160 c 0,80,81
 1004 1160 1004 1160 1004 1262 c 0,73,74
EndSplineSet
Ligature2: "'abvs' Above Base Substitutions lookup 6 subtable" tm_na tm_iikaar
EndChar

StartChar: tm_nnn_iikaar
Encoding: 65574 -1 151
Width: 2168
GlyphClass: 2
Flags: W
LayerCount: 2
Fore
SplineSet
2336 1308 m 2,0,1
 2336 1210 2336 1210 2272 1134 c 128,-1,2
 2208 1058 2208 1058 2110 1058 c 0,3,4
 2038 1058 2038 1058 1970 1119 c 128,-1,5
 1902 1180 1902 1180 1902 1250 c 0,6,7
 1902 1310 1902 1310 1954 1356 c 1,8,-1
 1944 1358 l 1,9,-1
 1932 1358 l 2,10,11
 1868 1358 1868 1358 1812 1318 c 128,-1,12
 1756 1278 1756 1278 1738 1218 c 0,13,14
 1728 1184 1728 1184 1728 1144 c 0,15,16
 1728 994 1728 994 1864 926 c 1,17,-1
 2110 926 l 1,18,-1
 2090 868 l 1,19,-1
 1852 868 l 1,20,-1
 1738 0 l 1,21,-1
 1500 0 l 1,22,-1
 1614 868 l 1,23,-1
 1410 868 l 2,24,25
 1268 868 1268 868 1152 758 c 1,26,27
 1332 584 1332 584 1332 372 c 0,28,29
 1332 236 1332 236 1256 120 c 0,30,31
 1168 -12 1168 -12 1040 -12 c 0,32,33
 930 -12 930 -12 865 94 c 128,-1,34
 800 200 800 200 800 360 c 2,35,-1
 800 394 l 2,36,37
 800 558 800 558 954 714 c 1,38,39
 838 854 838 854 634 854 c 0,40,41
 438 854 438 854 280 734 c 0,42,43
 102 600 102 600 102 426 c 2,44,-1
 102 418 l 2,45,46
 102 364 102 364 128 290 c 0,47,48
 156 208 156 208 192 180 c 1,49,-1
 184 268 l 1,50,51
 184 396 184 396 246 480 c 0,52,53
 316 574 316 574 438 574 c 0,54,55
 542 574 542 574 606 482 c 0,56,57
 664 400 664 400 664 292 c 0,58,59
 664 154 664 154 586 71 c 128,-1,60
 508 -12 508 -12 372 -12 c 0,61,62
 210 -12 210 -12 110 130 c 0,63,64
 20 258 20 258 20 426 c 0,65,66
 20 652 20 652 230 802 c 0,67,68
 418 938 418 938 652 938 c 0,69,70
 890 938 890 938 1074 812 c 1,71,72
 1236 926 1236 926 1422 926 c 2,73,-1
 1738 926 l 1,74,75
 1614 1050 1614 1050 1614 1218 c 0,76,77
 1614 1384 1614 1384 1736 1480 c 0,78,79
 1850 1570 1850 1570 2020 1570 c 0,80,81
 2142 1570 2142 1570 2234 1506 c 0,82,83
 2336 1434 2336 1434 2336 1316 c 2,84,-1
 2336 1308 l 2,0,1
2162 1272 m 0,85,86
 2162 1356 2162 1356 2110 1356 c 0,87,88
 2074 1356 2074 1356 2044 1320 c 1,89,-1
 2030 1294 l 2,90,91
 2018 1272 2018 1272 2018 1240 c 0,92,93
 2018 1160 2018 1160 2090 1160 c 0,94,95
 2120 1160 2120 1160 2141 1197 c 128,-1,96
 2162 1234 2162 1234 2162 1272 c 0,85,86
1094 394 m 0,97,98
 1094 526 1094 526 1008 648 c 1,99,100
 878 518 878 518 878 382 c 0,101,102
 878 156 878 156 968 156 c 0,103,104
 1032 156 1032 156 1068 248 c 0,105,106
 1094 318 1094 318 1094 394 c 0,97,98
426 258 m 0,107,108
 426 426 426 426 348 426 c 0,109,110
 316 426 316 426 284 382 c 1,111,-1
 268 342 l 2,112,113
 258 316 258 316 258 282 c 0,114,115
 258 212 258 212 281 168 c 128,-1,116
 304 124 304 124 336 122 c 0,117,118
 366 122 366 122 400 158 c 1,119,120
 426 200 426 200 426 258 c 0,107,108
EndSplineSet
Ligature2: "'abvs' Above Base Substitutions lookup 6 subtable" tm_nnna tm_iikaar
EndChar

StartChar: tm_p_iikaar
Encoding: 65575 -1 152
Width: 1528
GlyphClass: 2
Flags: W
LayerCount: 2
Fore
SplineSet
1704 1230 m 0,0,1
 1704 1134 1704 1134 1634 1063 c 128,-1,2
 1564 992 1564 992 1468 992 c 0,3,4
 1394 992 1394 992 1331 1049 c 128,-1,5
 1268 1106 1268 1106 1268 1178 c 0,6,7
 1268 1240 1268 1240 1320 1286 c 1,8,-1
 1284 1288 l 2,9,10
 1176 1294 1176 1294 1068 1204 c 0,11,12
 968 1118 968 1118 968 1004 c 0,13,14
 968 918 968 918 1029 848 c 128,-1,15
 1090 778 1090 778 1176 778 c 1,16,-1
 1196 926 l 1,17,-1
 1434 926 l 1,18,-1
 1308 0 l 1,19,-1
 8 0 l 1,20,-1
 132 926 l 1,21,-1
 372 926 l 1,22,-1
 258 80 l 1,23,-1
 1082 80 l 1,24,-1
 1168 710 l 1,25,-1
 1156 710 l 2,26,27
 1046 710 1046 710 960 816 c 0,28,29
 878 914 878 914 878 1028 c 0,30,31
 878 1240 878 1240 1054 1372 c 0,32,33
 1208 1488 1208 1488 1434 1488 c 0,34,35
 1538 1488 1538 1488 1621 1410 c 128,-1,36
 1704 1332 1704 1332 1704 1230 c 0,0,1
1546 1172 m 0,37,38
 1546 1216 1546 1216 1515 1246 c 128,-1,39
 1484 1276 1484 1276 1440 1276 c 0,40,41
 1350 1276 1350 1276 1350 1192 c 1,42,-1
 1356 1152 l 2,43,44
 1368 1074 1368 1074 1446 1074 c 0,45,46
 1486 1074 1486 1074 1516 1103 c 128,-1,47
 1546 1132 1546 1132 1546 1172 c 0,37,38
EndSplineSet
Ligature2: "'abvs' Above Base Substitutions lookup 6 subtable" tm_pa tm_iikaar
EndChar

